<svg width="42.00000000000001" height="39" xmlns="http://www.w3.org/2000/svg">

 <g>
  <title>background</title>
  <rect fill="none" id="canvas_background" height="41" width="44" y="-1" x="-1"/>
 </g>
 <g>
  <title>Layer 1</title>
  <g id="svg_1" display="none">
   <path id="svg_2" d="m58,59c0.935,0 1.35,0.584 1.35,1.442c0,0.857 -0.765,1.558 -1.7,1.558c-2.922,2.679 -2.55,4.949 -2.55,7c0,8.852 5.9,11 5.9,11s0,1.209 0,3c0,2.031 5,2.175 5,5s-2,1.857 -2,4c1.403,0 3,1.377 3,2.662c0,1.286 -1.147,2.338 -2.55,2.338l-28.9,0c-1.403,0 -2.55,-1.052 -2.55,-2.338c0,-1.285 1.597,-2.662 3,-2.662c0,-2.143 -2,-1.175 -2,-4s5,-2.938 5,-5c0,-1.791 0,-3 0,-3s5.9,-2.148 5.9,-11c0,-1.916 0.372,-4.321 -2.55,-7c-0.935,0 -1.7,-0.701 -1.7,-1.558c0,-0.858 0.415,-1.442 1.35,-1.442" stroke-miterlimit="10" stroke="#000000"/>
   <line id="svg_3" y2="59" x2="58" y1="59" x1="42" stroke-miterlimit="10" stroke="#000000"/>
   <line id="svg_4" y2="62" x2="62.65" y1="62" x1="37.35" stroke-miterlimit="10" stroke="#FFFFFF" fill="#000000"/>
   <line id="svg_5" y2="83" x2="64.929" y1="83" x1="35.071" stroke-miterlimit="10" stroke="#FFFFFF" fill="#000000"/>
   <line id="svg_6" y2="80" x2="63.571" y1="80" x1="36.429" stroke-miterlimit="10" stroke="#FFFFFF" fill="#000000"/>
   <line id="svg_7" y2="92" x2="69" y1="92" x1="31" stroke-miterlimit="10" stroke="#FFFFFF" fill="#000000"/>
   <path id="svg_8" d="m43.5,59c-0.825,0 -1.5,-0.675 -1.5,-1.5l0,0c0,-0.825 0.675,-1.5 1.5,-1.5l13,0c0.825,0 1.5,0.675 1.5,1.5l0,0c0,0.825 -0.675,1.5 -1.5,1.5" stroke-miterlimit="10" stroke="#000000"/>
   <path id="svg_9" d="m60.748,59l-21.496,0" stroke-miterlimit="10" stroke="#FFFFFF" fill="#000000"/>
   <path id="svg_10" d="m50,30l0,15l-3,0l0,-11.576c-2.271,2.869 -5,7.044 -5,10.576c0,6.044 3,9 3,9l0,3l10,0l0,-3c0,0 3,-2.956 3,-9c0,-6.044 -8,-14 -8,-14z" stroke-miterlimit="10" stroke="#000000"/>
  </g>
  <g stroke="null" id="svg_11">
   <g stroke="null" id="svg_12">
    <path stroke="null" id="svg_13" d="m11.36607,16.95804l19.14287,0l0.26321,0c0.20698,-0.16673 0.335,-0.35832 0.335,-0.56516c0,-0.3391 -0.32424,-0.64033 -0.82674,-0.84775l-18.68582,0c-0.5025,0.20741 -0.82674,0.50865 -0.82674,0.84775c0,0.20685 0.12802,0.39844 0.335,0.56516l0.26322,0z"/>
    <path stroke="null" id="svg_14" d="m9.28309,18.4009c0.06341,0.08873 0.14357,0.17407 0.25005,0.25263c0,0 0,0 0,0l22.80992,0c0,0 0,0 0,0c0.10648,-0.07856 0.18664,-0.1639 0.25005,-0.25263c0.01436,-0.01922 0.02752,-0.03843 0.03828,-0.05822c0.05384,-0.09212 0.09093,-0.18763 0.09093,-0.2871c0,-0.09721 -0.02392,-0.18707 -0.05743,-0.27354c-0.00478,-0.01018 -0.00957,-0.01978 -0.01435,-0.02995c-0.0359,-0.07969 -0.08735,-0.15373 -0.15195,-0.22268c-0.00119,-0.0017 -0.00239,-0.00396 -0.00359,-0.00621l-0.00119,0l-1.98487,0l-19.14287,0l-1.98368,0l-0.0012,0c-0.00119,0.00169 -0.00239,0.00395 -0.00359,0.00621c-0.06461,0.06895 -0.11486,0.14299 -0.15195,0.22268c-0.00478,0.01017 -0.01077,0.01978 -0.01435,0.02995c-0.0347,0.0859 -0.05743,0.17576 -0.05743,0.27354c0,0.09947 0.03828,0.19441 0.09093,0.2871c0.01077,0.01978 0.02393,0.03843 0.03828,0.05822z"/>
    <rect stroke="null" id="svg_15" height="1.13033" width="27.51667" y="29.39165" x="7.17857"/>
    <path stroke="null" id="svg_16" d="m41.7793,37.0807c-0.01317,-0.02317 -0.0359,-0.04521 -0.05145,-0.06782c-0.05743,-0.08477 -0.12682,-0.16842 -0.21775,-0.25036c-0.01795,-0.01583 -0.03949,-0.03052 -0.05742,-0.04635c-0.10769,-0.09099 -0.23211,-0.17859 -0.37449,-0.26336c-0.00837,-0.00509 -0.01794,-0.01018 -0.02752,-0.01525c-0.16032,-0.09326 -0.34098,-0.18142 -0.5336,-0.26394l-39.15912,0c-0.19262,0.08252 -0.37328,0.17012 -0.53361,0.26394c-0.00957,0.00508 -0.01795,0.01017 -0.02752,0.01525c-0.14237,0.08477 -0.2668,0.17237 -0.37448,0.26336c-0.01914,0.01583 -0.03948,0.03052 -0.05743,0.04635c-0.09093,0.08195 -0.16032,0.16559 -0.21775,0.25036c-0.01555,0.02261 -0.03829,0.04465 -0.05145,0.06782c-0.05863,0.10456 -0.09572,0.21024 -0.09572,0.31536c0,0.88448 1.63672,1.60393 3.64911,1.60393l34.5768,0c2.0124,0 3.64911,-0.71946 3.64911,-1.60393c0,-0.10569 -0.03709,-0.2108 -0.09571,-0.31536z"/>
    <path stroke="null" id="svg_17" d="m2.75657,35.17554c0.37568,0.13225 0.63889,0.23059 0.75854,0.43291c0,0 0,0 0,0.00056l34.84479,0c0,0 0,0 0,-0.00056c0.11964,-0.20233 0.38286,-0.3001 0.75854,-0.43291c0.69513,-0.24528 1.56014,-0.55047 1.56014,-1.54515c0,-1.03708 -2.0435,-1.52765 -3.6874,-1.92156c-0.19263,-0.04635 -0.38046,-0.09212 -0.56471,-0.1379c-0.02753,-0.00678 -0.05624,-0.01413 -0.08376,-0.02091c-0.58864,-0.14808 -1.1031,-0.29784 -1.39264,-0.46287l-28.01558,0c-0.09572,0.05651 -0.21775,0.11077 -0.35893,0.16333c-0.00598,0.00226 -0.01077,0.00452 -0.01675,0.00678c-0.28116,0.10456 -0.64009,0.20346 -1.03132,0.3018c-0.02871,0.00735 -0.05743,0.01469 -0.08614,0.02148c-0.18665,0.04634 -0.37807,0.09269 -0.57309,0.13903c-1.63671,0.39053 -3.67184,0.876 -3.67184,1.91082c0,0.99469 0.86502,1.29987 1.56014,1.54515z"/>
    <path stroke="null" id="svg_18" d="m34.11378,28.80557c-0.04308,-0.00904 -0.08735,-0.01809 -0.14238,-0.03052c-0.02753,-0.00621 -0.06342,-0.01525 -0.09452,-0.02204c-0.07537,-0.01752 -0.15793,-0.03731 -0.25006,-0.06104c-0.0323,-0.00848 -0.07058,-0.01865 -0.10528,-0.02826c-0.1005,-0.02656 -0.20818,-0.05651 -0.32304,-0.09042c-0.03948,-0.01131 -0.08136,-0.02487 -0.12204,-0.0373c-0.11963,-0.03617 -0.24406,-0.0763 -0.37448,-0.12038c-0.04546,-0.01526 -0.09212,-0.03165 -0.13879,-0.04804c-0.1316,-0.04634 -0.268,-0.09665 -0.40798,-0.1509c-0.05144,-0.01978 -0.10408,-0.04125 -0.15554,-0.06217c-0.13878,-0.05595 -0.27996,-0.11699 -0.42353,-0.18198c-0.05743,-0.026 -0.11366,-0.05199 -0.17109,-0.07912c-0.14118,-0.06669 -0.28236,-0.13846 -0.42353,-0.21307c-0.06102,-0.03222 -0.12204,-0.06443 -0.18186,-0.09834c-0.13878,-0.07686 -0.27518,-0.15994 -0.41157,-0.24528c-0.06341,-0.03956 -0.12682,-0.07856 -0.18904,-0.12038c-0.13161,-0.0876 -0.26082,-0.18198 -0.38764,-0.27863c-0.06341,-0.04748 -0.12682,-0.09439 -0.18784,-0.14412c-0.12203,-0.09834 -0.23809,-0.20459 -0.35294,-0.31197c-0.06102,-0.05708 -0.12323,-0.1119 -0.18185,-0.17125c-0.10888,-0.10964 -0.20938,-0.22832 -0.30868,-0.34701c-0.05623,-0.06612 -0.11486,-0.12942 -0.1663,-0.19894c-0.09332,-0.12264 -0.17587,-0.25489 -0.25842,-0.38657c-0.04667,-0.07517 -0.09931,-0.14694 -0.14238,-0.22493c-0.07657,-0.13791 -0.13759,-0.28711 -0.1998,-0.43518c-0.0347,-0.08252 -0.07657,-0.16051 -0.10648,-0.24641c-0.05743,-0.1639 -0.09691,-0.33966 -0.1364,-0.51543c-0.01794,-0.08026 -0.04546,-0.15486 -0.05982,-0.23737c-0.04786,-0.26167 -0.07298,-0.53691 -0.07298,-0.82627c0,-0.11756 -0.00479,-0.2368 -0.00957,-0.35775c-0.00478,-0.12773 -0.00957,-0.25546 -0.00957,-0.38431c0.00479,-0.90143 0.27877,-1.84356 2.70752,-2.93151l-18.77795,0c2.43234,1.09133 2.70393,2.07755 2.70752,2.96429c0,0.1266 -0.00479,0.2515 -0.00957,0.37414c-0.00359,0.11416 -0.00837,0.22607 -0.00837,0.33514c0,0.28936 -0.02513,0.5646 -0.07059,0.8274c-0.01436,0.08252 -0.04187,0.15711 -0.05982,0.23737c-0.03948,0.1752 -0.07897,0.35153 -0.1364,0.51542c-0.02991,0.08591 -0.07178,0.16333 -0.10648,0.24641c-0.06222,0.14807 -0.12323,0.29671 -0.1998,0.43517c-0.04308,0.07855 -0.09452,0.14977 -0.14238,0.22494c-0.08255,0.13169 -0.16391,0.26393 -0.25843,0.38657c-0.05264,0.06895 -0.11127,0.13225 -0.1663,0.19894c-0.1005,0.11869 -0.1998,0.23737 -0.30868,0.34701c-0.05862,0.05934 -0.12084,0.11416 -0.18186,0.17124c-0.11485,0.10738 -0.23091,0.21363 -0.35295,0.31197c-0.06222,0.04973 -0.12562,0.09608 -0.18784,0.14412c-0.12802,0.09664 -0.25604,0.19102 -0.38764,0.27862c-0.06222,0.04126 -0.12563,0.08082 -0.18904,0.12038c-0.1364,0.08534 -0.27398,0.16842 -0.41157,0.24529c-0.06102,0.03391 -0.12203,0.06612 -0.18186,0.09833c-0.14237,0.07517 -0.28355,0.14695 -0.42354,0.21307c-0.05742,0.02713 -0.11485,0.05313 -0.17109,0.07912c-0.14237,0.06443 -0.28475,0.12547 -0.42354,0.18199c-0.05264,0.02091 -0.10409,0.04238 -0.15554,0.06217c-0.13998,0.05425 -0.27518,0.10456 -0.40798,0.1509c-0.04666,0.01639 -0.09332,0.03278 -0.13879,0.04804c-0.13041,0.04408 -0.25484,0.08364 -0.37448,0.12038c-0.04068,0.01244 -0.08255,0.02543 -0.12203,0.0373c-0.11486,0.03391 -0.22134,0.0633 -0.32303,0.09042c-0.0347,0.00905 -0.07179,0.01978 -0.10529,0.02826c-0.09212,0.02374 -0.17348,0.04352 -0.25005,0.06104c-0.03111,0.00734 -0.067,0.01582 -0.09452,0.02204c-0.05623,0.01243 -0.1005,0.02204 -0.14238,0.03052c-0.0335,0.00678 -0.07538,0.01582 -0.0993,0.02091l26.55115,0c-0.02632,-0.00565 -0.06939,-0.01526 -0.10169,-0.02204z"/>
    <path stroke="null" id="svg_19" d="m14.35715,14.97996l13.16072,0l0,-1.01899c0.75614,-0.39957 3.58929,-2.10411 3.58929,-5.19781c0,-3.49328 -9.35009,-7.9253 -9.7473,-8.11237l-1.02056,-0.47982l0,8.87477l-2.39286,0l0,-7.0719l-1.06721,0.63637c-2.78768,1.66384 -6.11136,4.08161 -6.11136,6.15294c0,3.09371 2.83315,4.79824 3.58929,5.19781l0,1.01899z"/>
   </g>
  </g>
  <g id="svg_20" opacity="0.2" display="none">
   <g id="svg_21" display="inline">
    <g id="svg_22">
     <path id="svg_23" d="m52.497,82.07l-1.088,0.387c-0.082,-0.358 -0.38,-0.633 -0.849,-0.633c-0.574,0 -0.842,0.417 -0.842,0.842l0,1.408c0,0.501 0.28,0.87901 0.849,0.87901c0.569,0 0.991,-0.32401 0.991,-0.32401l0.001,-0.584l-1.156,0l0,-0.955l2.19,0c0,0 0,1.651 0,1.927c-0.361,0.495 -1.215,1.001 -2.026,1.001c-1.348,0 -2.004,-0.842 -2.004,-2.026l0,-1.222c0,-1.073 0.656,-2.019 2.004,-2.019c0.984,0 1.676,0.529 1.93,1.319z"/>
     <g id="svg_24">
      <path id="svg_25" d="m30.408,85.973l0,-5.19l3.668,0l0,1.029l-2.52,0l0,1.051l2.148,0l0,0.992l-2.148,0l0,1.089l2.52,0l0,1.029l-3.668,0z"/>
      <path id="svg_26" d="m75.413,85.973l0,-2.118l-1.7,0l0,2.118l-1.14799,0l0,-5.19l1.14799,0l0,2.08l1.7,0l0,-2.08l1.133,0l0,5.19l-1.133,0z"/>
     </g>
     <path id="svg_27" d="m46.75,81.685c0,0 -0.776,-0.952 -2.013,-0.952s-2.013,0.952 -2.013,0.952s-0.001,1.05 -0.001,1.078l0,0.639l0,0.416l0,1.252c0,0 0.786,0.958 2.014,0.958l0,0c1.228,0 2.014,-0.958 2.014,-0.958l0,-1.252l0,-0.416l0,-0.639c0.001,-0.028 -0.001,-1.078 -0.001,-1.078zm-1.148,1.708l0,0.245l0,0.868c0,0 -0.259,0.43301 -0.869,0.43301l0,0c-0.61,0 -0.869,-0.43301 -0.869,-0.43301l0,-0.868l0,-0.245l0,-0.376c0,-0.016 0.001,-0.765 0.001,-0.765s0.254,-0.429 0.868,-0.429c0.614,0 0.868,0.429 0.868,0.429s0.001,0.749 0.001,0.765l0,0.376z"/>
     <path id="svg_28" d="m26.48,80.793c1.155,0 1.966,0.992 1.966,0.992l0,0.959c0,0 0,1.072 0,1.10899c-0.002,0.666 0,1.131 0,1.131s-0.714,0.993 -2.093,0.993l-1.936,0l0,-5.184l2.063,0zm0.826,2.233l0,-0.133c0,-0.003 0,-0.006 0,-0.009c0,-0.218 -0.001,-0.606 -0.001,-0.606s-0.151,-0.254 -0.5,-0.367c-0.138,-0.056 -0.308,-0.084 -0.512,-0.084l-0.73,0l0,3.12099l0.752,0c0.246,0 0.436,-0.045 0.58,-0.129c0.284,-0.124 0.41,-0.335 0.41,-0.335l0,-0.849l0,-0.239l0,-0.368c0.001,0 0.001,-0.001 0.001,-0.002z"/>
     <path id="svg_29" d="m70.8,82.45l0,0c0,0.16 0,0.691 0,0.691s-0.843,0.934 -1.819,0.934l-0.991,0l0,1.894l-1.14799,0l0,-5.189l2.139,0c0.976,0 1.819,0.934 1.819,0.934s0,0.722 0,0.736zm-1.163,-0.28999c0,0 -0.332,-0.35101 -0.716,-0.35101l-0.931,0l0,1.238l0.932,0c0.384,0 0.716,-0.351 0.716,-0.351s0,-0.254 0,-0.268s-0.001,-0.268 -0.001,-0.268z"/>
     <path id="svg_30" d="m58.547,85.979l-0.994,-2.213l-0.004,-0.001c0.558,-0.277 0.949,-0.711 0.949,-0.711l0,-0.429l0,-0.215l0,0l0,-0.302l0,-0.387c0,0 -0.845,-0.937 -1.824,-0.937l-2.145,0l0,2.37l-0.003,-0.001l0,2.825l1.151,0l0,-1.987l0.003,0l0.754,0l0.812,1.987l1.301,0l0,0.001zm-2.867,-4.16299l0.934,0c0.385,0 0.718,0.352 0.718,0.352s0,0.048 0,0.12c0,0.057 0,0.094 0,0.1c0,0.006 0,0.051 0,0.104c0,0.076 0,0.116 0,0.116s-0.333,0.352 -0.718,0.352l-0.934,0l0,-1.144z"/>
     <path id="svg_31" d="m39.665,85.973l0,-2.47l-0.022,-0.008l-0.47,1.05199l-0.308,0.64301c0,0 -0.217,0.099 -0.496,0.099c-0.278,0 -0.462,-0.086 -0.462,-0.086l-0.33,-0.694l-0.455,-1.015l-0.022,0.022l0,2.455l-1.149,0l0,-5.193l1.037,0l0.701,1.507l0.671,1.559l0.03,0l0.649,-1.559l0.686,-1.507l1.082,0l0,5.193l-1.142,0l0,0.002z"/>
     <path id="svg_32" d="m63.909,85.973l-0.392,-1.065c0,0 -0.389,0.153 -0.888,0.153c-0.499,0 -0.867,-0.153 -0.867,-0.153l-0.392,1.065l-1.22,0l2.034,-5.17c0,0 0.197,-0.052 0.449,-0.052c0.252,0 0.462,0.052 0.462,0.052l2.033,5.17l-1.219,0zm-0.949,-2.641l-0.309,-1.035l-0.03,0l-0.301,1.02l-0.185,0.581c0,0 0.169,0.112 0.494,0.112c0.325,0 0.516,-0.11 0.516,-0.11l-0.185,-0.568z"/>
    </g>
    <g id="svg_33">
     <path id="svg_34" d="m35.493,92.398c0.594,0 1.102,0.217 1.354,0.737c0.143,0.291 0.154,0.69099 0.154,1.182c0,0.554 -0.012,0.959 -0.143,1.267c-0.263,0.6 -0.822,0.788 -1.462,0.788l-1.205,0l0,-3.975l1.302,0l0,0.001zm1.005,1.62199c0,-0.87399 -0.422,-1.16 -1.028,-1.16l-0.777,0l0,3.05l0.777,0c0.754,0 1.028,-0.44501 1.028,-1.131l0,-0.759z"/>
     <path id="svg_35" d="m39.425,94.083c-0.114,-0.074 -0.251,-0.108 -0.4,-0.108c-0.371,0 -0.645,0.234 -0.645,0.68501l0,1.713l-0.469,0l0,-2.833l0.469,0l0,0.36l0.023,0c0.2,-0.291 0.44,-0.389 0.743,-0.389c0.194,0 0.371,0.046 0.48,0.12l-0.201,0.452z"/>
     <path id="svg_36" d="m42.386,94.426l0,1.947l-0.474,0l0,-0.246l-0.006,-0.006c-0.103,0.166 -0.4,0.286 -0.783,0.286c-0.645,0 -1.005,-0.354 -1.005,-0.839c0,-0.44 0.297,-0.834 0.902,-0.834l0.891,0l0,-0.32c0,-0.308 -0.194,-0.462 -0.651,-0.462c-0.354,0 -0.548,0.097 -0.674,0.24599l-0.297,-0.314c0.211,-0.246 0.565,-0.371 0.953,-0.371c0.613,-0.001 1.144,0.193 1.144,0.913zm-1.205,1.55299c0.365,0 0.731,-0.103 0.731,-0.52499l0,-0.331l-0.777,0c-0.365,0 -0.571,0.154 -0.571,0.417c0,0.268 0.2,0.439 0.617,0.439z"/>
     <path id="svg_37" d="m45.887,95.699c0.063,-0.223 0.126,-0.46899 0.183,-0.686l0.411,-1.473l0.519,0l-0.908,2.832l-0.445,0l-0.422,-1.365l-0.246,-0.788l-0.229,0.783l-0.422,1.37l-0.451,0l-0.902,-2.832l0.514,0l0.429,1.49l0.183,0.634l0.023,0c0.057,-0.205 0.126,-0.417 0.183,-0.616l0.469,-1.508l0.434,0l0.457,1.49l0.194,0.668l0.026,0l0,0.001z"/>
     <path id="svg_38" d="m49.569,93.54l0,0.314l0.017,0.006c0.217,-0.251 0.491,-0.349 0.771,-0.349c0.811,0 1.011,0.72 1.011,1.422c0,0.731 -0.211,1.474 -1.102,1.474c-0.28,0 -0.52,-0.092 -0.685,-0.286l-0.011,0l0,1.382l-0.469,0l0,-3.963l0.468,0zm0.64,2.399c0.588,0 0.668,-0.52 0.668,-0.97701c0,-0.43999 -0.045,-0.988 -0.64,-0.988c-0.577,0 -0.668,0.571 -0.668,0.988c0,0.429 0.069,0.97701 0.64,0.97701z"/>
     <path id="svg_39" d="m52.625,95.117l0,0.04601c0,0.445 0.246,0.811 0.731,0.811c0.183,0 0.451,-0.097 0.64,-0.269l0.302,0.337c-0.268,0.257 -0.617,0.365 -0.965,0.365c-0.577,0 -1.199,-0.268 -1.199,-1.439c0,-1.12 0.645,-1.46201 1.182,-1.46201c0.623,0 1.131,0.456 1.131,1.245l0,0.365l-1.822,0l0,0.001zm0,-0.394l1.331,0c-0.023,-0.508 -0.28,-0.771 -0.663,-0.771c-0.383,0 -0.64,0.279 -0.668,0.771z"/>
     <path id="svg_40" d="m57.368,93.992c0.131,0.206 0.194,0.50201 0.194,0.868c0,0.485 -0.046,0.805 -0.177,1.028c-0.195,0.331 -0.571,0.52 -1.017,0.52c-0.405,0 -0.743,-0.143 -0.937,-0.42799c-0.155,-0.235 -0.211,-0.56001 -0.211,-1.011c0,-0.32 0.034,-0.58801 0.143,-0.811c0.189,-0.405 0.577,-0.64 1.068,-0.64c0.405,-0.001 0.742,0.17101 0.937,0.474zm-1.577,0.348c-0.08,0.17101 -0.097,0.383 -0.103,0.634c0,0.251 0.012,0.451 0.086,0.617c0.109,0.24599 0.32,0.389 0.599,0.389c0.303,0 0.56,-0.15501 0.668,-0.50301c0.04,-0.137 0.046,-0.297 0.046,-0.599c0,-0.217 -0.017,-0.389 -0.074,-0.525c-0.109,-0.28 -0.331,-0.411 -0.6,-0.411c-0.279,-0.002 -0.507,0.146 -0.622,0.39799z"/>
     <path id="svg_41" d="m58.919,93.54l0,0.314l0.017,0.006c0.217,-0.251 0.491,-0.349 0.771,-0.349c0.811,0 1.011,0.72 1.011,1.422c0,0.731 -0.211,1.474 -1.102,1.474c-0.28,0 -0.52,-0.092 -0.685,-0.286l-0.011,0l0,1.382l-0.469,0l0,-3.963l0.468,0zm0.64,2.399c0.588,0 0.668,-0.52 0.668,-0.97701c0,-0.43999 -0.045,-0.988 -0.639,-0.988c-0.577,0 -0.668,0.571 -0.668,0.988c-0.001,0.429 0.068,0.97701 0.639,0.97701z"/>
     <path id="svg_42" d="m62.31,96.373c-0.411,0 -0.697,-0.171 -0.697,-0.657l0,-3.48901l0.469,0l0,3.44901c0,0.171 0.097,0.269 0.291,0.269l0.137,0l0,0.428l-0.2,0z"/>
     <path id="svg_43" d="m63.59,95.117l0,0.04601c0,0.445 0.246,0.811 0.731,0.811c0.183,0 0.451,-0.097 0.64,-0.269l0.302,0.337c-0.268,0.257 -0.617,0.365 -0.965,0.365c-0.577,0 -1.199,-0.268 -1.199,-1.439c0,-1.12 0.645,-1.46201 1.182,-1.46201c0.623,0 1.131,0.456 1.131,1.245l0,0.365l-1.822,0l0,0.001zm0,-0.394l1.331,0c-0.02299,-0.508 -0.28,-0.771 -0.66299,-0.771c-0.383,0 -0.639,0.279 -0.668,0.771z"/>
     <path id="svg_44" d="m66.183,96.373l0,-0.634l0.58801,0l0,0.634l-0.58801,0z"/>
    </g>
    <g id="svg_45">
     <path id="svg_46" d="m53.589,18.108c0,-0.985 0,-4.141 0,-5.142c-1.893,-0.429 -3.105,-0.389 -3.105,-0.389s-1.212,-0.039 -3.105,0.389c0,1.001 0,4.157 0,5.142c1.569,-0.391 3.105,-0.376 3.105,-0.376s1.536,-0.015 3.105,0.376z"/>
     <path id="svg_47" d="m45.513,26.506c0.328,-0.146 1.317,-0.465 1.317,-0.465l0.001,23.654c0,0 1.726,0.504 3.001,0.504l0,-14.941l1.305,0l0,14.941c1.275,0 3.001,-0.504 3.001,-0.504l0.001,-23.654c0,0 0.989,0.319 1.317,0.465l0,6.508c0,0 1.39,0.521 2.893,1.666c0,-1.131 -0.002,-12.994 -0.002,-12.994s-3.13,-2.677 -7.861,-2.678l0,0c0,0 0,0 -0.001,0l-0.001,0l0,0c-4.731,0.001 -7.861,2.678 -7.861,2.678s-0.003,11.863 -0.003,12.994c1.503,-1.145 2.893,-1.666 2.893,-1.666l0,-6.508z"/>
     <path id="svg_48" d="m55.464,50.502c0,0 -2.155,0.994 -4.982,0.994c-2.828,0 -4.982,-0.994 -4.982,-0.994l0.009,-12.929c0,0 -1.472,-0.598 -2.908,-1.691c0,1.759 0,11.204 0,12.963c0.068,0.136 0.089,0.178 3.938,7.837c0.771,0.231 2.231,0.58 3.949,0.58c1.718,0 3.166,-0.349 3.937,-0.58c3.848,-7.659 3.87,-7.701 3.938,-7.837c0,-1.759 0,-11.204 0,-12.963c-1.436,1.093 -2.908,1.691 -2.908,1.691l0.009,12.929z"/>
     <path id="svg_49" d="m47.379,58.345c0.865,1.722 1.89,3.761 3.104,6.177c1.214,-2.416 2.238,-4.455 3.104,-6.177c-0.838,0.189 -1.954,0.376 -3.104,0.376c-1.15,0 -2.266,-0.187 -3.104,-0.376z"/>
     <path id="svg_50" d="m77.969,15.423c-6.86,-8.169 -16.886,-12.855 -27.506,-12.855c-10.595,0 -20.606,4.67 -27.465,12.812l-0.595,0.705l-0.001,45.137l0.607,0.709c6.853,8.011 16.859,12.606 27.453,12.606c10.619,0 20.643,-4.65701 27.501,-12.778l0.597,-0.706l0.001,-44.925l-0.592,-0.705zm-4.464,43.761c-5.87299,6.556 -14.219,10.299 -23.044,10.299c-8.807,0 -17.139,-3.687 -23.006,-10.148l0.001,-41.384c5.874,-6.576 14.207,-10.329 23.007,-10.329c8.822,0 17.17,3.768 23.044,10.367l-0.00201,41.195z"/>
    </g>
   </g>
  </g>
 </g>
</svg>