<svg width="42" height="42" xmlns="http://www.w3.org/2000/svg" stroke="null" style="vector-effect: non-scaling-stroke;">

 <g stroke="null">
  <title stroke="null">background</title>
  <rect stroke="null" fill="none" id="canvas_background" height="44" width="44" y="-1" x="-1"/>
 </g>
 <g stroke="null">
  <title stroke="null">Layer 1</title>
  <g stroke="null" id="svg_1" display="none">
   <line stroke="#000000" id="svg_2" y2="43" x2="62" y1="43" x1="40" stroke-miterlimit="10" stroke-width="2" fill="none"/>
   <line stroke="#000000" id="svg_3" y2="40" x2="61" y1="40" x1="41" stroke-miterlimit="10" stroke-width="2" fill="none"/>
   <line stroke="#000000" id="svg_4" y2="52" x2="65" y1="52" x1="37" stroke-miterlimit="10" stroke-width="2" fill="none"/>
   <path stroke="#000000" id="svg_5" d="m41,2l0,8l3,3c0,0 1,1.714 1,12s-5,15 -5,15s0,1.209 0,3c0,2.062 -5,2.175 -5,5s2,1.857 2,4c-1.403,0 -3,1.377 -3,2.662c0,1.286 1.147,2.338 2.55,2.338l28.9,0c1.403,0 2.55,-1.052 2.55,-2.338c0,-1.285 -1.597,-2.662 -3,-2.662c0,-2.143 2,-1.175 2,-4s-5,-2.969 -5,-5c0,-1.791 0,-3 0,-3s-5,-4.714 -5,-15s1,-12 1,-12l3,-3l0,-8l-4,0l0,6l-4,0l0,-6l-4,0l0,6l-4,0l0,-6l-4,0z" stroke-miterlimit="10" stroke-width="2" fill="none"/>
   <line stroke="#000000" id="svg_6" y2="4" x2="49" y1="4" x1="45" stroke-miterlimit="10" stroke-width="2" fill="none"/>
   <line stroke="#000000" id="svg_7" y2="4" x2="57" y1="4" x1="53" stroke-miterlimit="10" stroke-width="2" fill="none"/>
   <line stroke="#000000" id="svg_8" y2="13" x2="58" y1="13" x1="44" stroke-miterlimit="10" stroke-width="2" fill="none"/>
  </g>
  <g stroke="null" id="svg_11" opacity="0.2" display="none">
   <g stroke="null" style="vector-effect: non-scaling-stroke;" id="svg_12" display="inline">
    <g stroke="null" style="vector-effect: non-scaling-stroke;" id="svg_13">
     <path stroke="null" style="vector-effect: non-scaling-stroke;" id="svg_14" d="m53.497,42.07l-1.088,0.387c-0.082,-0.358 -0.38,-0.633 -0.849,-0.633c-0.574,0 -0.842,0.417 -0.842,0.842l0,1.408c0,0.501 0.28,0.87901 0.849,0.87901c0.569,0 0.991,-0.32401 0.991,-0.32401l0.001,-0.584l-1.156,0l0,-0.955l2.19,0c0,0 0,1.651 0,1.927c-0.361,0.495 -1.215,1.001 -2.026,1.001c-1.348,0 -2.004,-0.842 -2.004,-2.026l0,-1.222c0,-1.073 0.656,-2.019 2.004,-2.019c0.984,0 1.676,0.529 1.93,1.319z"/>
     <g stroke="null" style="vector-effect: non-scaling-stroke;" id="svg_15">
      <path stroke="null" style="vector-effect: non-scaling-stroke;" id="svg_16" d="m31.408,45.973l0,-5.19l3.668,0l0,1.029l-2.52,0l0,1.051l2.148,0l0,0.992l-2.148,0l0,1.089l2.52,0l0,1.029l-3.668,0z"/>
      <path stroke="null" style="vector-effect: non-scaling-stroke;" id="svg_17" d="m76.413,45.973l0,-2.118l-1.7,0l0,2.118l-1.14799,0l0,-5.19l1.14799,0l0,2.08l1.7,0l0,-2.08l1.133,0l0,5.19l-1.133,0z"/>
     </g>
     <path stroke="null" style="vector-effect: non-scaling-stroke;" id="svg_18" d="m47.75,41.685c0,0 -0.776,-0.952 -2.013,-0.952s-2.013,0.952 -2.013,0.952s-0.001,1.05 -0.001,1.078l0,0.639l0,0.416l0,1.252c0,0 0.786,0.958 2.014,0.958l0,0c1.228,0 2.014,-0.958 2.014,-0.958l0,-1.252l0,-0.416l0,-0.639c0.001,-0.028 -0.001,-1.078 -0.001,-1.078zm-1.148,1.708l0,0.245l0,0.868c0,0 -0.259,0.43301 -0.869,0.43301l0,0c-0.61,0 -0.869,-0.43301 -0.869,-0.43301l0,-0.868l0,-0.245l0,-0.376c0,-0.016 0.001,-0.765 0.001,-0.765s0.254,-0.429 0.868,-0.429c0.614,0 0.868,0.429 0.868,0.429s0.001,0.749 0.001,0.765l0,0.376z"/>
     <path stroke="null" style="vector-effect: non-scaling-stroke;" id="svg_19" d="m27.48,40.793c1.155,0 1.966,0.992 1.966,0.992l0,0.959c0,0 0,1.072 0,1.10899c-0.002,0.666 0,1.131 0,1.131s-0.714,0.993 -2.093,0.993l-1.936,0l0,-5.184l2.063,0zm0.826,2.233l0,-0.133c0,-0.003 0,-0.006 0,-0.009c0,-0.218 -0.001,-0.606 -0.001,-0.606s-0.151,-0.254 -0.5,-0.367c-0.138,-0.056 -0.308,-0.084 -0.512,-0.084l-0.73,0l0,3.12099l0.752,0c0.246,0 0.436,-0.045 0.58,-0.129c0.284,-0.124 0.41,-0.335 0.41,-0.335l0,-0.849l0,-0.239l0,-0.368c0.001,0 0.001,-0.001 0.001,-0.002z"/>
     <path stroke="null" style="vector-effect: non-scaling-stroke;" id="svg_20" d="m71.8,42.45l0,0c0,0.16 0,0.691 0,0.691s-0.843,0.934 -1.819,0.934l-0.991,0l0,1.894l-1.14799,0l0,-5.189l2.139,0c0.976,0 1.819,0.934 1.819,0.934s0,0.722 0,0.736zm-1.163,-0.28999c0,0 -0.332,-0.35101 -0.716,-0.35101l-0.931,0l0,1.238l0.932,0c0.384,0 0.716,-0.351 0.716,-0.351s0,-0.254 0,-0.268s-0.001,-0.268 -0.001,-0.268z"/>
     <path stroke="null" style="vector-effect: non-scaling-stroke;" id="svg_21" d="m59.547,45.979l-0.994,-2.213l-0.004,-0.001c0.558,-0.277 0.949,-0.711 0.949,-0.711l0,-0.429l0,-0.215l0,0l0,-0.302l0,-0.387c0,0 -0.845,-0.937 -1.824,-0.937l-2.145,0l0,2.37l-0.003,-0.001l0,2.825l1.151,0l0,-1.987l0.003,0l0.754,0l0.812,1.987l1.301,0l0,0.001zm-2.867,-4.16299l0.934,0c0.385,0 0.718,0.352 0.718,0.352s0,0.048 0,0.12c0,0.057 0,0.094 0,0.1c0,0.006 0,0.051 0,0.104c0,0.076 0,0.116 0,0.116s-0.333,0.352 -0.718,0.352l-0.934,0l0,-1.144z"/>
     <path stroke="null" style="vector-effect: non-scaling-stroke;" id="svg_22" d="m40.665,45.973l0,-2.47l-0.022,-0.008l-0.47,1.05199l-0.308,0.64301c0,0 -0.217,0.099 -0.496,0.099c-0.278,0 -0.462,-0.086 -0.462,-0.086l-0.33,-0.694l-0.455,-1.015l-0.022,0.022l0,2.455l-1.149,0l0,-5.193l1.037,0l0.701,1.507l0.671,1.559l0.03,0l0.649,-1.559l0.686,-1.507l1.082,0l0,5.193l-1.142,0l0,0.002z"/>
     <path stroke="null" style="vector-effect: non-scaling-stroke;" id="svg_23" d="m64.909,45.973l-0.39201,-1.065c0,0 -0.389,0.153 -0.888,0.153c-0.499,0 -0.867,-0.153 -0.867,-0.153l-0.392,1.065l-1.22,0l2.034,-5.17c0,0 0.197,-0.052 0.449,-0.052c0.252,0 0.462,0.052 0.462,0.052l2.033,5.17l-1.21899,0zm-0.94901,-2.641l-0.309,-1.035l-0.03,0l-0.301,1.02l-0.185,0.581c0,0 0.169,0.112 0.494,0.112c0.325,0 0.516,-0.11 0.516,-0.11l-0.185,-0.568z"/>
    </g>
    <g stroke="null" style="vector-effect: non-scaling-stroke;" id="svg_24">
     <path stroke="null" style="vector-effect: non-scaling-stroke;" id="svg_25" d="m36.493,52.398c0.594,0 1.102,0.217 1.354,0.737c0.143,0.291 0.154,0.69099 0.154,1.182c0,0.554 -0.012,0.959 -0.143,1.267c-0.263,0.6 -0.822,0.788 -1.462,0.788l-1.205,0l0,-3.975l1.302,0l0,0.001zm1.005,1.62199c0,-0.87399 -0.422,-1.16 -1.028,-1.16l-0.777,0l0,3.05l0.777,0c0.754,0 1.028,-0.44501 1.028,-1.131l0,-0.759z"/>
     <path stroke="null" style="vector-effect: non-scaling-stroke;" id="svg_26" d="m40.425,54.083c-0.114,-0.074 -0.251,-0.108 -0.4,-0.108c-0.371,0 -0.645,0.234 -0.645,0.68501l0,1.713l-0.469,0l0,-2.833l0.469,0l0,0.36l0.023,0c0.2,-0.291 0.44,-0.389 0.743,-0.389c0.194,0 0.371,0.046 0.48,0.12l-0.201,0.452z"/>
     <path stroke="null" style="vector-effect: non-scaling-stroke;" id="svg_27" d="m43.386,54.426l0,1.947l-0.474,0l0,-0.246l-0.006,-0.006c-0.103,0.166 -0.4,0.286 -0.783,0.286c-0.645,0 -1.005,-0.354 -1.005,-0.839c0,-0.44 0.297,-0.834 0.902,-0.834l0.891,0l0,-0.32c0,-0.308 -0.194,-0.462 -0.651,-0.462c-0.354,0 -0.548,0.097 -0.674,0.24599l-0.297,-0.314c0.211,-0.246 0.565,-0.371 0.953,-0.371c0.613,-0.001 1.144,0.193 1.144,0.913zm-1.205,1.55299c0.365,0 0.731,-0.103 0.731,-0.52499l0,-0.331l-0.777,0c-0.365,0 -0.571,0.154 -0.571,0.417c0,0.268 0.2,0.439 0.617,0.439z"/>
     <path stroke="null" style="vector-effect: non-scaling-stroke;" id="svg_28" d="m46.887,55.699c0.063,-0.223 0.126,-0.46899 0.183,-0.686l0.411,-1.473l0.519,0l-0.908,2.832l-0.445,0l-0.422,-1.365l-0.246,-0.788l-0.229,0.783l-0.422,1.37l-0.451,0l-0.902,-2.832l0.514,0l0.429,1.49l0.183,0.634l0.023,0c0.057,-0.205 0.126,-0.417 0.183,-0.616l0.469,-1.508l0.434,0l0.457,1.49l0.194,0.668l0.026,0l0,0.001z"/>
     <path stroke="null" style="vector-effect: non-scaling-stroke;" id="svg_29" d="m50.569,53.54l0,0.314l0.017,0.006c0.217,-0.251 0.491,-0.349 0.771,-0.349c0.811,0 1.011,0.72 1.011,1.422c0,0.731 -0.211,1.474 -1.102,1.474c-0.28,0 -0.52,-0.092 -0.685,-0.286l-0.011,0l0,1.382l-0.469,0l0,-3.963l0.468,0zm0.64,2.399c0.588,0 0.668,-0.52 0.668,-0.97701c0,-0.43999 -0.045,-0.988 -0.64,-0.988c-0.577,0 -0.668,0.571 -0.668,0.988c0,0.429 0.069,0.97701 0.64,0.97701z"/>
     <path stroke="null" style="vector-effect: non-scaling-stroke;" id="svg_30" d="m53.625,55.117l0,0.04601c0,0.445 0.246,0.811 0.731,0.811c0.183,0 0.451,-0.097 0.64,-0.269l0.302,0.337c-0.268,0.257 -0.617,0.365 -0.965,0.365c-0.577,0 -1.199,-0.268 -1.199,-1.439c0,-1.12 0.645,-1.46201 1.182,-1.46201c0.623,0 1.131,0.456 1.131,1.245l0,0.365l-1.822,0l0,0.001zm0,-0.394l1.331,0c-0.023,-0.508 -0.28,-0.771 -0.663,-0.771c-0.383,0 -0.64,0.279 -0.668,0.771z"/>
     <path stroke="null" style="vector-effect: non-scaling-stroke;" id="svg_31" d="m58.368,53.992c0.131,0.206 0.194,0.50201 0.194,0.868c0,0.485 -0.046,0.805 -0.177,1.028c-0.195,0.331 -0.571,0.52 -1.017,0.52c-0.405,0 -0.743,-0.143 -0.937,-0.42799c-0.155,-0.235 -0.211,-0.56001 -0.211,-1.011c0,-0.32 0.034,-0.58801 0.143,-0.811c0.189,-0.405 0.577,-0.64 1.068,-0.64c0.405,-0.001 0.742,0.17101 0.937,0.474zm-1.577,0.348c-0.08,0.17101 -0.097,0.383 -0.103,0.634c0,0.251 0.012,0.451 0.086,0.617c0.109,0.24599 0.32,0.389 0.599,0.389c0.303,0 0.56,-0.15501 0.668,-0.50301c0.04,-0.137 0.046,-0.297 0.046,-0.599c0,-0.217 -0.017,-0.389 -0.074,-0.525c-0.109,-0.28 -0.331,-0.411 -0.6,-0.411c-0.279,-0.002 -0.507,0.146 -0.622,0.39799z"/>
     <path stroke="null" style="vector-effect: non-scaling-stroke;" id="svg_32" d="m59.919,53.54l0,0.314l0.017,0.006c0.217,-0.251 0.491,-0.349 0.771,-0.349c0.811,0 1.011,0.72 1.011,1.422c0,0.731 -0.211,1.474 -1.102,1.474c-0.28,0 -0.52,-0.092 -0.685,-0.286l-0.011,0l0,1.382l-0.469,0l0,-3.963l0.468,0zm0.64,2.399c0.588,0 0.668,-0.52 0.668,-0.97701c0,-0.43999 -0.045,-0.988 -0.639,-0.988c-0.577,0 -0.668,0.571 -0.668,0.988c-0.001,0.429 0.068,0.97701 0.639,0.97701z"/>
     <path stroke="null" style="vector-effect: non-scaling-stroke;" id="svg_33" d="m63.31,56.373c-0.411,0 -0.697,-0.171 -0.697,-0.657l0,-3.48901l0.469,0l0,3.44901c0,0.171 0.097,0.269 0.291,0.269l0.137,0l0,0.428l-0.2,0z"/>
     <path stroke="null" style="vector-effect: non-scaling-stroke;" id="svg_34" d="m64.59,55.117l0,0.04601c0,0.445 0.24599,0.811 0.731,0.811c0.183,0 0.451,-0.097 0.64,-0.269l0.302,0.337c-0.268,0.257 -0.617,0.365 -0.965,0.365c-0.577,0 -1.199,-0.268 -1.199,-1.439c0,-1.12 0.645,-1.46201 1.182,-1.46201c0.623,0 1.131,0.456 1.131,1.245l0,0.365l-1.822,0l0,0.001zm0,-0.394l1.33099,0c-0.02299,-0.508 -0.28,-0.771 -0.66299,-0.771c-0.383,0 -0.639,0.279 -0.668,0.771z"/>
     <path stroke="null" style="vector-effect: non-scaling-stroke;" id="svg_35" d="m67.183,56.373l0,-0.634l0.58801,0l0,0.634l-0.58801,0z"/>
    </g>
    <g stroke="null" style="vector-effect: non-scaling-stroke;" id="svg_36">
     <path stroke="null" style="vector-effect: non-scaling-stroke;" id="svg_37" d="m54.589,-21.892c0,-0.985 0,-4.141 0,-5.142c-1.893,-0.429 -3.105,-0.389 -3.105,-0.389s-1.212,-0.039 -3.105,0.389c0,1.001 0,4.157 0,5.142c1.569,-0.391 3.105,-0.376 3.105,-0.376s1.536,-0.015 3.105,0.376z"/>
     <path stroke="null" style="vector-effect: non-scaling-stroke;" id="svg_38" d="m46.513,-13.494c0.328,-0.146 1.317,-0.465 1.317,-0.465l0.001,23.654c0,0 1.726,0.504 3.001,0.504l0,-14.941l1.305,0l0,14.941c1.275,0 3.001,-0.504 3.001,-0.504l0.001,-23.654c0,0 0.989,0.319 1.317,0.465l0,6.508c0,0 1.39,0.521 2.893,1.666c0,-1.131 -0.002,-12.994 -0.002,-12.994s-3.13,-2.677 -7.861,-2.678l0,0c0,0 0,0 -0.001,0l-0.001,0l0,0c-4.731,0.001 -7.861,2.678 -7.861,2.678s-0.003,11.863 -0.003,12.994c1.503,-1.145 2.893,-1.666 2.893,-1.666l0,-6.508z"/>
     <path stroke="null" style="vector-effect: non-scaling-stroke;" id="svg_39" d="m56.464,10.502c0,0 -2.155,0.994 -4.982,0.994c-2.828,0 -4.982,-0.994 -4.982,-0.994l0.009,-12.929c0,0 -1.472,-0.598 -2.908,-1.691c0,1.759 0,11.204 0,12.963c0.068,0.136 0.089,0.178 3.938,7.837c0.771,0.231 2.231,0.58 3.949,0.58c1.718,0 3.166,-0.349 3.937,-0.58c3.848,-7.659 3.87,-7.701 3.938,-7.837c0,-1.759 0,-11.204 0,-12.963c-1.436,1.093 -2.908,1.691 -2.908,1.691l0.009,12.929z"/>
     <path stroke="null" style="vector-effect: non-scaling-stroke;" id="svg_40" d="m48.379,18.345c0.865,1.722 1.89,3.761 3.104,6.177c1.214,-2.416 2.238,-4.455 3.104,-6.177c-0.838,0.189 -1.954,0.376 -3.104,0.376c-1.15,0 -2.266,-0.187 -3.104,-0.376z"/>
     <path stroke="null" style="vector-effect: non-scaling-stroke;" id="svg_41" d="m78.969,-24.577c-6.86,-8.169 -16.886,-12.855 -27.506,-12.855c-10.595,0 -20.606,4.67 -27.465,12.812l-0.595,0.705l-0.001,45.137l0.607,0.709c6.853,8.011 16.859,12.606 27.453,12.606c10.619,0 20.643,-4.65701 27.501,-12.778l0.597,-0.706l0.001,-44.925l-0.592,-0.705zm-4.464,43.761c-5.87299,6.556 -14.219,10.299 -23.044,10.299c-8.807,0 -17.139,-3.687 -23.006,-10.148l0.001,-41.384c5.874,-6.576 14.207,-10.329 23.007,-10.329c8.822,0 17.17,3.768 23.044,10.367l-0.00201,41.195z"/>
    </g>
   </g>
  </g>
  <g stroke="null" id="svg_205">
   <g stroke="null" transform="matrix(0.333046 0 0 0.175158 0.510639 37.4256)" id="svg_149" display="none">
    <path stroke="#000000" id="svg_150" d="m79.75932,-47.67807c0,-2.75 2,-1.375 2,-5s-6,-4.375 -6,-6c0,-2.299 0,-3 0,-3s-7.00001,-5.63999 -7.00001,-16.99999c0,-10.062 -0.438,-14.562 3,-18c1.10001,0 2,-0.9 2,-2c0,-1.1 -0.89999,-2 -2,-2c0,0 -3,-0.362 -3,-4c0,-3.638 4,-12 4,-12l-8,-3l0,-2l1.60001,0l-1.2,-3.60001l3.59999,1.2l0,-7.2l-3.59999,1.2l1.2,-3.59999l-1.60001,0l-1,-3l-2,0l-1,3l-1.6,0l1.2,3.59999l-3.6,-1.2l0,7.2l3.6,-1.2l-1.2,3.60001l1.6,0l0,2l-8,3c0,0 4,8.362 4,12c0,3.638 -3,4 -3,4c-1.1,0 -2,0.9 -2,2c0,1.1 0.9,2 2,2c3.438,3.438 3,7.938 3,18c0,11.36 -7,16.99999 -7,16.99999s0,0.701 0,3c0,1.625 -6,2.375 -6,6s2,2.25 2,5c-1.65,0 -3,1.35 -3,3c0,1.65 1.35,3 3,3l34,0c1.65,0 3,-1.35 3,-3c0,-1.65 -1.35,-3 -3,-3z" stroke-miterlimit="10"/>
    <line stroke="#FFFFFF" id="svg_151" fill="#000000" y2="-104.67807" x2="69.75931" y1="-104.67807" x1="55.75931" stroke-miterlimit="10"/>
    <line stroke="#FFFFFF" id="svg_152" fill="#000000" y2="-100.67807" x2="76.75931" y1="-100.67807" x1="49.75931" stroke-miterlimit="10"/>
    <line stroke="#FFFFFF" id="svg_153" fill="#000000" y2="-96.67807" x2="75.33831" y1="-96.67807" x1="49.75931" stroke-miterlimit="10"/>
    <line stroke="#FFFFFF" id="svg_154" fill="#000000" y2="-47.67807" x2="82.41431" y1="-47.67807" x1="42.41431" stroke-miterlimit="10"/>
    <line stroke="#FFFFFF" id="svg_155" fill="#000000" y2="-58.67807" x2="76.75931" y1="-58.67807" x1="48.75931" stroke-miterlimit="10"/>
    <line stroke="#FFFFFF" id="svg_156" fill="#000000" y2="-61.67807" x2="76.75931" y1="-61.67807" x1="48.75931" stroke-miterlimit="10"/>
    <line stroke="#FFFFFF" id="svg_157" fill="#000000" y2="-133.67807" x2="67.75931" y1="-133.67807" x1="57.75931" stroke-miterlimit="10"/>
    <line stroke="#FFFFFF" id="svg_158" fill="#000000" y2="-121.67807" x2="68.75931" y1="-121.67807" x1="56.75931" stroke-miterlimit="10"/>
    <line stroke="#FFFFFF" id="svg_159" fill="#000000" y2="-116.67807" x2="74.75931" y1="-116.67807" x1="50.75931" stroke-miterlimit="10"/>
   </g>
   <g stroke="null" transform="matrix(1.02497 0 0 0.436997 1.82989 30.4019)" id="svg_160">
    <g stroke="null" id="svg_161">
     <path stroke="null" id="svg_162" d="m0.48596,18.33445c0.346,0.308 0.611,0.553 0.697,1.206l35.06501,0c0.08601,-0.653 0.35101,-0.898 0.69701,-1.206c0.56499,-0.504 1.27,-1.132 1.27,-3.294c0,-2.472 -2.396,-3.74099 -4.145,-4.667c-0.493,-0.261 -1.054,-0.55999 -1.42901,-0.833l-27.852,0c-0.376,0.27301 -0.936,0.572 -1.429,0.833c-1.749,0.92601 -4.145,2.195 -4.145,4.667c0,2.16201 0.705,2.79001 1.271,3.294z"/>
     <path stroke="null" id="svg_163" d="m38.14297,20.54045l-38.85601,0c-0.655,0.636 -1.072,1.517 -1.072,2.5c0,1.93 1.57,3.5 3.5,3.5l34.00001,0c1.93,0 3.5,-1.57 3.5,-3.5c0,-0.983 -0.417,-1.864 -1.072,-2.5z"/>
     <rect stroke="null" id="svg_164" height="2" width="27" y="6.54045" x="5.21496"/>
     <path stroke="null" id="svg_165" d="m12.18996,-36.45955c-0.247,2.668 -2.436,2.991 -2.475,3l18.036,0c-0.228,-0.03201 -2.277,-0.399 -2.513,-3l-13.048,0z"/>
     <path stroke="null" id="svg_166" d="m25.24296,-37.45955c0.284,-3.309 3.15099,-9.628 3.79,-11l-20.636,0c0.639,1.372 3.506,7.69 3.79,11l13.056,0z"/>
     <path stroke="null" id="svg_167" d="m29.70096,-29.45955c0.317,-0.419 0.51399,-0.93501 0.51399,-1.5c0,-0.565 -0.19499,-1.081 -0.508,-1.5l-21.979,0c-0.318,0.419 -0.513,0.935 -0.513,1.5c0,0.56499 0.197,1.081 0.514,1.5l21.972,0z"/>
     <polygon stroke="null" id="svg_168" points="20.074954986572266,-69.45954123139381 17.354957580566406,-69.45954123139381 16.520957946777344,-66.95954886078835 20.90896224975586,-66.95954886078835 "/>
     <polygon stroke="null" id="svg_169" points="14.753960609436035,-54.459548860788345 22.675952911376953,-54.459548860788345 21.904956817626953,-56.76955404877663 25.214954376220703,-55.66555014252663 25.214954376220703,-64.25354757905006 21.904956817626953,-63.149551302194595 22.84195327758789,-65.95954886078835 14.587960243225098,-65.95954886078835 15.5249605178833,-63.149551302194595 12.214959144592285,-64.25354757905006 12.214959144592285,-55.66555014252663 15.5249605178833,-56.76955404877663 "/>
     <polygon stroke="null" id="svg_170" points="21.214954376220703,-52.30654898285866 21.214954376220703,-53.459548860788345 16.21495819091797,-53.459548860788345 16.21495819091797,-52.30654898285866 8.624958992004395,-49.459548860788345 28.80495834350586,-49.459548860788345 "/>
     <path stroke="null" id="svg_171" d="m25.21495,-10.95955c0,-1.08101 -0.005,-2.097 -0.00999,-3.055c-0.038,-7.641 -0.05701,-11.54 2.72099,-14.445l-18.42199,0c2.777,2.906 2.759,6.804 2.721,14.445c-0.005,0.958 -0.01,1.97399 -0.01,3.055c0,10.164 -5.783,15.697 -6.687,16.49999l26.373,0c-0.905,-0.80099 -6.68601,-6.314 -6.68601,-16.49999z"/>
    </g>
   </g>
   <g stroke="null" transform="matrix(0.333046 0 0 0.175158 0.510639 37.4256)" id="svg_172" opacity="0.2" display="none">
    <g stroke="null" id="svg_173" display="inline">
     <g stroke="null" id="svg_174">
      <path stroke="null" id="svg_175" d="m65.25632,-56.60807l-1.08801,0.387c-0.082,-0.358 -0.38,-0.633 -0.849,-0.633c-0.574,0 -0.842,0.417 -0.842,0.842l0,1.408c0,0.501 0.28,0.87901 0.849,0.87901c0.569,0 0.99099,-0.32401 0.99099,-0.32401l0.001,-0.584l-1.15599,0l0,-0.955l2.19,0c0,0 0,1.651 0,1.927c-0.361,0.49501 -1.215,1.001 -2.026,1.001c-1.348,0 -2.004,-0.842 -2.004,-2.026l0,-1.222c0,-1.073 0.656,-2.019 2.004,-2.019c0.984,0 1.676,0.529 1.93,1.319z"/>
      <g stroke="null" id="svg_176">
       <path stroke="null" id="svg_177" d="m43.16731,-52.70508l0,-5.19l3.668,0l0,1.029l-2.52,0l0,1.051l2.148,0l0,0.992l-2.148,0l0,1.08899l2.52,0l0,1.029l-3.668,0z"/>
       <path stroke="null" id="svg_178" d="m88.17232,-52.70508l0,-2.11799l-1.7,0l0,2.11799l-1.14799,0l0,-5.19l1.14799,0l0,2.08l1.7,0l0,-2.08l1.133,0l0,5.19l-1.133,0z"/>
      </g>
      <path stroke="null" id="svg_179" d="m59.50931,-56.99308c0,0 -0.776,-0.952 -2.013,-0.952s-2.013,0.952 -2.013,0.952s-0.001,1.05 -0.001,1.078l0,0.639l0,0.416l0,1.252c0,0 0.786,0.958 2.014,0.958l0,0c1.228,0 2.014,-0.958 2.014,-0.958l0,-1.252l0,-0.416l0,-0.639c0.001,-0.028 -0.001,-1.078 -0.001,-1.078zm-1.148,1.708l0,0.245l0,0.868c0,0 -0.259,0.43301 -0.869,0.43301l0,0c-0.61,0 -0.869,-0.43301 -0.869,-0.43301l0,-0.868l0,-0.245l0,-0.376c0,-0.016 0.001,-0.765 0.001,-0.765s0.254,-0.429 0.868,-0.429c0.614,0 0.868,0.429 0.868,0.429s0.001,0.749 0.001,0.765l0,0.376z"/>
      <path stroke="null" id="svg_180" d="m39.23931,-57.88507c1.155,0 1.966,0.992 1.966,0.992l0,0.959c0,0 0,1.072 0,1.109c-0.002,0.666 0,1.131 0,1.131s-0.714,0.99299 -2.093,0.99299l-1.936,0l0,-5.18399l2.063,0zm0.826,2.233l0,-0.133c0,-0.003 0,-0.006 0,-0.009c0,-0.218 -0.001,-0.606 -0.001,-0.606s-0.151,-0.254 -0.5,-0.367c-0.138,-0.056 -0.308,-0.084 -0.512,-0.084l-0.73,0l0,3.12099l0.752,0c0.246,0 0.436,-0.04499 0.58,-0.12899c0.284,-0.124 0.41,-0.335 0.41,-0.335l0,-0.849l0,-0.239l0,-0.368c0.001,0 0.001,-0.001 0.001,-0.002z"/>
      <path stroke="null" id="svg_181" d="m83.55932,-56.22808l0,0c0,0.16 0,0.691 0,0.691s-0.843,0.934 -1.819,0.934l-0.991,0l0,1.894l-1.14799,0l0,-5.189l2.139,0c0.976,0 1.819,0.934 1.819,0.934s0,0.722 0,0.736zm-1.163,-0.29c0,0 -0.332,-0.351 -0.716,-0.351l-0.931,0l0,1.238l0.932,0c0.384,0 0.716,-0.351 0.716,-0.351s0,-0.254 0,-0.268s-0.001,-0.268 -0.001,-0.268z"/>
      <path stroke="null" id="svg_182" d="m71.30631,-52.69908l-0.994,-2.21299l-0.00401,-0.001c0.558,-0.277 0.949,-0.711 0.949,-0.711l0,-0.429l0,-0.215l0,0l0,-0.302l0,-0.387c0,0 -0.84499,-0.937 -1.824,-0.937l-2.145,0l0,2.37l-0.00301,-0.001l0,2.82499l1.15101,0l0,-1.987l0.003,0l0.754,0l0.812,1.987l1.301,0l0,0.001zm-2.867,-4.16299l0.93399,0c0.38501,0 0.718,0.352 0.718,0.352s0,0.048 0,0.12c0,0.057 0,0.094 0,0.09999c0,0.006 0,0.05101 0,0.104c0,0.076 0,0.11601 0,0.11601s-0.33299,0.352 -0.718,0.352l-0.93399,0l0,-1.144z"/>
      <path stroke="null" id="svg_183" d="m52.42431,-52.70508l0,-2.47l-0.022,-0.008l-0.47,1.05199l-0.308,0.64301c0,0 -0.217,0.099 -0.496,0.099c-0.278,0 -0.462,-0.086 -0.462,-0.086l-0.33,-0.694l-0.455,-1.015l-0.022,0.022l0,2.455l-1.149,0l0,-5.193l1.037,0l0.701,1.50701l0.671,1.559l0.03,0l0.649,-1.559l0.686,-1.50701l1.082,0l0,5.193l-1.142,0l0,0.002z"/>
      <path stroke="null" id="svg_184" d="m76.66831,-52.70508l-0.392,-1.065c0,0 -0.389,0.153 -0.888,0.153c-0.499,0 -0.867,-0.153 -0.867,-0.153l-0.39201,1.065l-1.21999,0l2.034,-5.16999c0,0 0.197,-0.052 0.449,-0.052c0.252,0 0.46201,0.052 0.46201,0.052l2.033,5.16999l-1.219,0zm-0.949,-2.641l-0.309,-1.035l-0.03001,0l-0.30099,1.02l-0.18501,0.581c0,0 0.16901,0.112 0.494,0.112c0.325,0 0.516,-0.11 0.516,-0.11l-0.185,-0.568z"/>
     </g>
     <g stroke="null" id="svg_185">
      <path stroke="null" id="svg_186" d="m48.25231,-46.28007c0.594,0 1.102,0.217 1.354,0.737c0.143,0.291 0.154,0.69099 0.154,1.182c0,0.554 -0.012,0.959 -0.143,1.267c-0.263,0.6 -0.822,0.788 -1.462,0.788l-1.205,0l0,-3.975l1.302,0l0,0.001zm1.005,1.62199c0,-0.87399 -0.422,-1.16 -1.028,-1.16l-0.777,0l0,3.05l0.777,0c0.754,0 1.028,-0.44501 1.028,-1.131l0,-0.759z"/>
      <path stroke="null" id="svg_187" d="m52.18431,-44.59507c-0.114,-0.074 -0.251,-0.108 -0.4,-0.108c-0.371,0 -0.645,0.234 -0.645,0.68501l0,1.713l-0.469,0l0,-2.833l0.469,0l0,0.36l0.023,0c0.2,-0.291 0.44,-0.389 0.743,-0.389c0.194,0 0.371,0.046 0.48,0.12l-0.201,0.452z"/>
      <path stroke="null" id="svg_188" d="m55.14531,-44.25207l0,1.947l-0.474,0l0,-0.246l-0.006,-0.006c-0.103,0.166 -0.4,0.286 -0.783,0.286c-0.645,0 -1.005,-0.354 -1.005,-0.839c0,-0.44 0.297,-0.834 0.902,-0.834l0.891,0l0,-0.32c0,-0.308 -0.194,-0.462 -0.651,-0.462c-0.354,0 -0.548,0.097 -0.674,0.24599l-0.297,-0.314c0.211,-0.246 0.565,-0.371 0.953,-0.371c0.613,-0.001 1.144,0.193 1.144,0.913zm-1.205,1.55299c0.365,0 0.731,-0.103 0.731,-0.52499l0,-0.331l-0.777,0c-0.365,0 -0.571,0.154 -0.571,0.417c0,0.268 0.2,0.439 0.617,0.439z"/>
      <path stroke="null" id="svg_189" d="m58.64631,-42.97908c0.063,-0.223 0.126,-0.46899 0.183,-0.686l0.411,-1.473l0.519,0l-0.908,2.832l-0.445,0l-0.422,-1.365l-0.246,-0.788l-0.229,0.783l-0.422,1.37l-0.451,0l-0.902,-2.832l0.514,0l0.429,1.49l0.183,0.634l0.023,0c0.057,-0.205 0.126,-0.417 0.183,-0.616l0.469,-1.508l0.434,0l0.457,1.49l0.194,0.668l0.026,0l0,0.001z"/>
      <path stroke="null" id="svg_190" d="m62.32831,-45.13807l0,0.314l0.017,0.006c0.217,-0.251 0.491,-0.349 0.771,-0.349c0.811,0 1.011,0.72 1.011,1.422c0,0.731 -0.211,1.474 -1.102,1.474c-0.28,0 -0.52,-0.092 -0.685,-0.286l-0.011,0l0,1.382l-0.469,0l0,-3.963l0.468,0zm0.64,2.399c0.588,0 0.668,-0.52 0.668,-0.97701c0,-0.43999 -0.045,-0.988 -0.64,-0.988c-0.577,0 -0.668,0.571 -0.668,0.988c0,0.429 0.069,0.97701 0.64,0.97701z"/>
      <path stroke="null" id="svg_191" d="m65.38432,-43.56108l0,0.04601c0,0.445 0.24599,0.811 0.731,0.811c0.183,0 0.451,-0.097 0.64,-0.269l0.302,0.337c-0.26801,0.257 -0.617,0.365 -0.965,0.365c-0.577,0 -1.199,-0.268 -1.199,-1.439c0,-1.12 0.645,-1.46201 1.18201,-1.46201c0.62299,0 1.131,0.456 1.131,1.245l0,0.365l-1.822,0l0,0.001zm0,-0.394l1.331,0c-0.023,-0.508 -0.28001,-0.771 -0.663,-0.771c-0.383,0 -0.64,0.279 -0.668,0.771z"/>
      <path stroke="null" id="svg_192" d="m70.12731,-44.68608c0.131,0.206 0.194,0.50201 0.194,0.868c0,0.485 -0.046,0.805 -0.177,1.028c-0.195,0.331 -0.571,0.52 -1.017,0.52c-0.405,0 -0.743,-0.143 -0.937,-0.42799c-0.155,-0.235 -0.21099,-0.56001 -0.21099,-1.011c0,-0.32 0.034,-0.58801 0.143,-0.811c0.189,-0.405 0.577,-0.64 1.06799,-0.64c0.405,-0.001 0.742,0.17101 0.937,0.474zm-1.577,0.348c-0.08,0.17101 -0.097,0.383 -0.103,0.634c0,0.251 0.012,0.451 0.086,0.617c0.109,0.24599 0.32001,0.389 0.599,0.389c0.303,0 0.56001,-0.15501 0.66801,-0.50301c0.04,-0.137 0.046,-0.297 0.046,-0.599c0,-0.217 -0.017,-0.389 -0.07401,-0.525c-0.10899,-0.28 -0.33099,-0.411 -0.6,-0.411c-0.279,-0.002 -0.507,0.146 -0.62199,0.39799z"/>
      <path stroke="null" id="svg_193" d="m71.67831,-45.13807l0,0.314l0.017,0.006c0.217,-0.251 0.491,-0.349 0.771,-0.349c0.811,0 1.011,0.72 1.011,1.422c0,0.731 -0.211,1.474 -1.102,1.474c-0.28001,0 -0.52,-0.092 -0.685,-0.286l-0.01101,0l0,1.382l-0.46899,0l0,-3.963l0.468,0zm0.63999,2.399c0.58801,0 0.66801,-0.52 0.66801,-0.97701c0,-0.43999 -0.045,-0.988 -0.639,-0.988c-0.577,0 -0.66801,0.571 -0.66801,0.988c-0.00099,0.429 0.06801,0.97701 0.639,0.97701z"/>
      <path stroke="null" id="svg_194" d="m75.06931,-42.30507c-0.411,0 -0.697,-0.171 -0.697,-0.657l0,-3.48901l0.469,0l0,3.44901c0,0.171 0.097,0.269 0.291,0.269l0.13699,0l0,0.428l-0.2,0z"/>
      <path stroke="null" id="svg_195" d="m76.34931,-43.56108l0,0.04601c0,0.445 0.246,0.811 0.731,0.811c0.183,0 0.451,-0.097 0.64,-0.269l0.302,0.337c-0.268,0.257 -0.617,0.365 -0.965,0.365c-0.577,0 -1.199,-0.268 -1.199,-1.439c0,-1.12 0.645,-1.46201 1.182,-1.46201c0.623,0 1.131,0.456 1.131,1.245l0,0.365l-1.82201,0l0,0.001zm0,-0.394l1.331,0c-0.02299,-0.508 -0.28,-0.771 -0.66299,-0.771c-0.383,0 -0.63901,0.279 -0.66801,0.771z"/>
      <path stroke="null" id="svg_196" d="m78.94231,-42.30507l0,-0.634l0.58801,0l0,0.634l-0.58801,0z"/>
     </g>
     <g stroke="null" id="svg_197">
      <path stroke="null" id="svg_198" d="m66.34831,-120.57007c0,-0.985 0,-4.14101 0,-5.14201c-1.893,-0.429 -3.105,-0.389 -3.105,-0.389s-1.212,-0.039 -3.105,0.389c0,1.001 0,4.15701 0,5.14201c1.569,-0.39101 3.105,-0.37601 3.105,-0.37601s1.536,-0.015 3.105,0.37601z"/>
      <path stroke="null" id="svg_199" d="m58.27231,-112.17207c0.328,-0.146 1.317,-0.465 1.317,-0.465l0.001,23.654c0,0 1.726,0.504 3.001,0.504l0,-14.941l1.305,0l0,14.941c1.275,0 3.001,-0.504 3.001,-0.504l0.001,-23.654c0,0 0.989,0.319 1.31699,0.465l0,6.508c0,0 1.39001,0.521 2.893,1.666c0,-1.131 -0.002,-12.994 -0.002,-12.994s-3.13,-2.677 -7.861,-2.678l0,0c0,0 0,0 -0.001,0l-0.001,0l0,0c-4.731,0.001 -7.861,2.678 -7.861,2.678s-0.003,11.863 -0.003,12.994c1.503,-1.145 2.893,-1.666 2.893,-1.666l0,-6.508z"/>
      <path stroke="null" id="svg_200" d="m68.22331,-88.17607c0,0 -2.155,0.994 -4.982,0.994c-2.828,0 -4.982,-0.994 -4.982,-0.994l0.009,-12.929c0,0 -1.472,-0.598 -2.908,-1.691c0,1.759 0,11.204 0,12.96301c0.068,0.13599 0.089,0.17799 3.938,7.837c0.771,0.231 2.231,0.58 3.949,0.58c1.71801,0 3.166,-0.34901 3.937,-0.58c3.848,-7.659 3.87,-7.701 3.938,-7.837c0,-1.759 0,-11.204 0,-12.96301c-1.436,1.093 -2.908,1.691 -2.908,1.691l0.009,12.929z"/>
      <path stroke="null" id="svg_201" d="m60.13831,-80.33307c0.865,1.722 1.89,3.76099 3.104,6.177c1.214,-2.41601 2.238,-4.455 3.104,-6.177c-0.838,0.189 -1.954,0.376 -3.104,0.376c-1.15,0 -2.266,-0.187 -3.104,-0.376z"/>
      <path stroke="null" id="svg_202" d="m90.72832,-123.25507c-6.86,-8.169 -16.886,-12.855 -27.506,-12.855c-10.595,0 -20.606,4.67 -27.465,12.812l-0.595,0.705l-0.001,45.137l0.607,0.709c6.853,8.011 16.859,12.606 27.453,12.606c10.619,0 20.64301,-4.65701 27.501,-12.778l0.597,-0.706l0.001,-44.925l-0.592,-0.705zm-4.464,43.761c-5.87299,6.556 -14.219,10.299 -23.044,10.299c-8.807,0 -17.139,-3.687 -23.006,-10.148l0.001,-41.384c5.874,-6.576 14.207,-10.329 23.007,-10.329c8.822,0 17.17001,3.76801 23.04401,10.367l-0.00201,41.195z"/>
     </g>
    </g>
   </g>
  </g>
 </g>
</svg>