<svg width="42" height="42" xmlns="http://www.w3.org/2000/svg">

 <g>
  <title>background</title>
  <rect fill="none" id="canvas_background" height="44" width="44" y="-1" x="-1"/>
 </g>
 <g>
  <title>Layer 1</title>
  <g id="svg_1" display="none">
   <path id="svg_2" d="m55.7,77c0,0 0,0.701 0,3c0,1.625 5.4,2.375 5.4,6s-1.8,2.25 -1.8,5c1.485,0 2.7,1.35 2.7,3c0,1.65 -1.215,3 -2.7,3l-30.6,0c-1.485,0 -2.7,-1.35 -2.7,-3c0,-1.65 1.215,-3 2.7,-3c0,-2.75 -1.8,-1.375 -1.8,-5s5.4,-4.375 5.4,-6c0,-2.299 0,-3 0,-3" stroke-miterlimit="10" stroke-width="2" stroke="#000000"/>
   <line id="svg_3" y2="80" x2="66.406" y1="80" x1="21.594" stroke-miterlimit="10" stroke="#FFFFFF" fill="#000000"/>
   <path id="svg_4" d="m32.3,77l23.4,0c0,0 5.3,-0.301 5.3,-7s-13,-20 -13,-20s2.264,-2 6,-2s1,3 1,3l3,0l3,-2l-5,-3l1.5,-1.5l6.5,2.5l-2,-5l-3,-3c0,0 -3.518,-0.208 -5,-1s-5.56,-1.033 -7,-3s-2.037,-0.381 -4,-1s-2.036,-0.337 -4,-1s-2,-3 -2,-3l-1,-1c0,0 0.357,3.966 -2,6s-9.295,5.962 -6,14s7,11.349 7,17s-8,9 -8,9l0,2l5.3,0z" stroke-miterlimit="10" stroke="#000000"/>
   <line id="svg_5" y2="91" x2="73.3" y1="91" x1="14.7" stroke-miterlimit="10" stroke="#FFFFFF" fill="#000000"/>
   <path id="svg_6" d="m39,40l-3,3l-1,-4c0,0 -4,2.754 -4,6c0,5.537 8,12.805 8,20c0,5.581 -4,9 -4,9l21,0" stroke-miterlimit="10" stroke="#FFFFFF" fill="#000000"/>
   <path id="svg_7" d="m54,49l-10,2c0,0 -2.357,0.997 -6,-4" stroke-miterlimit="10" stroke="#FFFFFF" fill="#000000"/>
   <polyline id="svg_8" points="43,39 45,37 47,39 " stroke-miterlimit="10" stroke="#FFFFFF" fill="#000000"/>
   <line id="svg_9" y2="77" x2="66.406" y1="77" x1="21.594" stroke-miterlimit="10" stroke="#FFFFFF" fill="#000000"/>
  </g>
  <g stroke="null" id="svg_10">
   <g stroke="null" id="svg_11">
    <path stroke="null" id="svg_12" d="m37.82388,37.53289c-0.22334,-0.07565 -0.45507,-0.14235 -0.70254,-0.19c0.08808,-0.13639 0.23069,-0.2168 0.42781,-0.32759c0.71302,-0.40085 1.35265,-0.86781 1.35265,-2.16268c0,-1.63377 -2.41485,-2.44082 -4.17749,-3.02989c-0.21914,-0.07327 -0.48129,-0.16081 -0.72665,-0.24599l-28.15925,0c-0.24327,0.08696 -0.50122,0.17332 -0.71722,0.24599c-1.76264,0.58907 -4.17749,1.39612 -4.17749,3.02989c0,1.29486 0.63962,1.76183 1.35265,2.16268c0.19713,0.11079 0.33974,0.1912 0.42782,0.32759c-0.24746,0.04765 -0.4792,0.11435 -0.70254,0.19l35.80225,0z"/>
    <path stroke="null" id="svg_13" d="m1.89476,28.02628l-0.32191,0.07624l0,1.09176l33.54678,0c1.55397,-0.57179 3.15304,-1.68856 3.15304,-3.87149c0,-3.52842 -9.95509,-9.81455 -12.95084,-11.62641l-5.25331,0.59681c-0.12373,0.02501 -0.37749,0.06432 -0.74868,0.06432c-1.11672,0 -3.28935,-0.35915 -6.11209,-2.55876l0.84724,-0.35082c3.46551,2.69991 5.65492,2.28419 5.67589,2.2812l6.84818,-0.78144c0.98565,-0.22991 2.27644,-0.43063 3.82936,-0.43063c0.82313,0 1.3862,0.09053 1.50469,0.24241c0.1856,0.23765 -0.39321,0.76477 -0.84305,1.0459l-0.79691,0.49853l4.48787,0l3.96672,-1.50214l-5.37705,-1.83271l0.85773,-0.48661l7.61888,1.66414l-2.54277,-3.61121l-3.4026,-1.96671l-0.19923,-0.00655c-0.99404,-0.03336 -3.83461,-0.19894 -5.02578,-0.56108c-0.57881,-0.1757 -1.4229,-0.299 -2.40122,-0.44253c-1.72489,-0.25195 -3.8713,-0.56643 -4.76259,-1.25794c-1.0234,-0.79396 -1.79934,-0.78264 -2.78709,-0.6802c-0.48024,0.04943 -0.97727,0.10126 -1.67246,-0.02383c-1.02445,-0.18345 -1.5739,-0.23824 -2.10552,-0.29125c-0.54001,-0.0536 -1.04856,-0.10483 -2.07826,-0.30198c-1.67666,-0.32164 -1.73957,-1.46223 -1.74062,-1.51048l-0.00419,-0.12032l-2.21667,-1.25853l0.12583,0.81539c0.00314,0.02204 0.31666,2.22701 -1.91783,3.32175c-0.2936,0.14414 -0.65745,0.30435 -1.06325,0.48363c-2.99051,1.31989 -8.55735,3.7774 -5.37076,8.19329c1.31176,1.81841 2.67594,3.22466 3.88074,4.46532c1.98389,2.04654 3.41832,3.52486 3.41832,5.54697c0,3.12697 -7.98588,5.0663 -8.06662,5.08596zm19.07657,-22.77989l2.46833,1.40208l-0.74134,0.4211l-1.72699,-0.98098l-1.72594,0.98038l-0.74134,-0.4211l2.46728,-1.40148zm-10.82645,22.23252c0.03985,-0.01966 4.01077,-1.99352 4.01077,-5.13421c0,-2.20139 -2.3037,-4.42303 -4.53295,-6.57201c-1.98284,-1.91193 -3.85558,-3.71783 -3.85558,-5.34029c0,-2.06619 4.2404,-3.7482 4.42076,-3.81908l0.62285,-0.24361l1.00767,2.28895l2.49034,-1.41459l0.74134,0.42111l-3.80105,2.1591l-1.07793,-2.45155c-1.11358,0.52117 -3.35541,1.73622 -3.35541,3.05968c0,1.45985 1.80249,3.19786 3.71088,5.03831c2.2995,2.21748 4.67765,4.51 4.67765,6.87399c0,2.46704 -2.18207,4.23483 -3.46656,5.06273l20.76791,0l0,0.59561l-23.43441,0l1.07373,-0.52414z"/>
    <path stroke="null" id="svg_14" d="m0.86402,38.1285c-0.53582,0.40859 -0.86402,0.9244 -0.86402,1.48903c0,1.31393 1.74062,2.38247 3.8797,2.38247l32.08614,0c2.14012,0 3.87969,-1.06854 3.87969,-2.38247c0,-0.56463 -0.32821,-1.08044 -0.86402,-1.48903l-38.11748,0z"/>
    <polygon stroke="null" id="svg_15" points="33.239550650148885,29.789888381958008 6.609116075194379,29.789888381958008 6.62169532858934,30.981117248535156 33.239550650148885,30.981117248535156 "/>
   </g>
  </g>
  <g id="svg_16" opacity="0.2" display="none">
   <g id="svg_17" display="inline">
    <g id="svg_18">
     <path id="svg_19" d="m46.497,82.07l-1.088,0.387c-0.082,-0.358 -0.38,-0.633 -0.849,-0.633c-0.574,0 -0.842,0.417 -0.842,0.842l0,1.408c0,0.501 0.28,0.87901 0.849,0.87901c0.569,0 0.991,-0.32401 0.991,-0.32401l0.001,-0.584l-1.156,0l0,-0.955l2.19,0c0,0 0,1.651 0,1.927c-0.361,0.495 -1.215,1.001 -2.026,1.001c-1.348,0 -2.004,-0.842 -2.004,-2.026l0,-1.222c0,-1.073 0.656,-2.019 2.004,-2.019c0.984,0 1.676,0.529 1.93,1.319z"/>
     <g id="svg_20">
      <path id="svg_21" d="m24.408,85.973l0,-5.19l3.668,0l0,1.029l-2.52,0l0,1.051l2.148,0l0,0.992l-2.148,0l0,1.089l2.52,0l0,1.029l-3.668,0z"/>
      <path id="svg_22" d="m69.413,85.973l0,-2.118l-1.7,0l0,2.118l-1.14799,0l0,-5.19l1.14799,0l0,2.08l1.7,0l0,-2.08l1.133,0l0,5.19l-1.133,0z"/>
     </g>
     <path id="svg_23" d="m40.75,81.685c0,0 -0.776,-0.952 -2.013,-0.952s-2.013,0.952 -2.013,0.952s-0.001,1.05 -0.001,1.078l0,0.639l0,0.416l0,1.252c0,0 0.786,0.958 2.014,0.958l0,0c1.228,0 2.014,-0.958 2.014,-0.958l0,-1.252l0,-0.416l0,-0.639c0.001,-0.028 -0.001,-1.078 -0.001,-1.078zm-1.148,1.708l0,0.245l0,0.868c0,0 -0.259,0.43301 -0.869,0.43301l0,0c-0.61,0 -0.869,-0.43301 -0.869,-0.43301l0,-0.868l0,-0.245l0,-0.376c0,-0.016 0.001,-0.765 0.001,-0.765s0.254,-0.429 0.868,-0.429c0.614,0 0.868,0.429 0.868,0.429s0.001,0.749 0.001,0.765l0,0.376z"/>
     <path id="svg_24" d="m20.48,80.793c1.155,0 1.966,0.992 1.966,0.992l0,0.959c0,0 0,1.072 0,1.10899c-0.002,0.666 0,1.131 0,1.131s-0.714,0.993 -2.093,0.993l-1.936,0l0,-5.184l2.063,0zm0.826,2.233l0,-0.133c0,-0.003 0,-0.006 0,-0.009c0,-0.218 -0.001,-0.606 -0.001,-0.606s-0.151,-0.254 -0.5,-0.367c-0.138,-0.056 -0.308,-0.084 -0.512,-0.084l-0.73,0l0,3.12099l0.752,0c0.246,0 0.436,-0.045 0.58,-0.129c0.284,-0.124 0.41,-0.335 0.41,-0.335l0,-0.849l0,-0.239l0,-0.368c0.001,0 0.001,-0.001 0.001,-0.002z"/>
     <path id="svg_25" d="m64.8,82.45l0,0c0,0.16 0,0.691 0,0.691s-0.843,0.934 -1.819,0.934l-0.991,0l0,1.894l-1.14799,0l0,-5.189l2.139,0c0.976,0 1.819,0.934 1.819,0.934s0,0.722 0,0.736zm-1.163,-0.28999c0,0 -0.332,-0.35101 -0.716,-0.35101l-0.931,0l0,1.238l0.932,0c0.384,0 0.716,-0.351 0.716,-0.351s0,-0.254 0,-0.268s-0.001,-0.268 -0.001,-0.268z"/>
     <path id="svg_26" d="m52.547,85.979l-0.994,-2.213l-0.004,-0.001c0.558,-0.277 0.949,-0.711 0.949,-0.711l0,-0.429l0,-0.215l0,0l0,-0.302l0,-0.387c0,0 -0.845,-0.937 -1.824,-0.937l-2.145,0l0,2.37l-0.003,-0.001l0,2.825l1.151,0l0,-1.987l0.003,0l0.754,0l0.812,1.987l1.301,0l0,0.001zm-2.867,-4.16299l0.934,0c0.385,0 0.718,0.352 0.718,0.352s0,0.048 0,0.12c0,0.057 0,0.094 0,0.1c0,0.006 0,0.051 0,0.104c0,0.076 0,0.116 0,0.116s-0.333,0.352 -0.718,0.352l-0.934,0l0,-1.144z"/>
     <path id="svg_27" d="m33.665,85.973l0,-2.47l-0.022,-0.008l-0.47,1.05199l-0.308,0.64301c0,0 -0.217,0.099 -0.496,0.099c-0.278,0 -0.462,-0.086 -0.462,-0.086l-0.33,-0.694l-0.455,-1.015l-0.022,0.022l0,2.455l-1.149,0l0,-5.193l1.037,0l0.701,1.507l0.671,1.559l0.03,0l0.649,-1.559l0.686,-1.507l1.082,0l0,5.193l-1.142,0l0,0.002z"/>
     <path id="svg_28" d="m57.909,85.973l-0.392,-1.065c0,0 -0.389,0.153 -0.888,0.153c-0.499,0 -0.867,-0.153 -0.867,-0.153l-0.392,1.065l-1.22,0l2.034,-5.17c0,0 0.197,-0.052 0.449,-0.052c0.252,0 0.462,0.052 0.462,0.052l2.033,5.17l-1.219,0zm-0.949,-2.641l-0.309,-1.035l-0.03,0l-0.301,1.02l-0.185,0.581c0,0 0.169,0.112 0.494,0.112c0.325,0 0.516,-0.11 0.516,-0.11l-0.185,-0.568z"/>
    </g>
    <g id="svg_29">
     <path id="svg_30" d="m29.493,92.398c0.594,0 1.102,0.217 1.354,0.737c0.143,0.291 0.154,0.69099 0.154,1.182c0,0.554 -0.012,0.959 -0.143,1.267c-0.263,0.6 -0.822,0.788 -1.462,0.788l-1.205,0l0,-3.975l1.302,0l0,0.001zm1.005,1.62199c0,-0.87399 -0.422,-1.16 -1.028,-1.16l-0.777,0l0,3.05l0.777,0c0.754,0 1.028,-0.44501 1.028,-1.131l0,-0.759z"/>
     <path id="svg_31" d="m33.425,94.083c-0.114,-0.074 -0.251,-0.108 -0.4,-0.108c-0.371,0 -0.645,0.234 -0.645,0.68501l0,1.713l-0.469,0l0,-2.833l0.469,0l0,0.36l0.023,0c0.2,-0.291 0.44,-0.389 0.743,-0.389c0.194,0 0.371,0.046 0.48,0.12l-0.201,0.452z"/>
     <path id="svg_32" d="m36.386,94.426l0,1.947l-0.474,0l0,-0.246l-0.006,-0.006c-0.103,0.166 -0.4,0.286 -0.783,0.286c-0.645,0 -1.005,-0.354 -1.005,-0.839c0,-0.44 0.297,-0.834 0.902,-0.834l0.891,0l0,-0.32c0,-0.308 -0.194,-0.462 -0.651,-0.462c-0.354,0 -0.548,0.097 -0.674,0.24599l-0.297,-0.314c0.211,-0.246 0.565,-0.371 0.953,-0.371c0.613,-0.001 1.144,0.193 1.144,0.913zm-1.205,1.55299c0.365,0 0.731,-0.103 0.731,-0.52499l0,-0.331l-0.777,0c-0.365,0 -0.571,0.154 -0.571,0.417c0,0.268 0.2,0.439 0.617,0.439z"/>
     <path id="svg_33" d="m39.887,95.699c0.063,-0.223 0.126,-0.46899 0.183,-0.686l0.411,-1.473l0.519,0l-0.908,2.832l-0.445,0l-0.422,-1.365l-0.246,-0.788l-0.229,0.783l-0.422,1.37l-0.451,0l-0.902,-2.832l0.514,0l0.429,1.49l0.183,0.634l0.023,0c0.057,-0.205 0.126,-0.417 0.183,-0.616l0.469,-1.508l0.434,0l0.457,1.49l0.194,0.668l0.026,0l0,0.001z"/>
     <path id="svg_34" d="m43.569,93.54l0,0.314l0.017,0.006c0.217,-0.251 0.491,-0.349 0.771,-0.349c0.811,0 1.011,0.72 1.011,1.422c0,0.731 -0.211,1.474 -1.102,1.474c-0.28,0 -0.52,-0.092 -0.685,-0.286l-0.011,0l0,1.382l-0.469,0l0,-3.963l0.468,0zm0.64,2.399c0.588,0 0.668,-0.52 0.668,-0.97701c0,-0.43999 -0.045,-0.988 -0.64,-0.988c-0.577,0 -0.668,0.571 -0.668,0.988c0,0.429 0.069,0.97701 0.64,0.97701z"/>
     <path id="svg_35" d="m46.625,95.117l0,0.04601c0,0.445 0.246,0.811 0.731,0.811c0.183,0 0.451,-0.097 0.64,-0.269l0.302,0.337c-0.268,0.257 -0.617,0.365 -0.965,0.365c-0.577,0 -1.199,-0.268 -1.199,-1.439c0,-1.12 0.645,-1.46201 1.182,-1.46201c0.623,0 1.131,0.456 1.131,1.245l0,0.365l-1.822,0l0,0.001zm0,-0.394l1.331,0c-0.023,-0.508 -0.28,-0.771 -0.663,-0.771c-0.383,0 -0.64,0.279 -0.668,0.771z"/>
     <path id="svg_36" d="m51.368,93.992c0.131,0.206 0.194,0.50201 0.194,0.868c0,0.485 -0.046,0.805 -0.177,1.028c-0.195,0.331 -0.571,0.52 -1.017,0.52c-0.405,0 -0.743,-0.143 -0.937,-0.42799c-0.155,-0.235 -0.211,-0.56001 -0.211,-1.011c0,-0.32 0.034,-0.58801 0.143,-0.811c0.189,-0.405 0.577,-0.64 1.068,-0.64c0.405,-0.001 0.742,0.17101 0.937,0.474zm-1.577,0.348c-0.08,0.17101 -0.097,0.383 -0.103,0.634c0,0.251 0.012,0.451 0.086,0.617c0.109,0.24599 0.32,0.389 0.599,0.389c0.303,0 0.56,-0.15501 0.668,-0.50301c0.04,-0.137 0.046,-0.297 0.046,-0.599c0,-0.217 -0.017,-0.389 -0.074,-0.525c-0.109,-0.28 -0.331,-0.411 -0.6,-0.411c-0.279,-0.002 -0.507,0.146 -0.622,0.39799z"/>
     <path id="svg_37" d="m52.919,93.54l0,0.314l0.017,0.006c0.217,-0.251 0.491,-0.349 0.771,-0.349c0.811,0 1.011,0.72 1.011,1.422c0,0.731 -0.211,1.474 -1.102,1.474c-0.28,0 -0.52,-0.092 -0.685,-0.286l-0.011,0l0,1.382l-0.469,0l0,-3.963l0.468,0zm0.64,2.399c0.588,0 0.668,-0.52 0.668,-0.97701c0,-0.43999 -0.045,-0.988 -0.639,-0.988c-0.577,0 -0.668,0.571 -0.668,0.988c-0.001,0.429 0.068,0.97701 0.639,0.97701z"/>
     <path id="svg_38" d="m56.31,96.373c-0.411,0 -0.697,-0.171 -0.697,-0.657l0,-3.48901l0.469,0l0,3.44901c0,0.171 0.097,0.269 0.291,0.269l0.137,0l0,0.428l-0.2,0z"/>
     <path id="svg_39" d="m57.59,95.117l0,0.04601c0,0.445 0.246,0.811 0.731,0.811c0.183,0 0.451,-0.097 0.64,-0.269l0.302,0.337c-0.268,0.257 -0.617,0.365 -0.965,0.365c-0.577,0 -1.199,-0.268 -1.199,-1.439c0,-1.12 0.645,-1.46201 1.182,-1.46201c0.623,0 1.131,0.456 1.131,1.245l0,0.365l-1.822,0l0,0.001zm0,-0.394l1.331,0c-0.02299,-0.508 -0.28,-0.771 -0.66299,-0.771c-0.383,0 -0.639,0.279 -0.668,0.771z"/>
     <path id="svg_40" d="m60.183,96.373l0,-0.634l0.58801,0l0,0.634l-0.58801,0z"/>
    </g>
    <g id="svg_41">
     <path id="svg_42" d="m47.589,18.108c0,-0.985 0,-4.141 0,-5.142c-1.893,-0.429 -3.105,-0.389 -3.105,-0.389s-1.212,-0.039 -3.105,0.389c0,1.001 0,4.157 0,5.142c1.569,-0.391 3.105,-0.376 3.105,-0.376s1.536,-0.015 3.105,0.376z"/>
     <path id="svg_43" d="m39.513,26.506c0.328,-0.146 1.317,-0.465 1.317,-0.465l0.001,23.654c0,0 1.726,0.504 3.001,0.504l0,-14.941l1.305,0l0,14.941c1.275,0 3.001,-0.504 3.001,-0.504l0.001,-23.654c0,0 0.989,0.319 1.317,0.465l0,6.508c0,0 1.39,0.521 2.893,1.666c0,-1.131 -0.002,-12.994 -0.002,-12.994s-3.13,-2.677 -7.861,-2.678l0,0c0,0 0,0 -0.001,0l-0.001,0l0,0c-4.731,0.001 -7.861,2.678 -7.861,2.678s-0.003,11.863 -0.003,12.994c1.503,-1.145 2.893,-1.666 2.893,-1.666l0,-6.508z"/>
     <path id="svg_44" d="m49.464,50.502c0,0 -2.155,0.994 -4.982,0.994c-2.828,0 -4.982,-0.994 -4.982,-0.994l0.009,-12.929c0,0 -1.472,-0.598 -2.908,-1.691c0,1.759 0,11.204 0,12.963c0.068,0.136 0.089,0.178 3.938,7.837c0.771,0.231 2.231,0.58 3.949,0.58c1.718,0 3.166,-0.349 3.937,-0.58c3.848,-7.659 3.87,-7.701 3.938,-7.837c0,-1.759 0,-11.204 0,-12.963c-1.436,1.093 -2.908,1.691 -2.908,1.691l0.009,12.929z"/>
     <path id="svg_45" d="m41.379,58.345c0.865,1.722 1.89,3.761 3.104,6.177c1.214,-2.416 2.238,-4.455 3.104,-6.177c-0.838,0.189 -1.954,0.376 -3.104,0.376c-1.15,0 -2.266,-0.187 -3.104,-0.376z"/>
     <path id="svg_46" d="m71.969,15.423c-6.86,-8.169 -16.886,-12.855 -27.506,-12.855c-10.595,0 -20.606,4.67 -27.465,12.812l-0.595,0.705l-0.001,45.137l0.607,0.709c6.853,8.011 16.859,12.606 27.453,12.606c10.619,0 20.643,-4.65701 27.501,-12.778l0.597,-0.706l0.001,-44.925l-0.592,-0.705zm-4.464,43.761c-5.87299,6.556 -14.219,10.299 -23.044,10.299c-8.807,0 -17.139,-3.687 -23.006,-10.148l0.001,-41.384c5.874,-6.576 14.207,-10.329 23.007,-10.329c8.822,0 17.17,3.768 23.044,10.367l-0.00201,41.195z"/>
    </g>
   </g>
  </g>
 </g>
</svg>