<svg width="42" height="42" xmlns="http://www.w3.org/2000/svg" stroke="null" style="vector-effect: non-scaling-stroke;">

 <g stroke="null">
  <title stroke="null">background</title>
  <rect transform="matrix(1 0 0 1 0 0) matrix(1 0 0 1 0 0) matrix(1 0 0 1 0 0) matrix(1 0 0 1 0 0) matrix(1 0 0 1 0 0) matrix(1 0 0 1 0 0) matrix(1 0 0 1 0 0) matrix(1 0 0 1 0 0) matrix(1 0 0 1 0 0)" stroke="null" fill="none" id="canvas_background" height="44" width="44" y="-1" x="-1"/>
 </g>
 <g stroke="null">
  <title stroke="null">Layer 1</title>
  <g stroke="null" id="svg_375">
   <g stroke="null" transform="matrix(0.806124 0 0 0.734389 16.6354 -12.2612)" id="svg_318" display="none">
    <path fill="#000000" id="svg_319" d="m34.5,-25.79687l3.6,4l4.5,-2c0,0 -2.7,3.783 -2.7,7c0,1.97 0,3 0,3c0,3.638 2.7,4 2.7,4c0.99,0 1.8,0.9 1.8,2c0,1.1 -0.81,2 -1.8,2c-3.094,3.438 -2.7,3.938 -2.7,14c0,11.36 6.3,17 6.3,17s0,0.701 0,3c0,1.625 5.4,2.375 5.4,6s-1.8,2.25 -1.8,5c1.485,0 2.7,1.35 2.7,3c0,1.65 -1.215,3 -2.7,3l-30.6,0c-1.485,0 -2.7,-1.35 -2.7,-3c0,-1.65 1.215,-3 2.7,-3c0,-2.75 -1.8,-1.375 -1.8,-5s5.4,-4.375 5.4,-6c0,-2.299 0,-3 0,-3s6.3,-5.64 6.3,-17c0,-10.062 0.394,-10.562 -2.7,-14c-0.99,0 -1.8,-0.9 -1.8,-2c0,-1.1 0.81,-2 1.8,-2c0,0 2.7,-0.362 2.7,-4c0,0 0,-1.03 0,-3c0,-3.217 -2.7,-7 -2.7,-7l4.5,2c0,0 3.6,-4 3.6,-4z" stroke-miterlimit="10"/>
    <line id="svg_320" y2="-13.79687" x2="44.532" y1="-13.79687" x1="23.626" stroke-miterlimit="10" fill="#000000"/>
    <line id="svg_321" y2="-9.79687" x2="51.5" y1="-9.79687" x1="18.4" stroke-miterlimit="10" fill="#000000"/>
    <line id="svg_322" y2="-5.79687" x2="49.758" y1="-5.79687" x1="18.4" stroke-miterlimit="10" fill="#000000"/>
    <line id="svg_323" y2="28.20313" x2="50.788" y1="28.20313" x1="18.212" stroke-miterlimit="10" fill="#000000"/>
    <line id="svg_324" y2="25.20313" x2="50.788" y1="25.20313" x1="18.212" stroke-miterlimit="10" fill="#000000"/>
    <line id="svg_325" y2="39.20313" x2="55.8" y1="39.20313" x1="13.2" stroke-miterlimit="10" fill="#000000"/>
    <g stroke="null" id="svg_326" display="inline">
     <path fill="#000000" id="svg_327" d="m38.486,-23.60987l2.123,-0.944c-1.25,-1.863 -3.626,-3.149 -5.881,-3.232l3.758,4.176z"/>
     <path fill="#000000" id="svg_328" d="m30.514,-23.60987l3.758,-4.176c-2.256,0.082 -4.632,1.368 -5.882,3.232l2.124,0.944z"/>
    </g>
    <path fill="#000000" id="svg_329" d="m34.5,-28.79687c0.998,0 2.026,0.214 3,0.596l0,-0.596c0,-1.658 -1.342,-3 -3,-3s-3,1.342 -3,3l0,0.596c0.974,-0.382 2.002,-0.596 3,-0.596z"/>
   </g>
   <g stroke="null" transform="matrix(1.13212 0 0 0.540549 23.0641 0.104481)" id="svg_330">
    <g stroke="null" id="svg_331">
     <path fill="#000000" id="svg_332" d="m4.05329,39.94859c0,-1.125 -0.005,-2.13 -0.009,-3.034c-0.034,-7.001 -0.037,-7.698 2.433,-10.466l-16.648,0c2.471,2.769 2.467,3.465 2.433,10.466c-0.004,0.904 -0.009,1.909 -0.009,3.034c0,10.119 -5.14399,15.648 -6.003,16.5l23.806,0c-0.859,-0.852 -6.003,-6.381 -6.003,-16.5z"/>
     <rect fill="#000000" id="svg_333" height="2" width="24.4" y="57.44859" x="-14.04671"/>
     <path fill="#000000" id="svg_334" d="m-7.76871,18.44859c-0.218,2.667 -2.156,2.992 -2.178,3l16.242,0c-0.236,-0.043 -2.012,-0.452 -2.22,-3l-11.844,0z"/>
     <path fill="#000000" id="svg_335" d="m8.08029,25.44859c0.292,-0.419 0.473,-0.935 0.473,-1.5s-0.18,-1.081 -0.467,-1.5l-19.861,0c-0.292,0.419 -0.472,0.935 -0.472,1.5c0,0.565 0.181,1.081 0.473,1.5l19.854,0z"/>
     <path fill="#000000" id="svg_336" d="m15.6743,71.44859l-35.042,0c-0.598,0.636 -0.979,1.517 -0.979,2.5c0,1.93 1.436,3.5 3.2,3.5l30.6,0c1.765,0 3.2,-1.57 3.2,-3.5c0,-0.983 -0.381,-1.864 -0.979,-2.5z"/>
     <path fill="#000000" id="svg_337" d="m-7.74671,14.94859l0,2.5l11.8,0l0,-2.5c0,-3.016 2.581,-6.673 2.607,-6.709l1.062,-1.491l-5.84,2.596l-3.729,-4.144l-3.729,4.143l-5.843,-2.597l1.065,1.492c0.026,0.037 2.607,3.689 2.607,6.71z"/>
     <path fill="#000000" id="svg_338" d="m-17.67471,70.44859l31.657,0c0.077,-0.667 0.317,-0.913 0.63,-1.224c0.508,-0.504 1.141,-1.13 1.141,-3.276c0,-2.457 -2.16,-3.728 -3.738,-4.656c-0.467,-0.275 -0.968,-0.571 -1.297,-0.844l-25.13,0c-0.329,0.272 -0.83,0.569 -1.297,0.844c-1.578,0.928 -3.738,2.19899 -3.738,4.656c0,2.146 0.633,2.772 1.141,3.276c0.314,0.311 0.553,0.557 0.631,1.224z"/>
     <path fill="#000000" id="svg_339" d="m2.13929,8.13559l2.123,-0.944c-1.25,-1.863 -3.626,-3.149 -5.881,-3.232l3.758,4.176z"/>
     <path fill="#000000" id="svg_340" d="m-2.07471,3.95959c-2.256,0.082 -4.632,1.368 -5.882,3.232l2.123,0.944l3.759,-4.176z"/>
     <path fill="#000000" id="svg_341" d="m1.15329,3.54459l0,-0.596c0,-1.658 -1.342,-3 -3,-3s-3,1.342 -3,3l0,0.596c0.974,-0.382 2.002,-0.596 3,-0.596s2.026,0.214 3,0.596z"/>
    </g>
   </g>
   <g stroke="null" transform="matrix(0.806124 0 0 0.734389 16.6354 -12.2612)" id="svg_342" opacity="0.2" display="none">
    <g stroke="null" id="svg_343" display="inline">
     <g stroke="null" id="svg_344">
      <path fill="#000000" id="svg_345" d="m36.997,30.27313l-1.088,0.387c-0.082,-0.358 -0.38,-0.633 -0.849,-0.633c-0.574,0 -0.842,0.417 -0.842,0.842l0,1.408c0,0.501 0.28,0.87901 0.849,0.87901c0.569,0 0.991,-0.32401 0.991,-0.32401l0.001,-0.584l-1.156,0l0,-0.955l2.19,0c0,0 0,1.651 0,1.927c-0.361,0.495 -1.215,1.001 -2.026,1.001c-1.348,0 -2.004,-0.842 -2.004,-2.026l0,-1.222c0,-1.073 0.656,-2.019 2.004,-2.019c0.984,0 1.676,0.529 1.93,1.319z"/>
      <g stroke="null" id="svg_346">
       <path fill="#000000" id="svg_347" d="m14.908,34.17613l0,-5.19l3.668,0l0,1.029l-2.52,0l0,1.051l2.148,0l0,0.992l-2.148,0l0,1.089l2.52,0l0,1.029l-3.668,0z"/>
       <path fill="#000000" id="svg_348" d="m59.913,34.17613l0,-2.118l-1.7,0l0,2.118l-1.14799,0l0,-5.19l1.14799,0l0,2.08l1.7,0l0,-2.08l1.133,0l0,5.19l-1.133,0z"/>
      </g>
      <path fill="#000000" id="svg_349" d="m31.25,29.88813c0,0 -0.776,-0.952 -2.013,-0.952s-2.013,0.952 -2.013,0.952s-0.001,1.05 -0.001,1.078l0,0.639l0,0.416l0,1.252c0,0 0.786,0.958 2.014,0.958l0,0c1.228,0 2.014,-0.958 2.014,-0.958l0,-1.252l0,-0.416l0,-0.639c0.001,-0.028 -0.001,-1.078 -0.001,-1.078zm-1.148,1.708l0,0.245l0,0.868c0,0 -0.259,0.43301 -0.869,0.43301l0,0c-0.61,0 -0.869,-0.43301 -0.869,-0.43301l0,-0.868l0,-0.245l0,-0.376c0,-0.016 0.001,-0.765 0.001,-0.765s0.254,-0.429 0.868,-0.429c0.614,0 0.868,0.429 0.868,0.429s0.001,0.749 0.001,0.765l0,0.376z"/>
      <path fill="#000000" id="svg_350" d="m10.98,28.99613c1.155,0 1.966,0.992 1.966,0.992l0,0.959c0,0 0,1.072 0,1.10899c-0.002,0.666 0,1.131 0,1.131s-0.714,0.993 -2.093,0.993l-1.936,0l0,-5.184l2.063,0zm0.826,2.233l0,-0.133c0,-0.003 0,-0.006 0,-0.009c0,-0.218 -0.001,-0.606 -0.001,-0.606s-0.151,-0.254 -0.5,-0.367c-0.138,-0.056 -0.308,-0.084 -0.512,-0.084l-0.73,0l0,3.12099l0.752,0c0.246,0 0.436,-0.045 0.58,-0.129c0.284,-0.124 0.41,-0.335 0.41,-0.335l0,-0.849l0,-0.239l0,-0.368c0.001,0 0.001,-0.001 0.001,-0.002z"/>
      <path fill="#000000" id="svg_351" d="m55.3,30.65313l0,0c0,0.16 0,0.691 0,0.691s-0.843,0.934 -1.819,0.934l-0.991,0l0,1.894l-1.14799,0l0,-5.189l2.139,0c0.976,0 1.819,0.934 1.819,0.934s0,0.722 0,0.736zm-1.163,-0.28999c0,0 -0.332,-0.35101 -0.716,-0.35101l-0.931,0l0,1.238l0.932,0c0.384,0 0.716,-0.351 0.716,-0.351s0,-0.254 0,-0.268s-0.001,-0.268 -0.001,-0.268z"/>
      <path fill="#000000" id="svg_352" d="m43.047,34.18213l-0.994,-2.213l-0.004,-0.001c0.558,-0.277 0.949,-0.711 0.949,-0.711l0,-0.429l0,-0.215l0,0l0,-0.302l0,-0.387c0,0 -0.845,-0.937 -1.824,-0.937l-2.145,0l0,2.37l-0.003,-0.001l0,2.825l1.151,0l0,-1.987l0.003,0l0.754,0l0.812,1.987l1.301,0l0,0.001zm-2.867,-4.16299l0.934,0c0.385,0 0.718,0.352 0.718,0.352s0,0.048 0,0.12c0,0.057 0,0.094 0,0.1c0,0.006 0,0.051 0,0.104c0,0.076 0,0.116 0,0.116s-0.333,0.352 -0.718,0.352l-0.934,0l0,-1.144z"/>
      <path fill="#000000" id="svg_353" d="m24.165,34.17613l0,-2.47l-0.022,-0.008l-0.47,1.05199l-0.308,0.64301c0,0 -0.217,0.099 -0.496,0.099c-0.278,0 -0.462,-0.086 -0.462,-0.086l-0.33,-0.694l-0.455,-1.015l-0.02201,0.022l0,2.455l-1.149,0l0,-5.193l1.037,0l0.701,1.507l0.671,1.559l0.03,0l0.649,-1.559l0.686,-1.507l1.082,0l0,5.193l-1.142,0l0,0.002z"/>
      <path fill="#000000" id="svg_354" d="m48.409,34.17613l-0.392,-1.065c0,0 -0.389,0.153 -0.888,0.153c-0.499,0 -0.867,-0.153 -0.867,-0.153l-0.392,1.065l-1.22,0l2.034,-5.17c0,0 0.197,-0.052 0.449,-0.052c0.252,0 0.462,0.052 0.462,0.052l2.033,5.17l-1.219,0zm-0.949,-2.641l-0.309,-1.035l-0.03,0l-0.301,1.02l-0.185,0.581c0,0 0.169,0.112 0.494,0.112c0.325,0 0.516,-0.11 0.516,-0.11l-0.185,-0.568z"/>
     </g>
     <g stroke="null" id="svg_355">
      <path fill="#000000" id="svg_356" d="m19.993,40.60113c0.594,0 1.102,0.217 1.354,0.737c0.143,0.291 0.154,0.69099 0.154,1.182c0,0.554 -0.012,0.959 -0.143,1.267c-0.263,0.6 -0.822,0.788 -1.462,0.788l-1.205,0l0,-3.975l1.302,0l0,0.001zm1.005,1.62199c0,-0.87399 -0.422,-1.16 -1.028,-1.16l-0.777,0l0,3.05l0.777,0c0.754,0 1.028,-0.44501 1.028,-1.131l0,-0.759z"/>
      <path fill="#000000" id="svg_357" d="m23.925,42.28613c-0.114,-0.074 -0.251,-0.108 -0.4,-0.108c-0.371,0 -0.645,0.234 -0.645,0.68501l0,1.713l-0.469,0l0,-2.833l0.469,0l0,0.36l0.023,0c0.2,-0.291 0.44,-0.389 0.743,-0.389c0.194,0 0.371,0.046 0.48,0.12l-0.201,0.452z"/>
      <path fill="#000000" id="svg_358" d="m26.886,42.62913l0,1.947l-0.474,0l0,-0.246l-0.006,-0.006c-0.103,0.166 -0.4,0.286 -0.783,0.286c-0.645,0 -1.005,-0.354 -1.005,-0.839c0,-0.44 0.297,-0.834 0.902,-0.834l0.891,0l0,-0.32c0,-0.308 -0.194,-0.462 -0.651,-0.462c-0.354,0 -0.54799,0.097 -0.674,0.24599l-0.297,-0.314c0.211,-0.246 0.565,-0.371 0.953,-0.371c0.613,-0.001 1.144,0.193 1.144,0.913zm-1.205,1.55299c0.365,0 0.731,-0.103 0.731,-0.52499l0,-0.331l-0.777,0c-0.365,0 -0.571,0.154 -0.571,0.417c0,0.268 0.2,0.439 0.617,0.439z"/>
      <path fill="#000000" id="svg_359" d="m30.387,43.90213c0.063,-0.223 0.126,-0.46899 0.183,-0.686l0.411,-1.473l0.519,0l-0.908,2.832l-0.445,0l-0.422,-1.365l-0.246,-0.788l-0.229,0.783l-0.422,1.37l-0.451,0l-0.902,-2.832l0.514,0l0.429,1.49l0.183,0.634l0.023,0c0.057,-0.205 0.126,-0.417 0.183,-0.616l0.469,-1.508l0.434,0l0.457,1.49l0.194,0.668l0.026,0l0,0.001z"/>
      <path fill="#000000" id="svg_360" d="m34.069,41.74313l0,0.314l0.017,0.006c0.217,-0.251 0.491,-0.349 0.771,-0.349c0.811,0 1.011,0.72 1.011,1.422c0,0.731 -0.211,1.474 -1.102,1.474c-0.28,0 -0.52,-0.092 -0.685,-0.286l-0.011,0l0,1.382l-0.469,0l0,-3.963l0.468,0zm0.64,2.399c0.588,0 0.668,-0.52 0.668,-0.97701c0,-0.43999 -0.045,-0.988 -0.64,-0.988c-0.577,0 -0.668,0.571 -0.668,0.988c0,0.429 0.069,0.97701 0.64,0.97701z"/>
      <path fill="#000000" id="svg_361" d="m37.125,43.32013l0,0.04601c0,0.445 0.246,0.811 0.731,0.811c0.183,0 0.451,-0.097 0.64,-0.269l0.302,0.337c-0.268,0.257 -0.617,0.365 -0.965,0.365c-0.577,0 -1.199,-0.268 -1.199,-1.439c0,-1.12 0.645,-1.46201 1.182,-1.46201c0.623,0 1.131,0.456 1.131,1.245l0,0.365l-1.822,0l0,0.001zm0,-0.394l1.331,0c-0.023,-0.508 -0.28,-0.771 -0.663,-0.771c-0.383,0 -0.64,0.279 -0.668,0.771z"/>
      <path fill="#000000" id="svg_362" d="m41.868,42.19513c0.131,0.206 0.194,0.50201 0.194,0.868c0,0.485 -0.046,0.805 -0.177,1.028c-0.195,0.331 -0.571,0.52 -1.017,0.52c-0.405,0 -0.743,-0.143 -0.937,-0.42799c-0.155,-0.235 -0.211,-0.56001 -0.211,-1.011c0,-0.32 0.034,-0.58801 0.143,-0.811c0.189,-0.405 0.577,-0.64 1.068,-0.64c0.405,-0.001 0.742,0.17101 0.937,0.474zm-1.577,0.348c-0.08,0.17101 -0.097,0.383 -0.103,0.634c0,0.251 0.012,0.451 0.086,0.617c0.109,0.24599 0.32,0.389 0.599,0.389c0.303,0 0.56,-0.15501 0.668,-0.50301c0.04,-0.137 0.046,-0.297 0.046,-0.599c0,-0.217 -0.017,-0.389 -0.074,-0.525c-0.109,-0.28 -0.331,-0.411 -0.6,-0.411c-0.279,-0.002 -0.507,0.146 -0.622,0.39799z"/>
      <path fill="#000000" id="svg_363" d="m43.419,41.74313l0,0.314l0.017,0.006c0.217,-0.251 0.491,-0.349 0.771,-0.349c0.811,0 1.011,0.72 1.011,1.422c0,0.731 -0.211,1.474 -1.102,1.474c-0.28,0 -0.52,-0.092 -0.685,-0.286l-0.011,0l0,1.382l-0.469,0l0,-3.963l0.468,0zm0.64,2.399c0.588,0 0.668,-0.52 0.668,-0.97701c0,-0.43999 -0.045,-0.988 -0.639,-0.988c-0.577,0 -0.668,0.571 -0.668,0.988c-0.001,0.429 0.068,0.97701 0.639,0.97701z"/>
      <path fill="#000000" id="svg_364" d="m46.81,44.57613c-0.411,0 -0.697,-0.171 -0.697,-0.657l0,-3.48901l0.469,0l0,3.44901c0,0.171 0.097,0.269 0.291,0.269l0.137,0l0,0.428l-0.2,0z"/>
      <path fill="#000000" id="svg_365" d="m48.09,43.32013l0,0.04601c0,0.445 0.246,0.811 0.731,0.811c0.183,0 0.451,-0.097 0.64,-0.269l0.302,0.337c-0.268,0.257 -0.617,0.365 -0.965,0.365c-0.577,0 -1.199,-0.268 -1.199,-1.439c0,-1.12 0.645,-1.46201 1.182,-1.46201c0.623,0 1.131,0.456 1.131,1.245l0,0.365l-1.822,0l0,0.001zm0,-0.394l1.331,0c-0.02299,-0.508 -0.28,-0.771 -0.66299,-0.771c-0.383,0 -0.639,0.279 -0.668,0.771z"/>
      <path fill="#000000" id="svg_366" d="m50.683,44.57613l0,-0.634l0.58801,0l0,0.634l-0.58801,0z"/>
     </g>
     <g stroke="null" id="svg_367">
      <path fill="#000000" id="svg_368" d="m38.089,-33.68887c0,-0.985 0,-4.141 0,-5.142c-1.893,-0.429 -3.105,-0.389 -3.105,-0.389s-1.212,-0.039 -3.105,0.389c0,1.001 0,4.157 0,5.142c1.569,-0.391 3.105,-0.376 3.105,-0.376s1.536,-0.015 3.105,0.376z"/>
      <path fill="#000000" id="svg_369" d="m30.013,-25.29087c0.328,-0.146 1.317,-0.465 1.317,-0.465l0.001,23.654c0,0 1.726,0.504 3.001,0.504l0,-14.941l1.305,0l0,14.941c1.275,0 3.001,-0.504 3.001,-0.504l0.001,-23.654c0,0 0.989,0.319 1.317,0.465l0,6.508c0,0 1.39,0.521 2.893,1.666c0,-1.131 -0.002,-12.994 -0.002,-12.994s-3.13,-2.677 -7.861,-2.678l0,0c0,0 0,0 -0.001,0l-0.001,0l0,0c-4.731,0.001 -7.861,2.678 -7.861,2.678s-0.003,11.863 -0.003,12.994c1.503,-1.145 2.893,-1.666 2.893,-1.666l0,-6.508z"/>
      <path fill="#000000" id="svg_370" d="m39.964,-1.29487c0,0 -2.155,0.994 -4.982,0.994c-2.828,0 -4.982,-0.994 -4.982,-0.994l0.009,-12.929c0,0 -1.472,-0.598 -2.908,-1.691c0,1.759 0,11.204 0,12.963c0.068,0.136 0.089,0.178 3.938,7.837c0.771,0.231 2.231,0.58 3.949,0.58c1.718,0 3.166,-0.349 3.937,-0.58c3.848,-7.659 3.87,-7.701 3.938,-7.837c0,-1.759 0,-11.204 0,-12.963c-1.436,1.093 -2.908,1.691 -2.908,1.691l0.009,12.929z"/>
      <path fill="#000000" id="svg_371" d="m31.879,6.54813c0.865,1.722 1.89,3.761 3.104,6.177c1.214,-2.416 2.238,-4.455 3.104,-6.177c-0.838,0.189 -1.954,0.376 -3.104,0.376c-1.15,0 -2.266,-0.187 -3.104,-0.376z"/>
      <path fill="#000000" id="svg_372" d="m62.469,-36.37387c-6.86,-8.169 -16.886,-12.855 -27.506,-12.855c-10.595,0 -20.606,4.67 -27.465,12.812l-0.595,0.705l-0.001,45.137l0.607,0.709c6.853,8.011 16.859,12.606 27.453,12.606c10.619,0 20.643,-4.65701 27.501,-12.778l0.597,-0.706l0.001,-44.925l-0.592,-0.705zm-4.464,43.761c-5.87299,6.556 -14.219,10.299 -23.044,10.299c-8.807,0 -17.139,-3.687 -23.006,-10.148l0.001,-41.384c5.874,-6.576 14.207,-10.329 23.007,-10.329c8.822,0 17.17,3.768 23.044,10.367l-0.00201,41.195z"/>
     </g>
    </g>
   </g>
  </g>
 </g>
</svg>