<svg width="42" height="42" xmlns="http://www.w3.org/2000/svg">
 <!-- Created with Method Draw - http://github.com/duopixel/Method-Draw/ -->

 <g>
  <title>background</title>
 </g>
 <g>
  <title>Layer 1</title>
  <g id="svg_48" stroke="null">
   <g display="none" id="svg_4" transform="matrix(0.414267 0 0 0.414267 -10.7735 -19.7601)" stroke="null">
    <path fill="none" stroke-width="2" stroke-miterlimit="10" d="m95.05115,83.86897c0.93501,0 1.35001,0.584 1.35001,1.44199c0,0.857 -0.76501,1.55801 -1.7,1.55801c-2.922,2.679 -2.55,4.949 -2.55,7c0,8.852 5.89999,11 5.89999,11s0,1.209 0,3c0,2.031 5,2.175 5,5s-2,1.85699 -2,4c1.403,0 3,1.377 3,2.66199c0,1.286 -1.147,2.33801 -2.55,2.33801l-28.9,0c-1.403,0 -2.55,-1.052 -2.55,-2.33801c0,-1.285 1.597,-2.66199 3,-2.66199c0,-2.14301 -2,-1.175 -2,-4s5,-2.938 5,-5c0,-1.791 0,-3 0,-3s5.9,-2.148 5.9,-11c0,-1.916 0.37199,-4.321 -2.55,-7c-0.93501,0 -1.7,-0.701 -1.7,-1.55801c0,-0.85799 0.41499,-1.44199 1.35,-1.44199" id="svg_5" stroke="#000000"/>
    <line fill="none" stroke-width="2" stroke-miterlimit="10" x1="79.05115" y1="83.86896" x2="95.05115" y2="83.86896" id="svg_6" stroke="#000000"/>
    <line fill="none" stroke-width="2" stroke-miterlimit="10" x1="79.40115" y1="86.86896" x2="94.70115" y2="86.86896" id="svg_7" stroke="#000000"/>
    <line fill="none" stroke-width="2" stroke-miterlimit="10" x1="76.05115" y1="107.86896" x2="98.05115" y2="107.86896" id="svg_8" stroke="#000000"/>
    <line fill="none" stroke-width="2" stroke-miterlimit="10" x1="77.05115" y1="104.86896" x2="97.05115" y2="104.86896" id="svg_9" stroke="#000000"/>
    <line fill="none" stroke-width="2" stroke-miterlimit="10" x1="73.05115" y1="116.86896" x2="101.05115" y2="116.86896" id="svg_10" stroke="#000000"/>
    <path fill="none" stroke-width="2" stroke-miterlimit="10" d="m93.55115,83.86897l-13,0c-0.825,0 -1.5,-0.675 -1.5,-1.5l0,0c0,-0.825 0.675,-1.5 1.5,-1.5l13,0c0.825,0 1.5,0.675 1.5,1.5l0,0c0,0.825 -0.675,1.5 -1.5,1.5z" id="svg_11" stroke="#000000"/>
    <path fill="none" stroke-width="2" stroke-miterlimit="10" d="m87.05115,54.86897l0,15l-3,0l0,-11.576c-2.271,2.869 -5,7.04399 -5,10.576c0,6.044 3,9 3,9l0,3l10,0l0,-3c0,0 3,-2.956 3,-9c0,-6.044 -8,-14 -8,-14z" id="svg_12" stroke="#000000"/>
   </g>
   <g id="svg_13" transform="matrix(1.16397 0 0 0.595738 -30.352 -29.8111)" stroke="null">
    <path d="m59.48646,113.79478c0.049,-0.03899 0.105,-0.08099 0.168,-0.12798c0.599,-0.44701 1.505,-1.123 1.505,-3.13401c0,-2.14201 -1.939,-3.12701 -3.355,-3.846c-0.65501,-0.333 -1.645,-0.83601 -1.645,-1.154l-0.006,-3.693l-0.646,-0.244c-0.215,-0.082 -5.248,-2.076 -5.248,-10.063c0,-0.21201 -0.004,-0.426 -0.008,-0.64201c-0.031,-1.742 -0.061,-3.39 1.99001,-5.391c1.284,-0.197 2.268,-1.254 2.268,-2.526c0,-1.139 -0.548,-1.964 -1.448,-2.28699c0.057,-0.21 0.098,-0.42599 0.098,-0.654c0,-1.37801 -1.122,-2.5 -2.5,-2.5l-0.5,0l0,-1.618c0.816,-0.973 3,-4.07301 3,-9.382c0,-6.38601 -7.956,-14.37201 -8.295,-14.709l-1.705,-1.696l0,16.405l-1,0l0,-13.45l-1.78401,2.253c-2.37999,3.006 -5.21599,7.388 -5.21599,11.197c0,5.309 2.184,8.409 3,9.382l0,1.618l-0.5,0c-1.378,0 -2.5,1.12199 -2.5,2.5c0,0.228 0.041,0.444 0.098,0.654c-0.9,0.32301 -1.448,1.14799 -1.448,2.28699c0,1.271 0.98299,2.329 2.268,2.526c2.054,2.00999 2.021,3.74799 1.99,5.43c-0.004,0.20599 -0.008,0.407 -0.008,0.603c0,7.987 -5.033,9.981 -5.242,10.061l-0.658,0.23901l0,3.7c0,0.335 -0.958,0.819 -1.65701,1.173c-1.411,0.71301 -3.34299,1.689 -3.34299,3.827c0,2.01101 0.906,2.687 1.505,3.13401c0.063,0.047 0.119,0.08899 0.168,0.12799c-1.465,0.57201 -2.673,1.99701 -2.673,3.40001c0,1.84 1.592,3.338 3.55,3.338l28.9,0c1.958,0 3.55,-1.498 3.55,-3.338c0,-1.403 -1.208,-2.828 -2.673,-3.40001l-0.00001,-0.00002zm-19.33101,-38.67799l-0.29099,-0.292c-0.026,-0.028 -2.705,-2.78799 -2.705,-8.292c0,-2.368 1.396,-5.12901 3,-7.52l0,9.52l5,0l0,-13.42801c2.27,2.63 6,7.543 6,11.42801c0,5.50401 -2.679,8.264 -2.702,8.28799l-0.298,0.294l0,2.41801l-8,0l-0.00401,-2.416zm-2.49599,4.416l0.5,0l12,0l0.5,0c0.271,0 0.5,0.229 0.5,0.5s-0.229,0.5 -0.5,0.5l-13,0c-0.271,0 -0.5,-0.229 -0.5,-0.5s0.229,-0.5 0.5,-0.5zm-1.85,3.44099c0,-0.44099 0.09499,-0.44099 0.35,-0.44099l1.5,0l13,0l1.5,0c0.255,0 0.35,0 0.35,0.44099c0,0.303 -0.321,0.55901 -0.7,0.55901l-0.389,0l-14.522,0l-0.389,0c-0.379,0 -0.7,-0.256 -0.7,-0.55901zm4.25,8.55901c0,-0.18401 0.003,-0.372 0.007,-0.565c0.028,-1.473 0.056,-3.374 -1.357,-5.435l10.89,0c-1.40099,2.02299 -1.375,3.856 -1.347,5.394c0.00301,0.204 0.007,0.40601 0.007,0.606c0,5.222 1.923,8.284 3.688,10l-15.576,0c1.765,-1.716 3.68801,-4.778 3.68801,-10l-0.00001,0zm14.1,12l0,1l-20,0l0,-1l20,0zm-22.755,4.958c0.979,-0.494 2.054,-1.041 2.51801,-1.958l20.477,0c0.465,0.90199 1.53,1.445 2.499,1.937c1.366,0.693 2.261,1.21201 2.261,2.063c0,1.008 -0.24901,1.19399 -0.701,1.532c-0.382,0.285 -0.90501,0.68 -1.15501,1.46801l-26.288,0c-0.249,-0.78801 -0.77299,-1.18401 -1.155,-1.46801c-0.452,-0.33801 -0.701,-0.52399 -0.701,-1.532c0,-0.845 0.889,-1.357 2.245,-2.042zm27.205,10.04201l-28.9,0c-0.84,0 -1.55,-0.61301 -1.55,-1.338c0,-0.65601 1.07299,-1.662 2,-1.662l1,0l26,0l1,0c0.927,0 2,1.006 2,1.662c0,0.72498 -0.71,1.338 -1.55,1.338z" id="svg_14" stroke="null"/>
   </g>
   <g display="none" opacity="0.2" id="svg_15" transform="matrix(0.414267 0 0 0.414267 -10.7735 -19.7601)" stroke="null">
    <g display="inline" id="svg_16" stroke="null">
     <g id="svg_17" stroke="null">
      <path d="m89.54815,106.93896l-1.08801,0.387c-0.08199,-0.358 -0.38,-0.633 -0.849,-0.633c-0.574,0 -0.842,0.417 -0.842,0.842l0,1.408c0,0.501 0.28001,0.87901 0.84901,0.87901c0.569,0 0.991,-0.32401 0.991,-0.32401l0.001,-0.584l-1.15601,0l0,-0.955l2.18999,0c0,0 0,1.651 0,1.927c-0.361,0.495 -1.215,1.001 -2.02599,1.001c-1.348,0 -2.00401,-0.842 -2.00401,-2.026l0,-1.222c0,-1.073 0.65601,-2.019 2.00401,-2.019c0.98399,0 1.67599,0.529 1.93,1.319z" id="svg_18" stroke="null"/>
      <g id="svg_19" stroke="null">
       <path d="m67.45914,110.84196l0,-5.18999l3.668,0l0,1.029l-2.52,0l0,1.05099l2.14799,0l0,0.992l-2.14799,0l0,1.089l2.52,0l0,1.029l-3.668,0z" id="svg_20" stroke="null"/>
       <path d="m112.46415,110.84196l0,-2.118l-1.7,0l0,2.118l-1.14799,0l0,-5.18999l1.14799,0l0,2.07999l1.7,0l0,-2.07999l1.133,0l0,5.18999l-1.133,0z" id="svg_21" stroke="null"/>
      </g>
      <path d="m83.80115,106.55396c0,0 -0.776,-0.952 -2.013,-0.952s-2.013,0.952 -2.013,0.952s-0.001,1.05 -0.001,1.078l0,0.639l0,0.416l0,1.252c0,0 0.786,0.958 2.014,0.958l0,0c1.228,0 2.014,-0.958 2.014,-0.958l0,-1.252l0,-0.416l0,-0.639c0.001,-0.028 -0.001,-1.078 -0.001,-1.078zm-1.14799,1.708l0,0.245l0,0.868c0,0 -0.259,0.43301 -0.869,0.43301l0,0c-0.61,0 -0.869,-0.43301 -0.869,-0.43301l0,-0.868l0,-0.245l0,-0.376c0,-0.01601 0.001,-0.76501 0.001,-0.76501s0.254,-0.42899 0.868,-0.42899c0.614,0 0.868,0.42899 0.868,0.42899s0.001,0.749 0.001,0.76501l0,0.376z" id="svg_22" stroke="null"/>
      <path d="m63.53114,105.66196c1.155,0 1.966,0.992 1.966,0.992l0,0.959c0,0 0,1.072 0,1.10899c-0.002,0.666 0,1.131 0,1.131s-0.714,0.993 -2.093,0.993l-1.936,0l0,-5.184l2.063,0l0,0.00001zm0.826,2.233l0,-0.133c0,-0.00301 0,-0.006 0,-0.009c0,-0.218 -0.001,-0.606 -0.001,-0.606s-0.151,-0.254 -0.5,-0.367c-0.138,-0.056 -0.308,-0.084 -0.512,-0.084l-0.73,0l0,3.12099l0.752,0c0.246,0 0.436,-0.045 0.58,-0.129c0.284,-0.124 0.41,-0.335 0.41,-0.335l0,-0.849l0,-0.239l0,-0.368c0.001,0 0.001,-0.001 0.001,-0.002l0,0.00001z" id="svg_23" stroke="null"/>
      <path d="m107.85115,107.31896l0,0c0,0.16 0,0.69099 0,0.69099s-0.843,0.93401 -1.819,0.93401l-0.991,0l0,1.894l-1.14799,0l0,-5.189l2.139,0c0.97601,0 1.819,0.93401 1.819,0.93401s0,0.722 0,0.736l-0.00001,0zm-1.163,-0.28999c0,0 -0.332,-0.35101 -0.716,-0.35101l-0.931,0l0,1.238l0.932,0c0.384,0 0.716,-0.35101 0.716,-0.35101s0,-0.254 0,-0.268s-0.001,-0.268 -0.001,-0.268l0,0.00001z" id="svg_24" stroke="null"/>
      <path d="m95.59814,110.84796l-0.994,-2.21301l-0.00401,-0.001c0.558,-0.277 0.94901,-0.711 0.94901,-0.711l0,-0.429l0,-0.215l0,0l0,-0.302l0,-0.387c0,0 -0.845,-0.937 -1.82401,-0.937l-2.145,0l0,2.37l-0.003,-0.001l0,2.825l1.15099,0l0,-1.987l0.00301,0l0.754,0l0.812,1.987l1.301,0l0,0.001l0.00001,0zm-2.867,-4.16299l0.934,0c0.385,0 0.718,0.35201 0.718,0.35201s0,0.048 0,0.12c0,0.057 0,0.094 0,0.10001c0,0.006 0,0.05099 0,0.104c0,0.076 0,0.116 0,0.116s-0.333,0.35201 -0.718,0.35201l-0.934,0l0,-1.144z" id="svg_25" stroke="null"/>
      <path d="m76.71615,110.84196l0,-2.46999l-0.022,-0.008l-0.47,1.05199l-0.308,0.64301c0,0 -0.217,0.099 -0.496,0.099c-0.278,0 -0.462,-0.086 -0.462,-0.086l-0.33,-0.694l-0.45499,-1.015l-0.022,0.022l0,2.455l-1.149,0l0,-5.193l1.037,0l0.701,1.507l0.67101,1.559l0.03,0l0.649,-1.559l0.686,-1.507l1.082,0l0,5.193l-1.142,0l0,0.002l-0.00002,0z" id="svg_26" stroke="null"/>
      <path d="m100.96014,110.84196l-0.392,-1.06499c0,0 -0.389,0.153 -0.888,0.153c-0.499,0 -0.867,-0.153 -0.867,-0.153l-0.39201,1.06499l-1.21999,0l2.034,-5.17c0,0 0.197,-0.052 0.44901,-0.052c0.252,0 0.46201,0.052 0.46201,0.052l2.033,5.17l-1.219,0l-0.00002,0zm-0.949,-2.641l-0.309,-1.035l-0.03001,0l-0.30099,1.02l-0.18501,0.581c0,0 0.16901,0.112 0.494,0.112c0.325,0 0.516,-0.11 0.516,-0.11l-0.185,-0.568l0.00001,0z" id="svg_27" stroke="null"/>
     </g>
     <g id="svg_28" stroke="null">
      <path d="m72.54414,117.26697c0.59399,0 1.10201,0.217 1.354,0.737c0.143,0.291 0.154,0.69099 0.154,1.182c0,0.554 -0.012,0.95901 -0.143,1.26701c-0.263,0.6 -0.82201,0.78799 -1.46201,0.78799l-1.20499,0l0,-3.975l1.30199,0l0,0.001l0.00002,0zm1.005,1.62199c0,-0.87399 -0.422,-1.16 -1.028,-1.16l-0.777,0l0,3.05l0.777,0c0.754,0 1.028,-0.44501 1.028,-1.131l0,-0.759z" id="svg_29" stroke="null"/>
      <path d="m76.47614,118.95197c-0.11401,-0.07401 -0.251,-0.108 -0.39999,-0.108c-0.371,0 -0.645,0.234 -0.645,0.68501l0,1.71301l-0.469,0l0,-2.833l0.469,0l0,0.36l0.02299,0c0.2,-0.291 0.43999,-0.389 0.743,-0.389c0.194,0 0.371,0.046 0.48,0.12l-0.201,0.452l-0.00001,-0.00001z" id="svg_30" stroke="null"/>
      <path d="m79.43715,119.29497l0,1.947l-0.47401,0l0,-0.24599l-0.006,-0.006c-0.103,0.166 -0.4,0.286 -0.783,0.286c-0.645,0 -1.005,-0.354 -1.005,-0.839c0,-0.44 0.297,-0.83401 0.90199,-0.83401l0.89101,0l0,-0.32c0,-0.308 -0.194,-0.462 -0.651,-0.462c-0.354,0 -0.548,0.097 -0.674,0.24599l-0.297,-0.314c0.211,-0.246 0.56499,-0.371 0.953,-0.371c0.61301,-0.001 1.144,0.193 1.144,0.913l0.00001,0.00001zm-1.205,1.55299c0.36501,0 0.731,-0.103 0.731,-0.52499l0,-0.331l-0.777,0c-0.365,0 -0.571,0.15401 -0.571,0.41701c0,0.268 0.2,0.439 0.617,0.439l0,-0.00001z" id="svg_31" stroke="null"/>
      <path d="m82.93815,120.56796c0.063,-0.223 0.126,-0.46899 0.183,-0.686l0.411,-1.473l0.519,0l-0.908,2.832l-0.445,0l-0.422,-1.365l-0.246,-0.788l-0.229,0.783l-0.422,1.37l-0.451,0l-0.90199,-2.832l0.514,0l0.42899,1.49l0.18301,0.634l0.02299,0c0.057,-0.205 0.126,-0.417 0.183,-0.616l0.469,-1.508l0.434,0l0.457,1.49l0.194,0.66801l0.026,0l0,0.001z" id="svg_32" stroke="null"/>
      <path d="m86.62015,118.40897l0,0.314l0.01701,0.006c0.217,-0.25101 0.491,-0.34901 0.771,-0.34901c0.811,0 1.011,0.72 1.011,1.422c0,0.731 -0.211,1.474 -1.10201,1.474c-0.27999,0 -0.52,-0.092 -0.68499,-0.286l-0.011,0l0,1.382l-0.46899,0l0,-3.963l0.46799,0zm0.64,2.39899c0.58801,0 0.668,-0.52 0.668,-0.97701c0,-0.43999 -0.045,-0.98801 -0.64001,-0.98801c-0.577,0 -0.66799,0.57101 -0.66799,0.98801c0,0.42899 0.069,0.97701 0.64,0.97701z" id="svg_33" stroke="null"/>
      <path d="m89.67615,119.98596l0,0.04601c0,0.445 0.24599,0.811 0.731,0.811c0.18301,0 0.451,-0.097 0.64,-0.269l0.302,0.33701c-0.26801,0.257 -0.617,0.365 -0.965,0.365c-0.577,0 -1.19901,-0.268 -1.19901,-1.439c0,-1.12 0.645,-1.46201 1.18201,-1.46201c0.62299,0 1.131,0.456 1.131,1.245l0,0.36501l-1.82201,0l0,0.001zm0,-0.394l1.33099,0c-0.02299,-0.508 -0.28,-0.771 -0.66299,-0.771c-0.383,0 -0.64,0.279 -0.668,0.771z" id="svg_34" stroke="null"/>
      <path d="m94.41914,118.86096c0.131,0.206 0.19399,0.50201 0.19399,0.868c0,0.485 -0.046,0.805 -0.17699,1.028c-0.19499,0.331 -0.571,0.52 -1.017,0.52c-0.40501,0 -0.743,-0.14301 -0.937,-0.42799c-0.155,-0.235 -0.211,-0.56001 -0.211,-1.011c0,-0.32 0.034,-0.58801 0.143,-0.811c0.189,-0.405 0.577,-0.64 1.068,-0.64c0.405,-0.001 0.742,0.17101 0.937,0.474l0,-0.00001zm-1.577,0.348c-0.08,0.17101 -0.097,0.383 -0.103,0.634c0,0.25101 0.01199,0.451 0.086,0.617c0.109,0.24599 0.32001,0.389 0.59901,0.389c0.30299,0 0.56001,-0.15501 0.668,-0.50301c0.04,-0.137 0.04601,-0.297 0.04601,-0.599c0,-0.217 -0.01701,-0.389 -0.07401,-0.525c-0.109,-0.28 -0.331,-0.411 -0.60001,-0.411c-0.279,-0.002 -0.507,0.146 -0.62199,0.39799l-0.00001,0.00002z" id="svg_35" stroke="null"/>
      <path d="m95.97015,118.40897l0,0.314l0.017,0.006c0.217,-0.25101 0.491,-0.34901 0.771,-0.34901c0.811,0 1.01099,0.72 1.01099,1.422c0,0.731 -0.211,1.474 -1.10199,1.474c-0.28001,0 -0.52,-0.092 -0.68501,-0.286l-0.011,0l0,1.382l-0.469,0l0,-3.963l0.468,0l0.00002,0zm0.64,2.39899c0.588,0 0.668,-0.52 0.668,-0.97701c0,-0.43999 -0.04501,-0.98801 -0.639,-0.98801c-0.577,0 -0.668,0.57101 -0.668,0.98801c-0.001,0.42899 0.06799,0.97701 0.639,0.97701z" id="svg_36" stroke="null"/>
      <path d="m99.36115,121.24197c-0.411,0 -0.69701,-0.171 -0.69701,-0.657l0,-3.48901l0.469,0l0,3.44901c0,0.17101 0.097,0.269 0.291,0.269l0.13699,0l0,0.42799l-0.2,0l0.00002,0z" id="svg_37" stroke="null"/>
      <path d="m100.64114,119.98596l0,0.04601c0,0.445 0.24599,0.811 0.731,0.811c0.183,0 0.451,-0.097 0.64,-0.269l0.302,0.33701c-0.268,0.257 -0.617,0.365 -0.965,0.365c-0.577,0 -1.199,-0.268 -1.199,-1.439c0,-1.12 0.645,-1.46201 1.182,-1.46201c0.623,0 1.131,0.456 1.131,1.245l0,0.36501l-1.822,0l0,0.001zm0,-0.394l1.33099,0c-0.02299,-0.508 -0.28,-0.771 -0.66299,-0.771c-0.383,0 -0.63901,0.279 -0.66801,0.771z" id="svg_38" stroke="null"/>
      <path d="m103.23415,121.24197l0,-0.634l0.588,0l0,0.634l-0.588,0z" id="svg_39" stroke="null"/>
     </g>
     <g id="svg_40" stroke="null">
      <path d="m90.64014,42.97696c0,-0.985 0,-4.141 0,-5.142c-1.893,-0.429 -3.105,-0.389 -3.105,-0.389s-1.212,-0.039 -3.105,0.389c0,1.001 0,4.157 0,5.142c1.569,-0.391 3.105,-0.376 3.105,-0.376s1.536,-0.015 3.105,0.376z" id="svg_41" stroke="null"/>
      <path d="m82.56415,51.37497c0.328,-0.146 1.317,-0.465 1.317,-0.465l0.001,23.654c0,0 1.726,0.50401 3.001,0.50401l0,-14.94101l1.305,0l0,14.94101c1.27499,0 3.001,-0.50401 3.001,-0.50401l0.001,-23.654c0,0 0.98901,0.319 1.317,0.465l0,6.508c0,0 1.39,0.521 2.893,1.666c0,-1.131 -0.002,-12.994 -0.002,-12.994s-3.13,-2.677 -7.861,-2.678l0,0c0,0 0,0 -0.001,0l-0.001,0l0,0c-4.731,0.001 -7.861,2.678 -7.861,2.678s-0.00301,11.863 -0.00301,12.994c1.50301,-1.145 2.89301,-1.666 2.89301,-1.666l0,-6.508z" id="svg_42" stroke="null"/>
      <path d="m92.51515,75.37096c0,0 -2.15501,0.994 -4.98201,0.994c-2.828,0 -4.98199,-0.994 -4.98199,-0.994l0.009,-12.929c0,0 -1.472,-0.598 -2.908,-1.691c0,1.759 0,11.204 0,12.963c0.068,0.136 0.089,0.178 3.938,7.837c0.771,0.231 2.231,0.58 3.949,0.58c1.718,0 3.166,-0.349 3.937,-0.58c3.84799,-7.659 3.87,-7.701 3.938,-7.837c0,-1.759 0,-11.204 0,-12.963c-1.436,1.093 -2.908,1.691 -2.908,1.691l0.009,12.929z" id="svg_43" stroke="null"/>
      <path d="m84.43015,83.21397c0.865,1.722 1.89,3.761 3.104,6.177c1.214,-2.416 2.238,-4.455 3.104,-6.177c-0.83801,0.189 -1.95401,0.37601 -3.104,0.37601c-1.15,0 -2.26601,-0.187 -3.104,-0.37601z" id="svg_44" stroke="null"/>
      <path d="m115.02014,40.29197c-6.85999,-8.169 -16.886,-12.855 -27.506,-12.855c-10.59499,0 -20.606,4.67 -27.465,12.812l-0.595,0.705l-0.001,45.137l0.607,0.709c6.853,8.01099 16.859,12.606 27.45301,12.606c10.619,0 20.643,-4.65701 27.50098,-12.778l0.597,-0.706l0.001,-44.925l-0.592,-0.705zm-4.464,43.761c-5.87299,6.556 -14.21899,10.299 -23.044,10.299c-8.807,0 -17.139,-3.687 -23.006,-10.14799l0.00099,-41.384c5.87401,-6.576 14.20699,-10.32901 23.007,-10.32901c8.82201,0 17.17001,3.76801 23.04401,10.36701l-0.00201,41.195l0.00001,0z" id="svg_45" stroke="null"/>
     </g>
    </g>
   </g>
  </g>
 </g>
 <g>
  <title>background</title>
  <rect fill="none" id="canvas_background" height="602" width="802" y="-1" x="-1"/>
 </g>
</svg>