<svg width="42" height="42" xmlns="http://www.w3.org/2000/svg" stroke="null" style="vector-effect: non-scaling-stroke;">

 <g stroke="null">
  <title stroke="null">background</title>
  <rect stroke="null" fill="none" id="canvas_background" height="44" width="44" y="-1" x="-1"/>
 </g>
 <g stroke="null">
  <title stroke="null">Layer 1</title>
  <g stroke="null" id="svg_1" display="none">
   <line stroke="#000000" id="svg_2" y2="43" x2="62" y1="43" x1="40" stroke-miterlimit="10" stroke-width="2" fill="none"/>
   <line stroke="#000000" id="svg_3" y2="40" x2="61" y1="40" x1="41" stroke-miterlimit="10" stroke-width="2" fill="none"/>
   <line stroke="#000000" id="svg_4" y2="52" x2="65" y1="52" x1="37" stroke-miterlimit="10" stroke-width="2" fill="none"/>
   <path stroke="#000000" id="svg_5" d="m41,2l0,8l3,3c0,0 1,1.714 1,12s-5,15 -5,15s0,1.209 0,3c0,2.062 -5,2.175 -5,5s2,1.857 2,4c-1.403,0 -3,1.377 -3,2.662c0,1.286 1.147,2.338 2.55,2.338l28.9,0c1.403,0 2.55,-1.052 2.55,-2.338c0,-1.285 -1.597,-2.662 -3,-2.662c0,-2.143 2,-1.175 2,-4s-5,-2.969 -5,-5c0,-1.791 0,-3 0,-3s-5,-4.714 -5,-15s1,-12 1,-12l3,-3l0,-8l-4,0l0,6l-4,0l0,-6l-4,0l0,6l-4,0l0,-6l-4,0z" stroke-miterlimit="10" stroke-width="2" fill="none"/>
   <line stroke="#000000" id="svg_6" y2="4" x2="49" y1="4" x1="45" stroke-miterlimit="10" stroke-width="2" fill="none"/>
   <line stroke="#000000" id="svg_7" y2="4" x2="57" y1="4" x1="53" stroke-miterlimit="10" stroke-width="2" fill="none"/>
   <line stroke="#000000" id="svg_8" y2="13" x2="58" y1="13" x1="44" stroke-miterlimit="10" stroke-width="2" fill="none"/>
  </g>
  <g stroke="null" id="svg_11" opacity="0.2" display="none">
   <g stroke="null" style="vector-effect: non-scaling-stroke;" id="svg_12" display="inline">
    <g stroke="null" style="vector-effect: non-scaling-stroke;" id="svg_13">
     <path stroke="null" style="vector-effect: non-scaling-stroke;" id="svg_14" d="m53.497,42.07l-1.088,0.387c-0.082,-0.358 -0.38,-0.633 -0.849,-0.633c-0.574,0 -0.842,0.417 -0.842,0.842l0,1.408c0,0.501 0.28,0.87901 0.849,0.87901c0.569,0 0.991,-0.32401 0.991,-0.32401l0.001,-0.584l-1.156,0l0,-0.955l2.19,0c0,0 0,1.651 0,1.927c-0.361,0.495 -1.215,1.001 -2.026,1.001c-1.348,0 -2.004,-0.842 -2.004,-2.026l0,-1.222c0,-1.073 0.656,-2.019 2.004,-2.019c0.984,0 1.676,0.529 1.93,1.319z"/>
     <g stroke="null" style="vector-effect: non-scaling-stroke;" id="svg_15">
      <path stroke="null" style="vector-effect: non-scaling-stroke;" id="svg_16" d="m31.408,45.973l0,-5.19l3.668,0l0,1.029l-2.52,0l0,1.051l2.148,0l0,0.992l-2.148,0l0,1.089l2.52,0l0,1.029l-3.668,0z"/>
      <path stroke="null" style="vector-effect: non-scaling-stroke;" id="svg_17" d="m76.413,45.973l0,-2.118l-1.7,0l0,2.118l-1.14799,0l0,-5.19l1.14799,0l0,2.08l1.7,0l0,-2.08l1.133,0l0,5.19l-1.133,0z"/>
     </g>
     <path stroke="null" style="vector-effect: non-scaling-stroke;" id="svg_18" d="m47.75,41.685c0,0 -0.776,-0.952 -2.013,-0.952s-2.013,0.952 -2.013,0.952s-0.001,1.05 -0.001,1.078l0,0.639l0,0.416l0,1.252c0,0 0.786,0.958 2.014,0.958l0,0c1.228,0 2.014,-0.958 2.014,-0.958l0,-1.252l0,-0.416l0,-0.639c0.001,-0.028 -0.001,-1.078 -0.001,-1.078zm-1.148,1.708l0,0.245l0,0.868c0,0 -0.259,0.43301 -0.869,0.43301l0,0c-0.61,0 -0.869,-0.43301 -0.869,-0.43301l0,-0.868l0,-0.245l0,-0.376c0,-0.016 0.001,-0.765 0.001,-0.765s0.254,-0.429 0.868,-0.429c0.614,0 0.868,0.429 0.868,0.429s0.001,0.749 0.001,0.765l0,0.376z"/>
     <path stroke="null" style="vector-effect: non-scaling-stroke;" id="svg_19" d="m27.48,40.793c1.155,0 1.966,0.992 1.966,0.992l0,0.959c0,0 0,1.072 0,1.10899c-0.002,0.666 0,1.131 0,1.131s-0.714,0.993 -2.093,0.993l-1.936,0l0,-5.184l2.063,0zm0.826,2.233l0,-0.133c0,-0.003 0,-0.006 0,-0.009c0,-0.218 -0.001,-0.606 -0.001,-0.606s-0.151,-0.254 -0.5,-0.367c-0.138,-0.056 -0.308,-0.084 -0.512,-0.084l-0.73,0l0,3.12099l0.752,0c0.246,0 0.436,-0.045 0.58,-0.129c0.284,-0.124 0.41,-0.335 0.41,-0.335l0,-0.849l0,-0.239l0,-0.368c0.001,0 0.001,-0.001 0.001,-0.002z"/>
     <path stroke="null" style="vector-effect: non-scaling-stroke;" id="svg_20" d="m71.8,42.45l0,0c0,0.16 0,0.691 0,0.691s-0.843,0.934 -1.819,0.934l-0.991,0l0,1.894l-1.14799,0l0,-5.189l2.139,0c0.976,0 1.819,0.934 1.819,0.934s0,0.722 0,0.736zm-1.163,-0.28999c0,0 -0.332,-0.35101 -0.716,-0.35101l-0.931,0l0,1.238l0.932,0c0.384,0 0.716,-0.351 0.716,-0.351s0,-0.254 0,-0.268s-0.001,-0.268 -0.001,-0.268z"/>
     <path stroke="null" style="vector-effect: non-scaling-stroke;" id="svg_21" d="m59.547,45.979l-0.994,-2.213l-0.004,-0.001c0.558,-0.277 0.949,-0.711 0.949,-0.711l0,-0.429l0,-0.215l0,0l0,-0.302l0,-0.387c0,0 -0.845,-0.937 -1.824,-0.937l-2.145,0l0,2.37l-0.003,-0.001l0,2.825l1.151,0l0,-1.987l0.003,0l0.754,0l0.812,1.987l1.301,0l0,0.001zm-2.867,-4.16299l0.934,0c0.385,0 0.718,0.352 0.718,0.352s0,0.048 0,0.12c0,0.057 0,0.094 0,0.1c0,0.006 0,0.051 0,0.104c0,0.076 0,0.116 0,0.116s-0.333,0.352 -0.718,0.352l-0.934,0l0,-1.144z"/>
     <path stroke="null" style="vector-effect: non-scaling-stroke;" id="svg_22" d="m40.665,45.973l0,-2.47l-0.022,-0.008l-0.47,1.05199l-0.308,0.64301c0,0 -0.217,0.099 -0.496,0.099c-0.278,0 -0.462,-0.086 -0.462,-0.086l-0.33,-0.694l-0.455,-1.015l-0.022,0.022l0,2.455l-1.149,0l0,-5.193l1.037,0l0.701,1.507l0.671,1.559l0.03,0l0.649,-1.559l0.686,-1.507l1.082,0l0,5.193l-1.142,0l0,0.002z"/>
     <path stroke="null" style="vector-effect: non-scaling-stroke;" id="svg_23" d="m64.909,45.973l-0.39201,-1.065c0,0 -0.389,0.153 -0.888,0.153c-0.499,0 -0.867,-0.153 -0.867,-0.153l-0.392,1.065l-1.22,0l2.034,-5.17c0,0 0.197,-0.052 0.449,-0.052c0.252,0 0.462,0.052 0.462,0.052l2.033,5.17l-1.21899,0zm-0.94901,-2.641l-0.309,-1.035l-0.03,0l-0.301,1.02l-0.185,0.581c0,0 0.169,0.112 0.494,0.112c0.325,0 0.516,-0.11 0.516,-0.11l-0.185,-0.568z"/>
    </g>
    <g stroke="null" style="vector-effect: non-scaling-stroke;" id="svg_24">
     <path stroke="null" style="vector-effect: non-scaling-stroke;" id="svg_25" d="m36.493,52.398c0.594,0 1.102,0.217 1.354,0.737c0.143,0.291 0.154,0.69099 0.154,1.182c0,0.554 -0.012,0.959 -0.143,1.267c-0.263,0.6 -0.822,0.788 -1.462,0.788l-1.205,0l0,-3.975l1.302,0l0,0.001zm1.005,1.62199c0,-0.87399 -0.422,-1.16 -1.028,-1.16l-0.777,0l0,3.05l0.777,0c0.754,0 1.028,-0.44501 1.028,-1.131l0,-0.759z"/>
     <path stroke="null" style="vector-effect: non-scaling-stroke;" id="svg_26" d="m40.425,54.083c-0.114,-0.074 -0.251,-0.108 -0.4,-0.108c-0.371,0 -0.645,0.234 -0.645,0.68501l0,1.713l-0.469,0l0,-2.833l0.469,0l0,0.36l0.023,0c0.2,-0.291 0.44,-0.389 0.743,-0.389c0.194,0 0.371,0.046 0.48,0.12l-0.201,0.452z"/>
     <path stroke="null" style="vector-effect: non-scaling-stroke;" id="svg_27" d="m43.386,54.426l0,1.947l-0.474,0l0,-0.246l-0.006,-0.006c-0.103,0.166 -0.4,0.286 -0.783,0.286c-0.645,0 -1.005,-0.354 -1.005,-0.839c0,-0.44 0.297,-0.834 0.902,-0.834l0.891,0l0,-0.32c0,-0.308 -0.194,-0.462 -0.651,-0.462c-0.354,0 -0.548,0.097 -0.674,0.24599l-0.297,-0.314c0.211,-0.246 0.565,-0.371 0.953,-0.371c0.613,-0.001 1.144,0.193 1.144,0.913zm-1.205,1.55299c0.365,0 0.731,-0.103 0.731,-0.52499l0,-0.331l-0.777,0c-0.365,0 -0.571,0.154 -0.571,0.417c0,0.268 0.2,0.439 0.617,0.439z"/>
     <path stroke="null" style="vector-effect: non-scaling-stroke;" id="svg_28" d="m46.887,55.699c0.063,-0.223 0.126,-0.46899 0.183,-0.686l0.411,-1.473l0.519,0l-0.908,2.832l-0.445,0l-0.422,-1.365l-0.246,-0.788l-0.229,0.783l-0.422,1.37l-0.451,0l-0.902,-2.832l0.514,0l0.429,1.49l0.183,0.634l0.023,0c0.057,-0.205 0.126,-0.417 0.183,-0.616l0.469,-1.508l0.434,0l0.457,1.49l0.194,0.668l0.026,0l0,0.001z"/>
     <path stroke="null" style="vector-effect: non-scaling-stroke;" id="svg_29" d="m50.569,53.54l0,0.314l0.017,0.006c0.217,-0.251 0.491,-0.349 0.771,-0.349c0.811,0 1.011,0.72 1.011,1.422c0,0.731 -0.211,1.474 -1.102,1.474c-0.28,0 -0.52,-0.092 -0.685,-0.286l-0.011,0l0,1.382l-0.469,0l0,-3.963l0.468,0zm0.64,2.399c0.588,0 0.668,-0.52 0.668,-0.97701c0,-0.43999 -0.045,-0.988 -0.64,-0.988c-0.577,0 -0.668,0.571 -0.668,0.988c0,0.429 0.069,0.97701 0.64,0.97701z"/>
     <path stroke="null" style="vector-effect: non-scaling-stroke;" id="svg_30" d="m53.625,55.117l0,0.04601c0,0.445 0.246,0.811 0.731,0.811c0.183,0 0.451,-0.097 0.64,-0.269l0.302,0.337c-0.268,0.257 -0.617,0.365 -0.965,0.365c-0.577,0 -1.199,-0.268 -1.199,-1.439c0,-1.12 0.645,-1.46201 1.182,-1.46201c0.623,0 1.131,0.456 1.131,1.245l0,0.365l-1.822,0l0,0.001zm0,-0.394l1.331,0c-0.023,-0.508 -0.28,-0.771 -0.663,-0.771c-0.383,0 -0.64,0.279 -0.668,0.771z"/>
     <path stroke="null" style="vector-effect: non-scaling-stroke;" id="svg_31" d="m58.368,53.992c0.131,0.206 0.194,0.50201 0.194,0.868c0,0.485 -0.046,0.805 -0.177,1.028c-0.195,0.331 -0.571,0.52 -1.017,0.52c-0.405,0 -0.743,-0.143 -0.937,-0.42799c-0.155,-0.235 -0.211,-0.56001 -0.211,-1.011c0,-0.32 0.034,-0.58801 0.143,-0.811c0.189,-0.405 0.577,-0.64 1.068,-0.64c0.405,-0.001 0.742,0.17101 0.937,0.474zm-1.577,0.348c-0.08,0.17101 -0.097,0.383 -0.103,0.634c0,0.251 0.012,0.451 0.086,0.617c0.109,0.24599 0.32,0.389 0.599,0.389c0.303,0 0.56,-0.15501 0.668,-0.50301c0.04,-0.137 0.046,-0.297 0.046,-0.599c0,-0.217 -0.017,-0.389 -0.074,-0.525c-0.109,-0.28 -0.331,-0.411 -0.6,-0.411c-0.279,-0.002 -0.507,0.146 -0.622,0.39799z"/>
     <path stroke="null" style="vector-effect: non-scaling-stroke;" id="svg_32" d="m59.919,53.54l0,0.314l0.017,0.006c0.217,-0.251 0.491,-0.349 0.771,-0.349c0.811,0 1.011,0.72 1.011,1.422c0,0.731 -0.211,1.474 -1.102,1.474c-0.28,0 -0.52,-0.092 -0.685,-0.286l-0.011,0l0,1.382l-0.469,0l0,-3.963l0.468,0zm0.64,2.399c0.588,0 0.668,-0.52 0.668,-0.97701c0,-0.43999 -0.045,-0.988 -0.639,-0.988c-0.577,0 -0.668,0.571 -0.668,0.988c-0.001,0.429 0.068,0.97701 0.639,0.97701z"/>
     <path stroke="null" style="vector-effect: non-scaling-stroke;" id="svg_33" d="m63.31,56.373c-0.411,0 -0.697,-0.171 -0.697,-0.657l0,-3.48901l0.469,0l0,3.44901c0,0.171 0.097,0.269 0.291,0.269l0.137,0l0,0.428l-0.2,0z"/>
     <path stroke="null" style="vector-effect: non-scaling-stroke;" id="svg_34" d="m64.59,55.117l0,0.04601c0,0.445 0.24599,0.811 0.731,0.811c0.183,0 0.451,-0.097 0.64,-0.269l0.302,0.337c-0.268,0.257 -0.617,0.365 -0.965,0.365c-0.577,0 -1.199,-0.268 -1.199,-1.439c0,-1.12 0.645,-1.46201 1.182,-1.46201c0.623,0 1.131,0.456 1.131,1.245l0,0.365l-1.822,0l0,0.001zm0,-0.394l1.33099,0c-0.02299,-0.508 -0.28,-0.771 -0.66299,-0.771c-0.383,0 -0.639,0.279 -0.668,0.771z"/>
     <path stroke="null" style="vector-effect: non-scaling-stroke;" id="svg_35" d="m67.183,56.373l0,-0.634l0.58801,0l0,0.634l-0.58801,0z"/>
    </g>
    <g stroke="null" style="vector-effect: non-scaling-stroke;" id="svg_36">
     <path stroke="null" style="vector-effect: non-scaling-stroke;" id="svg_37" d="m54.589,-21.892c0,-0.985 0,-4.141 0,-5.142c-1.893,-0.429 -3.105,-0.389 -3.105,-0.389s-1.212,-0.039 -3.105,0.389c0,1.001 0,4.157 0,5.142c1.569,-0.391 3.105,-0.376 3.105,-0.376s1.536,-0.015 3.105,0.376z"/>
     <path stroke="null" style="vector-effect: non-scaling-stroke;" id="svg_38" d="m46.513,-13.494c0.328,-0.146 1.317,-0.465 1.317,-0.465l0.001,23.654c0,0 1.726,0.504 3.001,0.504l0,-14.941l1.305,0l0,14.941c1.275,0 3.001,-0.504 3.001,-0.504l0.001,-23.654c0,0 0.989,0.319 1.317,0.465l0,6.508c0,0 1.39,0.521 2.893,1.666c0,-1.131 -0.002,-12.994 -0.002,-12.994s-3.13,-2.677 -7.861,-2.678l0,0c0,0 0,0 -0.001,0l-0.001,0l0,0c-4.731,0.001 -7.861,2.678 -7.861,2.678s-0.003,11.863 -0.003,12.994c1.503,-1.145 2.893,-1.666 2.893,-1.666l0,-6.508z"/>
     <path stroke="null" style="vector-effect: non-scaling-stroke;" id="svg_39" d="m56.464,10.502c0,0 -2.155,0.994 -4.982,0.994c-2.828,0 -4.982,-0.994 -4.982,-0.994l0.009,-12.929c0,0 -1.472,-0.598 -2.908,-1.691c0,1.759 0,11.204 0,12.963c0.068,0.136 0.089,0.178 3.938,7.837c0.771,0.231 2.231,0.58 3.949,0.58c1.718,0 3.166,-0.349 3.937,-0.58c3.848,-7.659 3.87,-7.701 3.938,-7.837c0,-1.759 0,-11.204 0,-12.963c-1.436,1.093 -2.908,1.691 -2.908,1.691l0.009,12.929z"/>
     <path stroke="null" style="vector-effect: non-scaling-stroke;" id="svg_40" d="m48.379,18.345c0.865,1.722 1.89,3.761 3.104,6.177c1.214,-2.416 2.238,-4.455 3.104,-6.177c-0.838,0.189 -1.954,0.376 -3.104,0.376c-1.15,0 -2.266,-0.187 -3.104,-0.376z"/>
     <path stroke="null" style="vector-effect: non-scaling-stroke;" id="svg_41" d="m78.969,-24.577c-6.86,-8.169 -16.886,-12.855 -27.506,-12.855c-10.595,0 -20.606,4.67 -27.465,12.812l-0.595,0.705l-0.001,45.137l0.607,0.709c6.853,8.011 16.859,12.606 27.453,12.606c10.619,0 20.643,-4.65701 27.501,-12.778l0.597,-0.706l0.001,-44.925l-0.592,-0.705zm-4.464,43.761c-5.87299,6.556 -14.219,10.299 -23.044,10.299c-8.807,0 -17.139,-3.687 -23.006,-10.148l0.001,-41.384c5.874,-6.576 14.207,-10.329 23.007,-10.329c8.822,0 17.17,3.768 23.044,10.367l-0.00201,41.195z"/>
    </g>
   </g>
  </g>
  <g style="vector-effect: non-scaling-stroke;" stroke="null" id="svg_145">
   <g stroke="null" style="vector-effect: non-scaling-stroke;" transform="matrix(0.14 0 0 0.14 0 0)" id="svg_99" display="none">
    <path stroke="#000000" style="vector-effect: non-scaling-stroke;" id="svg_100" d="m177.55469,177.40816c0,-2.74998 2,-1.37498 2,-5s-6,-4.37498 -6,-6c0,-2.299 0,-3 0,-3s-7,-5.64 -7,-17c0,-10.062 -0.438,-14.562 3,-18c1.10001,0 2,-0.9 2,-2.00002c0,-1.09999 -0.89999,-1.99999 -2,-1.99999c0,0 -3,-0.362 -3,-4c0,-3.638 4,-12 4,-12l-8,-3l0,-2l1.60001,0l-1.20001,-3.6l3.60001,1.2l0,-7.2l-3.60001,1.2l1.20001,-3.6l-1.60001,0l-1,-3l-2,0l-1,3l-1.60001,0l1.20001,3.6l-3.60001,-1.2l0,7.2l3.60001,-1.2l-1.20001,3.6l1.60001,0l0,2l-8,3c0,0 4,8.362 4,12c0,3.638 -3,4 -3,4c-1.09999,0 -2,0.9 -2,1.99999c0,1.10001 0.90001,2.00002 2,2.00002c3.438,3.438 3,7.938 3,18c0,11.36 -7,17 -7,17s0,0.701 0,3c0,1.62502 -6,2.375 -6,6s2,2.25002 2,5c-1.64999,0 -3,1.35001 -3,3c0,1.65001 1.35001,3 3,3l34,0c1.64999,0 3,-1.34999 3,-3c0,-1.64999 -1.35001,-3 -3,-3z" stroke-miterlimit="10" stroke-width="2" fill="none"/>
    <line stroke="#000000" style="vector-effect: non-scaling-stroke;" id="svg_101" y2="120.40816" x2="166.55469" y1="120.40816" x1="154.55469" stroke-miterlimit="10" stroke-width="2" fill="none"/>
    <line stroke="#000000" style="vector-effect: non-scaling-stroke;" id="svg_102" y2="124.40816" x2="170.55469" y1="124.40816" x1="151.55469" stroke-miterlimit="10" stroke-width="2" fill="none"/>
    <line stroke="#000000" style="vector-effect: non-scaling-stroke;" id="svg_103" y2="128.40816" x2="169.55469" y1="128.40816" x1="151.55469" stroke-miterlimit="10" stroke-width="2" fill="none"/>
    <line stroke="#000000" style="vector-effect: non-scaling-stroke;" id="svg_104" y2="177.40816" x2="177.55469" y1="177.40816" x1="143.55469" stroke-miterlimit="10" stroke-width="2" fill="none"/>
    <line stroke="#000000" style="vector-effect: non-scaling-stroke;" id="svg_105" y2="166.40816" x2="173.55469" y1="166.40816" x1="147.55469" stroke-miterlimit="10" stroke-width="2" fill="none"/>
    <line stroke="#000000" style="vector-effect: non-scaling-stroke;" id="svg_106" y2="163.40816" x2="173.55469" y1="163.40816" x1="147.55469" stroke-miterlimit="10" stroke-width="2" fill="none"/>
    <line stroke="#000000" style="vector-effect: non-scaling-stroke;" id="svg_107" y2="91.40816" x2="162.55469" y1="91.40816" x1="158.55469" stroke-miterlimit="10" stroke-width="2" fill="none"/>
    <line stroke="#000000" style="vector-effect: non-scaling-stroke;" id="svg_108" y2="103.40816" x2="162.55469" y1="103.40816" x1="158.55469" stroke-miterlimit="10" stroke-width="2" fill="none"/>
    <line stroke="#000000" style="vector-effect: non-scaling-stroke;" id="svg_109" y2="109.40816" x2="169.55469" y1="109.40816" x1="151.55469" stroke-miterlimit="10" stroke-width="2" fill="none"/>
   </g>
   <g stroke="null" transform="matrix(1.00154 0 0 0.432736 -135.266 -43.5301)" id="svg_110">
    <path stroke="null" id="svg_111" d="m174.18886,189.81184c0.092,-0.19299 0.23399,-0.32001 0.43199,-0.495c0.75801,-0.67601 1.438,-1.46501 1.438,-3.66801c0,-2.77299 -2.54901,-4.12399 -4.41101,-5.10899c-0.55699,-0.295 -1.383,-0.73199 -1.58899,-0.98199l-0.002,-3.386l-0.369,-0.3c-0.06599,-0.054 -6.629,-5.515 -6.629,-16.22301c0,-1.08199 -0.005,-2.09898 -0.00999,-3.05699c-0.03801,-7.62801 -0.056,-11.23801 2.46899,-13.978c1.437,-0.222 2.541,-1.46701 2.541,-2.96503c0,-1.30199 -0.839,-2.39999 -2,-2.81398l0,-0.186l-0.92599,0c-0.313,-0.054 -2.07401,-0.468 -2.07401,-3c0,-2.79601 2.817,-9.299 3.90201,-11.56801l0.47099,-0.985l-8.373,-3.14l0,-0.307l1.98801,0l-1.007,-3.019l3.019,1.007l0,-9.976l-3.019,1.007l1.007,-3.019l-2.26701,0l-1,-3l-3.44099,0l-1,3l-2.267,0l1.007,3.019l-3.02,-1.007l0,9.976l3.019,-1.007l-1.007,3.019l1.98801,0l0,0.307l-8.373,3.14l0.47099,0.985c1.08501,2.269 3.90201,8.772 3.90201,11.56801c0,2.50899 -1.746,2.94099 -2.08301,3.00099c-1.616,0.04401 -2.91699,1.373 -2.91699,2.99899c0,1.49802 1.104,2.74303 2.541,2.96503c2.52501,2.73999 2.507,6.34999 2.46899,13.978c-0.00499,0.95801 -0.00999,1.97501 -0.00999,3.05699c0,10.70801 -6.563,16.16901 -6.627,16.22101l-0.373,0.3l0,3.388c-0.20601,0.25 -1.032,0.687 -1.589,0.98199c-1.862,0.985 -4.411,2.336 -4.411,5.10899c0,2.203 0.67999,2.992 1.438,3.66701c0.19699,0.175 0.339,0.302 0.43199,0.49501c-1.65799,0.489 -2.87,2.02499 -2.87,3.83798c0,2.20601 1.79401,4 4,4l34,0c2.20599,0 4,-1.79399 4,-4c0,-1.81299 -1.21201,-3.34898 -2.87,-3.83699zm-6.13,-11.16301l-24,0l0,-1l24,0l0,1zm-17.07899,-44l10.157,0c0.121,0.80499 0.383,1.46599 0.728,2l-11.61301,0c0.345,-0.53401 0.60701,-1.19501 0.72801,-2zm5.35799,-32.00001l0.33301,1l-1.22501,0l0.33301,-1l0.55899,0zm-5.27899,10.212l0,-4.424l4.181,1.394l-1.39301,-4.182l0.21201,0l0.72099,0l2.55901,0l0.72,0l0.21201,0l-1.39401,4.181l4.18201,-1.393l0,4.425l-4.181,-1.394l1.39301,4.181l-0.21201,0l-1,0l-2,0l-1,0l-0.21201,0l1.39401,-4.181l-4.18201,1.393zm4,6.481l0,-1.693l2,0l0,1.693l6.153,2.307l-14.306,0l6.153,-2.307zm-7.004,4.307l16.008,0c-1.07199,2.492 -2.582,6.35101 -2.92599,9.00001l-10.155,0c-0.345,-2.649 -1.85501,-6.50801 -2.927,-9.00001zm-1.996,15.99999c0,-0.55099 0.44901,-0.99998 1,-0.99998l18,0c0.55099,0 1,0.44899 1,0.99998s-0.44901,1.00002 -1,1.00002l-0.414,0l-17.172,0l-0.414,0c-0.55099,0 -1,-0.44899 -1,-1.00002zm5,20.00002c0,-1.07799 0.005,-2.092 0.00999,-3.047c0.03401,-6.864 0.04601,-10.85799 -1.931,-13.953l13.84201,0c-1.97701,3.09502 -1.96501,7.089 -1.931,13.953c0.00499,0.955 0.00999,1.96901 0.00999,3.047c0,8.15901 3.431,13.45201 5.61501,16l-21.23001,0c2.18401,-2.54799 5.61501,-7.84099 5.61501,-16zm-9.653,22.65901c0.987,-0.52299 1.869,-1 2.325,-1.65901l24.65601,0c0.455,0.65901 1.338,1.13602 2.325,1.65901c1.89601,1.004 3.347,1.88699 3.347,3.34099c0,1.48901 -0.33899,1.79201 -0.769,2.17401c-0.403,0.35899 -0.918,0.82899 -1.13,1.82599l-32.202,0c-0.21201,-0.99699 -0.72701,-1.46599 -1.13,-1.82599c-0.42999,-0.382 -0.769,-0.685 -0.769,-2.17401c0,-1.45399 1.451,-2.33699 3.347,-3.34099zm31.653,13.34099l-34,0c-1.103,0 -2,-0.89699 -2,-2s0.897,-2 2,-2l1,0l32,0l1,0c1.103,0 2,0.89702 2,2s-0.897,2 -2,2z"/>
   </g>
   <g stroke="null" style="vector-effect: non-scaling-stroke;" transform="matrix(0.14 0 0 0.14 0 0)" id="svg_112" opacity="0.2" display="none">
    <g stroke="null" style="vector-effect: non-scaling-stroke;" id="svg_113" display="inline">
     <g stroke="null" style="vector-effect: non-scaling-stroke;" id="svg_114">
      <path stroke="null" style="vector-effect: non-scaling-stroke;" id="svg_115" d="m163.0517,168.47816l-1.08801,0.38701c-0.082,-0.358 -0.38,-0.63301 -0.849,-0.63301c-0.57401,0 -0.842,0.41701 -0.842,0.84201l0,1.40799c0,0.50101 0.28,0.879 0.849,0.879c0.569,0 0.991,-0.32401 0.991,-0.32401l0.00099,-0.58398l-1.15599,0l0,-0.955l2.19,0c0,0 0,1.651 0,1.927c-0.36101,0.495 -1.21501,1.00099 -2.026,1.00099c-1.34801,0 -2.004,-0.842 -2.004,-2.026l0,-1.222c0,-1.073 0.65599,-2.019 2.004,-2.019c0.98399,0 1.67599,0.52901 1.93001,1.319z"/>
      <g stroke="null" style="vector-effect: non-scaling-stroke;" id="svg_116">
       <path stroke="null" style="vector-effect: non-scaling-stroke;" id="svg_117" d="m140.96269,172.38116l0,-5.19l3.668,0l0,1.02901l-2.52,0l0,1.05099l2.14799,0l0,0.992l-2.14799,0l0,1.089l2.52,0l0,1.02899l-3.668,0z"/>
       <path stroke="null" style="vector-effect: non-scaling-stroke;" id="svg_118" d="m185.96768,172.38116l0,-2.118l-1.7,0l0,2.118l-1.14799,0l0,-5.19l1.14799,0l0,2.08l1.7,0l0,-2.08l1.133,0l0,5.19l-1.133,0z"/>
      </g>
      <path stroke="null" style="vector-effect: non-scaling-stroke;" id="svg_119" d="m157.30469,168.09317c0,0 -0.776,-0.95201 -2.013,-0.95201s-2.013,0.95201 -2.013,0.95201s-0.00101,1.04999 -0.00101,1.078l0,0.63899l0,0.416l0,1.252c0,0 0.78601,0.95801 2.01401,0.95801l0,0c1.228,0 2.01401,-0.95801 2.01401,-0.95801l0,-1.252l0,-0.416l0,-0.63899c0.00099,-0.02802 -0.00101,-1.078 -0.00101,-1.078zm-1.14799,1.70799l0,0.24501l0,0.868c0,0 -0.259,0.433 -0.869,0.433l0,0c-0.61,0 -0.869,-0.433 -0.869,-0.433l0,-0.868l0,-0.24501l0,-0.37599c0,-0.01601 0.00101,-0.76501 0.00101,-0.76501s0.254,-0.42899 0.868,-0.42899c0.614,0 0.868,0.42899 0.868,0.42899s0.00101,0.74901 0.00101,0.76501l0,0.37599z"/>
      <path stroke="null" style="vector-effect: non-scaling-stroke;" id="svg_120" d="m137.03468,167.20117c1.155,0 1.966,0.992 1.966,0.992l0,0.95898c0,0 0,1.07201 0,1.10901c-0.002,0.66599 0,1.131 0,1.131s-0.714,0.993 -2.093,0.993l-1.936,0l0,-5.18399l2.063,0zm0.826,2.233l0,-0.13301c0,-0.00301 0,-0.006 0,-0.00899c0,-0.218 -0.00101,-0.60602 -0.00101,-0.60602s-0.151,-0.25398 -0.49998,-0.36699c-0.13802,-0.056 -0.30801,-0.084 -0.51201,-0.084l-0.73,0l0,3.121l0.752,0c0.246,0 0.436,-0.045 0.58,-0.129c0.284,-0.12401 0.40999,-0.33501 0.40999,-0.33501l0,-0.849l0,-0.239l0,-0.368c0.00101,0 0.00101,-0.00101 0.00101,-0.002z"/>
      <path stroke="null" style="vector-effect: non-scaling-stroke;" id="svg_121" d="m181.35469,168.85817l0,0c0,0.16 0,0.69099 0,0.69099s-0.843,0.93399 -1.819,0.93399l-0.99101,0l0,1.89401l-1.14798,0l0,-5.189l2.13899,0c0.976,0 1.819,0.93399 1.819,0.93399s0,0.722 0,0.73601zm-1.16301,-0.28999c0,0 -0.332,-0.35101 -0.716,-0.35101l-0.931,0l0,1.23801l0.93201,0c0.384,0 0.716,-0.35101 0.716,-0.35101s0,-0.254 0,-0.26799s-0.00101,-0.26799 -0.00101,-0.26799z"/>
      <path stroke="null" style="vector-effect: non-scaling-stroke;" id="svg_122" d="m169.10168,172.38716l-0.99399,-2.213l-0.00401,-0.00101c0.558,-0.27699 0.94901,-0.71098 0.94901,-0.71098l0,-0.429l0,-0.215l0,0l0,-0.302l0,-0.38701c0,0 -0.845,-0.937 -1.82401,-0.937l-2.145,0l0,2.37l-0.00299,-0.00099l0,2.825l1.151,0l0,-1.987l0.00299,0l0.754,0l0.81201,1.987l1.30099,0l0,0.00099zm-2.867,-4.16299l0.93401,0c0.38499,0 0.718,0.35201 0.718,0.35201s0,0.048 0,0.12c0,0.05699 0,0.09399 0,0.10001c0,0.00598 0,0.05099 0,0.10399c0,0.076 0,0.11601 0,0.11601s-0.33301,0.35199 -0.718,0.35199l-0.93401,0l0,-1.144z"/>
      <path stroke="null" style="vector-effect: non-scaling-stroke;" id="svg_123" d="m150.2197,172.38116l0,-2.47l-0.022,-0.008l-0.47,1.052l-0.308,0.64301c0,0 -0.21701,0.099 -0.496,0.099c-0.278,0 -0.46201,-0.08601 -0.46201,-0.08601l-0.33,-0.69398l-0.45499,-1.01501l-0.022,0.022l0,2.455l-1.149,0l0,-5.19299l1.037,0l0.70099,1.507l0.67101,1.55899l0.03,0l0.649,-1.55899l0.686,-1.507l1.08199,0l0,5.19299l-1.14198,0l0,0.002z"/>
      <path stroke="null" style="vector-effect: non-scaling-stroke;" id="svg_124" d="m174.46368,172.38116l-0.392,-1.065c0,0 -0.38901,0.153 -0.888,0.153c-0.49899,0 -0.867,-0.153 -0.867,-0.153l-0.392,1.065l-1.22,0l2.034,-5.17c0,0 0.19701,-0.052 0.44901,-0.052c0.252,0 0.46201,0.052 0.46201,0.052l2.03299,5.17l-1.21899,0zm-0.94901,-2.64099l-0.30899,-1.035l-0.03,0l-0.30099,1.01999l-0.18501,0.58101c0,0 0.16901,0.112 0.494,0.112c0.325,0 0.51601,-0.11 0.51601,-0.11l-0.18501,-0.56799z"/>
     </g>
     <g stroke="null" style="vector-effect: non-scaling-stroke;" id="svg_125">
      <path stroke="null" style="vector-effect: non-scaling-stroke;" id="svg_126" d="m146.04768,178.80617c0.59401,0 1.10201,0.217 1.354,0.737c0.14301,0.291 0.15401,0.69099 0.15401,1.18199c0,0.55402 -0.01201,0.95901 -0.14301,1.267c-0.263,0.60001 -0.82201,0.78801 -1.46201,0.78801l-1.20499,0l0,-3.97499l1.30199,0l0,0.00099zm1.005,1.62199c0,-0.87399 -0.422,-1.15999 -1.028,-1.15999l-0.77701,0l0,3.05l0.77701,0c0.754,0 1.028,-0.44501 1.028,-1.13101l0,-0.759z"/>
      <path stroke="null" style="vector-effect: non-scaling-stroke;" id="svg_127" d="m149.97969,180.49117c-0.114,-0.07401 -0.25101,-0.108 -0.40001,-0.108c-0.37099,0 -0.64499,0.23399 -0.64499,0.68501l0,1.71298l-0.46901,0l0,-2.83299l0.46901,0l0,0.36l0.02299,0c0.2,-0.291 0.44,-0.38901 0.743,-0.38901c0.194,0 0.371,0.04601 0.48001,0.12001l-0.201,0.452z"/>
      <path stroke="null" style="vector-effect: non-scaling-stroke;" id="svg_128" d="m152.94069,180.83417l0,1.94699l-0.474,0l0,-0.246l-0.006,-0.00598c-0.103,0.166 -0.40001,0.28598 -0.783,0.28598c-0.645,0 -1.005,-0.35399 -1.005,-0.83899c0,-0.44 0.29701,-0.834 0.90201,-0.834l0.89099,0l0,-0.31999c0,-0.30801 -0.194,-0.46201 -0.651,-0.46201c-0.35399,0 -0.54799,0.097 -0.674,0.246l-0.297,-0.314c0.211,-0.246 0.565,-0.371 0.953,-0.371c0.61299,-0.00101 1.144,0.19299 1.144,0.91299zm-1.205,1.55299c0.36501,0 0.731,-0.103 0.731,-0.52499l0,-0.33101l-0.77701,0c-0.36499,0 -0.571,0.15401 -0.571,0.41701c0,0.26799 0.2,0.439 0.617,0.439z"/>
      <path stroke="null" style="vector-effect: non-scaling-stroke;" id="svg_129" d="m156.44168,182.10716c0.063,-0.22301 0.12601,-0.46899 0.18301,-0.68599l0.411,-1.47301l0.519,0l-0.908,2.832l-0.44499,0l-0.42201,-1.36501l-0.24599,-0.78799l-0.229,0.78299l-0.422,1.37001l-0.451,0l-0.90201,-2.832l0.51401,0l0.429,1.49001l0.183,0.634l0.02299,0c0.05701,-0.20502 0.12601,-0.41701 0.18301,-0.61601l0.46899,-1.508l0.43399,0l0.457,1.49001l0.194,0.668l0.026,0l0,0.00099z"/>
      <path stroke="null" style="vector-effect: non-scaling-stroke;" id="svg_130" d="m160.12369,179.94817l0,0.314l0.017,0.00601c0.21701,-0.25101 0.491,-0.34901 0.771,-0.34901c0.811,0 1.011,0.72002 1.011,1.422c0,0.73102 -0.211,1.474 -1.10201,1.474c-0.28,0 -0.51999,-0.09198 -0.685,-0.28598l-0.01099,0l0,1.38199l-0.46901,0l0,-3.963l0.468,0zm0.64,2.399c0.588,0 0.668,-0.52 0.668,-0.97701c0,-0.44 -0.045,-0.98799 -0.64,-0.98799c-0.577,0 -0.668,0.571 -0.668,0.98799c0,0.429 0.069,0.97701 0.64,0.97701z"/>
      <path stroke="null" style="vector-effect: non-scaling-stroke;" id="svg_131" d="m163.17969,181.52516l0,0.04601c0,0.44501 0.246,0.811 0.731,0.811c0.183,0 0.45099,-0.09702 0.64,-0.26901l0.302,0.33701c-0.26801,0.257 -0.617,0.36499 -0.96501,0.36499c-0.577,0 -1.19899,-0.26799 -1.19899,-1.439c0,-1.12 0.64499,-1.46199 1.18201,-1.46199c0.62299,0 1.131,0.45599 1.131,1.245l0,0.36501l-1.82201,0l0,0.00099zm0,-0.394l1.33099,0c-0.02299,-0.50801 -0.28,-0.771 -0.66299,-0.771c-0.383,0 -0.64,0.27901 -0.668,0.771z"/>
      <path stroke="null" style="vector-effect: non-scaling-stroke;" id="svg_132" d="m167.92268,180.40016c0.131,0.20601 0.194,0.502 0.194,0.86801c0,0.48499 -0.04601,0.80499 -0.177,1.028c-0.19499,0.33099 -0.571,0.51999 -1.017,0.51999c-0.405,0 -0.743,-0.14299 -0.937,-0.42799c-0.155,-0.235 -0.211,-0.56001 -0.211,-1.011c0,-0.32001 0.034,-0.588 0.14301,-0.811c0.189,-0.405 0.577,-0.64 1.06799,-0.64c0.405,-0.00099 0.742,0.17101 0.937,0.474zm-1.577,0.34801c-0.08,0.17099 -0.097,0.383 -0.103,0.634c0,0.25099 0.01199,0.45099 0.086,0.617c0.10899,0.24599 0.31999,0.38899 0.599,0.38899c0.30299,0 0.56,-0.15501 0.668,-0.50301c0.03999,-0.13699 0.04601,-0.297 0.04601,-0.599c0,-0.217 -0.017,-0.38899 -0.07401,-0.52501c-0.10901,-0.27998 -0.33099,-0.411 -0.60001,-0.411c-0.27899,-0.002 -0.50699,0.14601 -0.62199,0.39801z"/>
      <path stroke="null" style="vector-effect: non-scaling-stroke;" id="svg_133" d="m169.47369,179.94817l0,0.314l0.017,0.00601c0.217,-0.25101 0.491,-0.34901 0.771,-0.34901c0.811,0 1.011,0.72002 1.011,1.422c0,0.73102 -0.211,1.474 -1.10201,1.474c-0.28,0 -0.51999,-0.09198 -0.685,-0.28598l-0.011,0l0,1.38199l-0.46899,0l0,-3.963l0.468,0zm0.63998,2.399c0.58801,0 0.66801,-0.52 0.66801,-0.97701c0,-0.44 -0.045,-0.98799 -0.63901,-0.98799c-0.577,0 -0.668,0.571 -0.668,0.98799c-0.00099,0.429 0.06801,0.97701 0.63899,0.97701z"/>
      <path stroke="null" style="vector-effect: non-scaling-stroke;" id="svg_134" d="m172.86469,182.78116c-0.411,0 -0.69699,-0.17099 -0.69699,-0.657l0,-3.489l0.46899,0l0,3.44901c0,0.17099 0.097,0.269 0.291,0.269l0.13699,0l0,0.42799l-0.2,0z"/>
      <path stroke="null" style="vector-effect: non-scaling-stroke;" id="svg_135" d="m174.14468,181.52516l0,0.04601c0,0.44501 0.246,0.811 0.731,0.811c0.183,0 0.451,-0.09702 0.64,-0.26901l0.302,0.33701c-0.26801,0.257 -0.617,0.36499 -0.96501,0.36499c-0.577,0 -1.19899,-0.26799 -1.19899,-1.439c0,-1.12 0.645,-1.46199 1.18201,-1.46199c0.62299,0 1.131,0.45599 1.131,1.245l0,0.36501l-1.82201,0l0,0.00099zm0,-0.394l1.33099,0c-0.02298,-0.50801 -0.28,-0.771 -0.66299,-0.771c-0.383,0 -0.63899,0.27901 -0.668,0.771z"/>
      <path stroke="null" style="vector-effect: non-scaling-stroke;" id="svg_136" d="m176.73769,182.78116l0,-0.634l0.58801,0l0,0.634l-0.58801,0z"/>
     </g>
     <g stroke="null" style="vector-effect: non-scaling-stroke;" id="svg_137">
      <path stroke="null" style="vector-effect: non-scaling-stroke;" id="svg_138" d="m164.14369,104.51615c0,-0.985 0,-4.141 0,-5.14201c-1.89301,-0.42899 -3.10501,-0.38899 -3.10501,-0.38899s-1.21199,-0.039 -3.105,0.38899c0,1.00101 0,4.15701 0,5.14201c1.569,-0.39101 3.105,-0.376 3.105,-0.376s1.53601,-0.01501 3.10501,0.376z"/>
      <path stroke="null" style="vector-effect: non-scaling-stroke;" id="svg_139" d="m156.06769,112.91415c0.328,-0.146 1.317,-0.465 1.317,-0.465l0.00099,23.65401c0,0 1.72601,0.504 3.00101,0.504l0,-14.94101l1.30499,0l0,14.94101c1.27501,0 3.00101,-0.504 3.00101,-0.504l0.00101,-23.65401c0,0 0.98898,0.319 1.317,0.465l0,6.508c0,0 1.38998,0.521 2.89299,1.666c0,-1.131 -0.002,-12.994 -0.002,-12.994s-3.13,-2.677 -7.86101,-2.678l0,0c0,0 0,0 -0.00099,0l-0.00101,0l0,0c-4.73099,0.001 -7.86099,2.678 -7.86099,2.678s-0.00301,11.863 -0.00301,12.994c1.50301,-1.145 2.89301,-1.666 2.89301,-1.666l0,-6.508z"/>
      <path stroke="null" style="vector-effect: non-scaling-stroke;" id="svg_140" d="m166.01869,136.91016c0,0 -2.15501,0.994 -4.98201,0.994c-2.82799,0 -4.98199,-0.994 -4.98199,-0.994l0.009,-12.929c0,0 -1.472,-0.59801 -2.908,-1.69101c0,1.759 0,11.20403 0,12.96303c0.06801,0.13599 0.089,0.17799 3.938,7.83699c0.771,0.231 2.231,0.58 3.94901,0.58c1.71799,0 3.166,-0.349 3.937,-0.58c3.84799,-7.659 3.87,-7.701 3.938,-7.83699c0,-1.759 0,-11.20403 0,-12.96303c-1.436,1.093 -2.908,1.69101 -2.908,1.69101l0.009,12.929z"/>
      <path stroke="null" style="vector-effect: non-scaling-stroke;" id="svg_141" d="m157.93369,144.75316c0.86501,1.722 1.89,3.761 3.104,6.177c1.21399,-2.416 2.23799,-4.455 3.104,-6.177c-0.83801,0.18901 -1.95401,0.37601 -3.104,0.37601c-1.15001,0 -2.26601,-0.187 -3.104,-0.37601z"/>
      <path stroke="null" style="vector-effect: non-scaling-stroke;" id="svg_142" d="m188.52368,101.83115c-6.85999,-8.169 -16.886,-12.855 -27.506,-12.855c-10.595,0 -20.606,4.67 -27.465,12.812l-0.595,0.705l-0.00101,45.13702l0.60701,0.70898c6.853,8.011 16.85899,12.60602 27.453,12.60602c10.61899,0 20.64301,-4.65701 27.50099,-12.77802l0.597,-0.70599l0.00101,-44.92502l-0.59201,-0.705zm-4.46399,43.76102c-5.873,6.556 -14.21901,10.29901 -23.04401,10.29901c-8.80699,0 -17.13901,-3.68701 -23.006,-10.14801l0.00099,-41.38402c5.87401,-6.576 14.207,-10.32899 23.007,-10.32899c8.82201,0 17.17,3.768 23.04401,10.367l-0.002,41.19501z"/>
     </g>
    </g>
   </g>
  </g>
 </g>
</svg>