<svg width="42" height="42" xmlns="http://www.w3.org/2000/svg">

 <g>
  <title>background</title>
  <rect fill="none" id="canvas_background" height="44" width="44" y="-1" x="-1"/>
 </g>
 <g>
  <title>Layer 1</title>
  <g id="svg_1" display="none">
   <path id="svg_2" d="m61.7,77c0,0 0,0.701 0,3c0,1.625 5.4,2.375 5.4,6s-1.8,2.25 -1.8,5c1.485,0 2.7,1.35 2.7,3c0,1.65 -1.215,3 -2.7,3l-30.6,0c-1.485,0 -2.7,-1.35 -2.7,-3c0,-1.65 1.215,-3 2.7,-3c0,-2.75 -1.8,-1.375 -1.8,-5s5.4,-4.375 5.4,-6c0,-2.299 0,-3 0,-3" stroke-miterlimit="10" stroke-width="2" stroke="#000000" fill="none"/>
   <line id="svg_3" y2="80" x2="61.7" y1="80" x1="38.3" stroke-miterlimit="10" stroke-width="2" stroke="#000000" fill="none"/>
   <path id="svg_4" d="m38.3,77l23.4,0c0,0 5.3,-0.301 5.3,-7s-13,-20 -13,-20s2.264,-2 6,-2s1,3 1,3l3,0l3,-2l-5,-3l1.5,-1.5l6.5,2.5l-2,-5l-3,-3c0,0 -3.518,-0.208 -5,-1s-5.56,-1.033 -7,-3s-2.037,-0.381 -4,-1s-2.036,-0.337 -4,-1s-2,-3 -2,-3l-1,-1c0,0 0.357,3.966 -2,6s-9.295,5.962 -6,14s7,11.349 7,17s-8,9 -8,9l0,2l5.3,0z" stroke-miterlimit="10" stroke-width="2" stroke="#000000" fill="none"/>
   <line id="svg_5" y2="91" x2="65.3" y1="91" x1="34.7" stroke-miterlimit="10" stroke-width="2" stroke="#000000" fill="none"/>
   <path id="svg_6" d="m45,40l-3,3l-1,-4c0,0 -4,2.754 -4,6c0,5.537 8,12.805 8,20c0,5.581 -4,9 -4,9l21,0" stroke-miterlimit="10" stroke-width="2" stroke="#000000" fill="none"/>
   <path id="svg_7" d="m54,50l-4,1c0,0 -2.357,0.997 -6,-4" stroke-miterlimit="10" stroke-width="2" stroke="#000000" fill="none"/>
   <polyline id="svg_8" points="49,39 51,37 53,39  " stroke-miterlimit="10" stroke-width="2" stroke="#000000" fill="none"/>
  </g>
  <g stroke="null" id="svg_9">
   <g stroke="null" id="svg_10">
    <path stroke="null" id="svg_11" d="m36.3243,37.43028c0.0862,-0.13384 0.22574,-0.21273 0.41863,-0.32145c0.69772,-0.39332 1.32361,-0.85152 1.32361,-2.12209c0,-1.60311 -2.363,-2.39502 -4.0878,-2.97303c-0.53765,-0.1806 -1.34927,-0.45236 -1.45289,-0.5336l0,-1.27173c1.78842,-0.26709 5.43808,-1.2203 5.43808,-4.57264c0,-3.5528 -9.78853,-9.77121 -12.78666,-11.59291c0.92242,-0.29748 2.50973,-0.68028 4.57825,-0.68028c0.61358,0 0.88754,0.05143 0.98912,0.07948c-0.03591,0.14844 -0.3663,0.47223 -0.72131,0.69548l-1.56678,0.97836l5.71306,0l4.68598,-1.77903l-5.39396,-1.84332l0.13852,-0.0789l8.24125,1.80533l-3.00325,-4.27692l-3.50295,-1.99527l-0.38888,-0.01286c-1.30822,-0.04441 -3.74303,-0.22325 -4.7065,-0.51664c-0.62076,-0.18878 -1.47546,-0.31443 -2.46355,-0.45937c-1.60885,-0.23553 -3.61068,-0.5295 -4.37508,-1.12387c-1.17073,-0.91172 -2.19575,-0.88893 -3.23309,-0.78256c-0.44531,0.04734 -0.82905,0.08708 -1.3903,-0.01403c-1.03426,-0.18585 -1.61398,-0.24371 -2.12495,-0.29514c-0.53047,-0.05318 -0.98809,-0.09877 -1.95976,-0.28521c-1.29077,-0.24838 -1.35234,-1.17297 -1.35439,-1.20862l-0.00616,-0.2367l-3.30697,-1.88306l0.23907,1.59493c0.00308,0.02045 0.28114,2.0391 -1.70017,3.01277c-0.28217,0.13851 -0.63102,0.2928 -1.0199,0.46521c-3.03404,1.34304 -8.68143,3.84268 -5.4155,8.38142c1.29488,1.79948 2.63798,3.18752 3.82307,4.41134c1.90538,1.97013 3.28234,3.39325 3.28234,5.3026c0,2.87134 -7.50352,4.70297 -7.57945,4.72109l-0.62897,0.15078l0,2.14138l5.44423,0l0.01129,1.11569c-0.12108,0.13442 -0.93268,0.40618 -1.47034,0.5862c-1.72479,0.57858 -4.08779,1.3705 -4.08779,2.97361c0,1.27057 0.62589,1.72877 1.32361,2.12209c0.1929,0.10872 0.33244,0.18761 0.41863,0.32145c-1.54318,0.2969 -2.66568,1.18524 -2.66568,2.23197c0,1.28926 1.70325,2.33775 3.79639,2.33775l31.39721,0c2.09417,0 3.79639,-1.04848 3.79639,-2.33775c0,-1.04673 -1.1225,-1.93507 -2.66569,-2.23197zm-33.24614,-8.2879l0,-0.20923c2.03466,-0.56107 8.20842,-2.52009 8.20842,-5.63514c0,-2.20976 -1.56063,-3.82339 -3.53783,-5.86659c-1.15739,-1.19692 -2.47073,-2.55341 -3.72047,-4.29094c-2.67492,-3.71702 1.80893,-5.70177 4.77525,-7.015c0.42068,-0.18585 0.79621,-0.353 1.10198,-0.50262c1.13379,-0.55755 1.74634,-1.3068 2.07263,-2.00696c0.40427,0.38573 1.04452,0.75392 2.05929,0.94912c1.1184,0.21507 1.69914,0.27352 2.26039,0.32962c0.49148,0.04909 0.95731,0.09585 1.86331,0.25832c1.04452,0.18702 1.81509,0.10754 2.37634,0.04909c0.61973,-0.0637 0.69874,-0.07305 1.20869,0.32319c1.1974,0.93159 3.59324,1.28284 5.51811,1.56512c0.82494,0.12098 1.60475,0.23553 2.00798,0.35826c1.4098,0.42898 4.11139,0.58911 5.16001,0.63645l2.65851,1.51427l1.10096,1.56747l-5.09743,-1.11686l-2.93964,1.67441l4.86657,1.66331l-1.4724,0.55931l-0.93575,0c0.2011,-0.31384 0.276,-0.66392 0.02155,-0.99238c-0.3899,-0.50495 -1.35952,-0.76093 -2.8791,-0.76093c-3.56348,0 -5.93161,0.91406 -6.61906,1.2168l-3.89079,0.55405l-0.10055,0.01754c-0.01745,0.00291 -1.88896,0.28111 -4.97841,-2.13261l-1.6581,0.68846c2.87192,2.24366 5.18566,2.62471 6.42513,2.62471c0.40734,0 0.69977,-0.0415 0.85573,-0.07131l3.48037,-0.4956c3.87027,2.30093 12.64199,8.12602 12.64199,11.04003c0,3.23487 -4.01905,3.48967 -4.41203,3.50663l-28.42165,0zm27.3956,1.16828l0,0.58502l-21.95752,0l0,-0.58444l21.95752,-0.00059zm-24.4221,2.71062c0.87317,-0.29222 1.70222,-0.57626 2.14035,-0.95672l22.60598,0c0.43813,0.38046 1.26718,0.66391 2.14034,0.95672c1.80073,0.60314 3.07611,1.09758 3.07611,1.96546c0,0.88894 -0.31602,1.06659 -0.71516,1.29161c-0.45044,0.25365 -0.86496,0.53185 -1.04144,1.04615l-29.52568,0c-0.17648,-0.5143 -0.59203,-0.7925 -1.04144,-1.04615c-0.39913,-0.22501 -0.71516,-0.40267 -0.71516,-1.29161c0,-0.86788 1.27538,-1.36232 3.0761,-1.96546zm29.14194,7.80983l-31.39721,0c-0.945,0 -1.74429,-0.53535 -1.74429,-1.16887s0.79929,-1.16888 1.74429,-1.16888l1.02605,0l29.3451,0l1.02606,0c0.94499,0 1.74429,0.53534 1.74429,1.16888s-0.7993,1.16887 -1.74429,1.16887z"/>
    <path stroke="null" id="svg_12" d="m31.80762,27.38906l-19.24669,0c1.27538,-0.9649 2.82985,-2.57211 2.82985,-4.6755c0,-2.39912 -2.46971,-4.78655 -4.64802,-6.89344c-1.83048,-1.77026 -3.5604,-3.44234 -3.5604,-4.79531c0,-0.92283 1.33695,-1.86085 2.47586,-2.46983l1.07223,2.44412l4.3597,-2.48327l-1.45084,-0.8264l-1.79662,1.02335l-0.945,-2.15365l-1.21895,0.47749c-0.18571,0.07306 -4.54849,1.80884 -4.54849,3.9882c0,1.67149 1.86742,3.47741 3.84462,5.38852c2.14547,2.07475 4.3638,4.21963 4.3638,6.30024c0,2.93913 -3.70918,4.79823 -3.7451,4.81576l-2.11264,1.02862l24.32668,0l0,-1.16888z"/>
    <polygon stroke="null" id="svg_13" points="20.521048778032537,7.1757121086120605 21.84773161327439,7.931388854980469 23.29857068688989,7.10499382019043 20.521048778032537,5.522922992706299 17.743519159163952,7.10499382019043 19.194362087785066,7.931388854980469 "/>
   </g>
  </g>
  <g id="svg_14" opacity="0.2" display="none">
   <g id="svg_15" display="inline">
    <g id="svg_16">
     <path id="svg_17" d="m52.497,82.07l-1.088,0.387c-0.082,-0.358 -0.38,-0.633 -0.849,-0.633c-0.574,0 -0.842,0.417 -0.842,0.842l0,1.408c0,0.501 0.28,0.87901 0.849,0.87901c0.569,0 0.991,-0.32401 0.991,-0.32401l0.001,-0.584l-1.156,0l0,-0.955l2.19,0c0,0 0,1.651 0,1.927c-0.361,0.495 -1.215,1.001 -2.026,1.001c-1.348,0 -2.004,-0.842 -2.004,-2.026l0,-1.222c0,-1.073 0.656,-2.019 2.004,-2.019c0.984,0 1.676,0.529 1.93,1.319z"/>
     <g id="svg_18">
      <path id="svg_19" d="m30.408,85.973l0,-5.19l3.668,0l0,1.029l-2.52,0l0,1.051l2.148,0l0,0.992l-2.148,0l0,1.089l2.52,0l0,1.029l-3.668,0z"/>
      <path id="svg_20" d="m75.413,85.973l0,-2.118l-1.7,0l0,2.118l-1.14799,0l0,-5.19l1.14799,0l0,2.08l1.7,0l0,-2.08l1.133,0l0,5.19l-1.133,0z"/>
     </g>
     <path id="svg_21" d="m46.75,81.685c0,0 -0.776,-0.952 -2.013,-0.952s-2.013,0.952 -2.013,0.952s-0.001,1.05 -0.001,1.078l0,0.639l0,0.416l0,1.252c0,0 0.786,0.958 2.014,0.958l0,0c1.228,0 2.014,-0.958 2.014,-0.958l0,-1.252l0,-0.416l0,-0.639c0.001,-0.028 -0.001,-1.078 -0.001,-1.078zm-1.148,1.708l0,0.245l0,0.868c0,0 -0.259,0.43301 -0.869,0.43301l0,0c-0.61,0 -0.869,-0.43301 -0.869,-0.43301l0,-0.868l0,-0.245l0,-0.376c0,-0.016 0.001,-0.765 0.001,-0.765s0.254,-0.429 0.868,-0.429c0.614,0 0.868,0.429 0.868,0.429s0.001,0.749 0.001,0.765l0,0.376z"/>
     <path id="svg_22" d="m26.48,80.793c1.155,0 1.966,0.992 1.966,0.992l0,0.959c0,0 0,1.072 0,1.10899c-0.002,0.666 0,1.131 0,1.131s-0.714,0.993 -2.093,0.993l-1.936,0l0,-5.184l2.063,0zm0.826,2.233l0,-0.133c0,-0.003 0,-0.006 0,-0.009c0,-0.218 -0.001,-0.606 -0.001,-0.606s-0.151,-0.254 -0.5,-0.367c-0.138,-0.056 -0.308,-0.084 -0.512,-0.084l-0.73,0l0,3.12099l0.752,0c0.246,0 0.436,-0.045 0.58,-0.129c0.284,-0.124 0.41,-0.335 0.41,-0.335l0,-0.849l0,-0.239l0,-0.368c0.001,0 0.001,-0.001 0.001,-0.002z"/>
     <path id="svg_23" d="m70.8,82.45l0,0c0,0.16 0,0.691 0,0.691s-0.843,0.934 -1.819,0.934l-0.991,0l0,1.894l-1.14799,0l0,-5.189l2.139,0c0.976,0 1.819,0.934 1.819,0.934s0,0.722 0,0.736zm-1.163,-0.28999c0,0 -0.332,-0.35101 -0.716,-0.35101l-0.931,0l0,1.238l0.932,0c0.384,0 0.716,-0.351 0.716,-0.351s0,-0.254 0,-0.268s-0.001,-0.268 -0.001,-0.268z"/>
     <path id="svg_24" d="m58.547,85.979l-0.994,-2.213l-0.004,-0.001c0.558,-0.277 0.949,-0.711 0.949,-0.711l0,-0.429l0,-0.215l0,0l0,-0.302l0,-0.387c0,0 -0.845,-0.937 -1.824,-0.937l-2.145,0l0,2.37l-0.003,-0.001l0,2.825l1.151,0l0,-1.987l0.003,0l0.754,0l0.812,1.987l1.301,0l0,0.001zm-2.867,-4.16299l0.934,0c0.385,0 0.718,0.352 0.718,0.352s0,0.048 0,0.12c0,0.057 0,0.094 0,0.1c0,0.006 0,0.051 0,0.104c0,0.076 0,0.116 0,0.116s-0.333,0.352 -0.718,0.352l-0.934,0l0,-1.144z"/>
     <path id="svg_25" d="m39.665,85.973l0,-2.47l-0.022,-0.008l-0.47,1.05199l-0.308,0.64301c0,0 -0.217,0.099 -0.496,0.099c-0.278,0 -0.462,-0.086 -0.462,-0.086l-0.33,-0.694l-0.455,-1.015l-0.022,0.022l0,2.455l-1.149,0l0,-5.193l1.037,0l0.701,1.507l0.671,1.559l0.03,0l0.649,-1.559l0.686,-1.507l1.082,0l0,5.193l-1.142,0l0,0.002z"/>
     <path id="svg_26" d="m63.909,85.973l-0.392,-1.065c0,0 -0.389,0.153 -0.888,0.153c-0.499,0 -0.867,-0.153 -0.867,-0.153l-0.392,1.065l-1.22,0l2.034,-5.17c0,0 0.197,-0.052 0.449,-0.052c0.252,0 0.462,0.052 0.462,0.052l2.033,5.17l-1.219,0zm-0.949,-2.641l-0.309,-1.035l-0.03,0l-0.301,1.02l-0.185,0.581c0,0 0.169,0.112 0.494,0.112c0.325,0 0.516,-0.11 0.516,-0.11l-0.185,-0.568z"/>
    </g>
    <g id="svg_27">
     <path id="svg_28" d="m35.493,92.398c0.594,0 1.102,0.217 1.354,0.737c0.143,0.291 0.154,0.69099 0.154,1.182c0,0.554 -0.012,0.959 -0.143,1.267c-0.263,0.6 -0.822,0.788 -1.462,0.788l-1.205,0l0,-3.975l1.302,0l0,0.001zm1.005,1.62199c0,-0.87399 -0.422,-1.16 -1.028,-1.16l-0.777,0l0,3.05l0.777,0c0.754,0 1.028,-0.44501 1.028,-1.131l0,-0.759z"/>
     <path id="svg_29" d="m39.425,94.083c-0.114,-0.074 -0.251,-0.108 -0.4,-0.108c-0.371,0 -0.645,0.234 -0.645,0.68501l0,1.713l-0.469,0l0,-2.833l0.469,0l0,0.36l0.023,0c0.2,-0.291 0.44,-0.389 0.743,-0.389c0.194,0 0.371,0.046 0.48,0.12l-0.201,0.452z"/>
     <path id="svg_30" d="m42.386,94.426l0,1.947l-0.474,0l0,-0.246l-0.006,-0.006c-0.103,0.166 -0.4,0.286 -0.783,0.286c-0.645,0 -1.005,-0.354 -1.005,-0.839c0,-0.44 0.297,-0.834 0.902,-0.834l0.891,0l0,-0.32c0,-0.308 -0.194,-0.462 -0.651,-0.462c-0.354,0 -0.548,0.097 -0.674,0.24599l-0.297,-0.314c0.211,-0.246 0.565,-0.371 0.953,-0.371c0.613,-0.001 1.144,0.193 1.144,0.913zm-1.205,1.55299c0.365,0 0.731,-0.103 0.731,-0.52499l0,-0.331l-0.777,0c-0.365,0 -0.571,0.154 -0.571,0.417c0,0.268 0.2,0.439 0.617,0.439z"/>
     <path id="svg_31" d="m45.887,95.699c0.063,-0.223 0.126,-0.46899 0.183,-0.686l0.411,-1.473l0.519,0l-0.908,2.832l-0.445,0l-0.422,-1.365l-0.246,-0.788l-0.229,0.783l-0.422,1.37l-0.451,0l-0.902,-2.832l0.514,0l0.429,1.49l0.183,0.634l0.023,0c0.057,-0.205 0.126,-0.417 0.183,-0.616l0.469,-1.508l0.434,0l0.457,1.49l0.194,0.668l0.026,0l0,0.001z"/>
     <path id="svg_32" d="m49.569,93.54l0,0.314l0.017,0.006c0.217,-0.251 0.491,-0.349 0.771,-0.349c0.811,0 1.011,0.72 1.011,1.422c0,0.731 -0.211,1.474 -1.102,1.474c-0.28,0 -0.52,-0.092 -0.685,-0.286l-0.011,0l0,1.382l-0.469,0l0,-3.963l0.468,0zm0.64,2.399c0.588,0 0.668,-0.52 0.668,-0.97701c0,-0.43999 -0.045,-0.988 -0.64,-0.988c-0.577,0 -0.668,0.571 -0.668,0.988c0,0.429 0.069,0.97701 0.64,0.97701z"/>
     <path id="svg_33" d="m52.625,95.117l0,0.04601c0,0.445 0.246,0.811 0.731,0.811c0.183,0 0.451,-0.097 0.64,-0.269l0.302,0.337c-0.268,0.257 -0.617,0.365 -0.965,0.365c-0.577,0 -1.199,-0.268 -1.199,-1.439c0,-1.12 0.645,-1.46201 1.182,-1.46201c0.623,0 1.131,0.456 1.131,1.245l0,0.365l-1.822,0l0,0.001zm0,-0.394l1.331,0c-0.023,-0.508 -0.28,-0.771 -0.663,-0.771c-0.383,0 -0.64,0.279 -0.668,0.771z"/>
     <path id="svg_34" d="m57.368,93.992c0.131,0.206 0.194,0.50201 0.194,0.868c0,0.485 -0.046,0.805 -0.177,1.028c-0.195,0.331 -0.571,0.52 -1.017,0.52c-0.405,0 -0.743,-0.143 -0.937,-0.42799c-0.155,-0.235 -0.211,-0.56001 -0.211,-1.011c0,-0.32 0.034,-0.58801 0.143,-0.811c0.189,-0.405 0.577,-0.64 1.068,-0.64c0.405,-0.001 0.742,0.17101 0.937,0.474zm-1.577,0.348c-0.08,0.17101 -0.097,0.383 -0.103,0.634c0,0.251 0.012,0.451 0.086,0.617c0.109,0.24599 0.32,0.389 0.599,0.389c0.303,0 0.56,-0.15501 0.668,-0.50301c0.04,-0.137 0.046,-0.297 0.046,-0.599c0,-0.217 -0.017,-0.389 -0.074,-0.525c-0.109,-0.28 -0.331,-0.411 -0.6,-0.411c-0.279,-0.002 -0.507,0.146 -0.622,0.39799z"/>
     <path id="svg_35" d="m58.919,93.54l0,0.314l0.017,0.006c0.217,-0.251 0.491,-0.349 0.771,-0.349c0.811,0 1.011,0.72 1.011,1.422c0,0.731 -0.211,1.474 -1.102,1.474c-0.28,0 -0.52,-0.092 -0.685,-0.286l-0.011,0l0,1.382l-0.469,0l0,-3.963l0.468,0zm0.64,2.399c0.588,0 0.668,-0.52 0.668,-0.97701c0,-0.43999 -0.045,-0.988 -0.639,-0.988c-0.577,0 -0.668,0.571 -0.668,0.988c-0.001,0.429 0.068,0.97701 0.639,0.97701z"/>
     <path id="svg_36" d="m62.31,96.373c-0.411,0 -0.697,-0.171 -0.697,-0.657l0,-3.48901l0.469,0l0,3.44901c0,0.171 0.097,0.269 0.291,0.269l0.137,0l0,0.428l-0.2,0z"/>
     <path id="svg_37" d="m63.59,95.117l0,0.04601c0,0.445 0.246,0.811 0.731,0.811c0.183,0 0.451,-0.097 0.64,-0.269l0.302,0.337c-0.268,0.257 -0.617,0.365 -0.965,0.365c-0.577,0 -1.199,-0.268 -1.199,-1.439c0,-1.12 0.645,-1.46201 1.182,-1.46201c0.623,0 1.131,0.456 1.131,1.245l0,0.365l-1.822,0l0,0.001zm0,-0.394l1.331,0c-0.02299,-0.508 -0.28,-0.771 -0.66299,-0.771c-0.383,0 -0.639,0.279 -0.668,0.771z"/>
     <path id="svg_38" d="m66.183,96.373l0,-0.634l0.58801,0l0,0.634l-0.58801,0z"/>
    </g>
    <g id="svg_39">
     <path id="svg_40" d="m53.589,18.108c0,-0.985 0,-4.141 0,-5.142c-1.893,-0.429 -3.105,-0.389 -3.105,-0.389s-1.212,-0.039 -3.105,0.389c0,1.001 0,4.157 0,5.142c1.569,-0.391 3.105,-0.376 3.105,-0.376s1.536,-0.015 3.105,0.376z"/>
     <path id="svg_41" d="m45.513,26.506c0.328,-0.146 1.317,-0.465 1.317,-0.465l0.001,23.654c0,0 1.726,0.504 3.001,0.504l0,-14.941l1.305,0l0,14.941c1.275,0 3.001,-0.504 3.001,-0.504l0.001,-23.654c0,0 0.989,0.319 1.317,0.465l0,6.508c0,0 1.39,0.521 2.893,1.666c0,-1.131 -0.002,-12.994 -0.002,-12.994s-3.13,-2.677 -7.861,-2.678l0,0c0,0 0,0 -0.001,0l-0.001,0l0,0c-4.731,0.001 -7.861,2.678 -7.861,2.678s-0.003,11.863 -0.003,12.994c1.503,-1.145 2.893,-1.666 2.893,-1.666l0,-6.508z"/>
     <path id="svg_42" d="m55.464,50.502c0,0 -2.155,0.994 -4.982,0.994c-2.828,0 -4.982,-0.994 -4.982,-0.994l0.009,-12.929c0,0 -1.472,-0.598 -2.908,-1.691c0,1.759 0,11.204 0,12.963c0.068,0.136 0.089,0.178 3.938,7.837c0.771,0.231 2.231,0.58 3.949,0.58c1.718,0 3.166,-0.349 3.937,-0.58c3.848,-7.659 3.87,-7.701 3.938,-7.837c0,-1.759 0,-11.204 0,-12.963c-1.436,1.093 -2.908,1.691 -2.908,1.691l0.009,12.929z"/>
     <path id="svg_43" d="m47.379,58.345c0.865,1.722 1.89,3.761 3.104,6.177c1.214,-2.416 2.238,-4.455 3.104,-6.177c-0.838,0.189 -1.954,0.376 -3.104,0.376c-1.15,0 -2.266,-0.187 -3.104,-0.376z"/>
     <path id="svg_44" d="m77.969,15.423c-6.86,-8.169 -16.886,-12.855 -27.506,-12.855c-10.595,0 -20.606,4.67 -27.465,12.812l-0.595,0.705l-0.001,45.137l0.607,0.709c6.853,8.011 16.859,12.606 27.453,12.606c10.619,0 20.643,-4.65701 27.501,-12.778l0.597,-0.706l0.001,-44.925l-0.592,-0.705zm-4.464,43.761c-5.87299,6.556 -14.219,10.299 -23.044,10.299c-8.807,0 -17.139,-3.687 -23.006,-10.148l0.001,-41.384c5.874,-6.576 14.207,-10.329 23.007,-10.329c8.822,0 17.17,3.768 23.044,10.367l-0.00201,41.195z"/>
    </g>
   </g>
  </g>
 </g>
</svg>