<svg width="42" height="42" xmlns="http://www.w3.org/2000/svg" stroke="null" style="vector-effect: non-scaling-stroke;">

 <g stroke="null">
  <title stroke="null">background</title>
  <rect transform="matrix(1 0 0 1 0 0) matrix(1 0 0 1 0 0) matrix(1 0 0 1 0 0) matrix(1 0 0 1 0 0) matrix(1 0 0 1 0 0) matrix(1 0 0 1 0 0) matrix(1 0 0 1 0 0) matrix(1 0 0 1 0 0) matrix(1 0 0 1 0 0)" stroke="null" fill="none" id="canvas_background" height="44" width="44" y="-1" x="-1"/>
 </g>
 <g stroke="null">
  <title stroke="null">Layer 1</title>
  <g id="svg_422">
   <g transform="matrix(0.559982 0 0 0.559982 0 0)" id="svg_379" display="none">
    <line id="svg_380" y2="36.52349" x2="63.5012" y1="36.52349" x1="45.5012" stroke-miterlimit="10" stroke-width="2" stroke="#000000" fill="none"/>
    <line id="svg_381" y2="33.52349" x2="62.5012" y1="33.52349" x1="46.5012" stroke-miterlimit="10" stroke-width="2" stroke="#000000" fill="none"/>
    <line id="svg_382" y2="45.52349" x2="66.5012" y1="45.52349" x1="42.5012" stroke-miterlimit="10" stroke-width="2" stroke="#000000" fill="none"/>
    <path id="svg_383" d="m61.50121,19.52349c0,0 -2,1.143 -2,6c0,5.578 4,8 4,8s0,1.209 0,3c0,2.031 5,2.175 5,5s-2,1.857 -2,4c1.403,0 3,1.377 3,2.662c0,1.286 -1.147,2.338 -2.55,2.338l-24.9,0c-1.403,0 -2.55,-1.052 -2.55,-2.338c0,-1.285 1.597,-2.662 3,-2.662c0,-2.143 -2,-1.175 -2,-4s5,-2.938 5,-5c0,-1.791 0,-3 0,-3s4,-2.422 4,-8c0,-4.857 -2,-6 -2,-6l0,-2l14,0l0,2z" stroke-miterlimit="10" stroke-width="2" stroke="#000000" fill="none"/>
    <path id="svg_384" d="m49.50121,17.52349l1,-3c0,-1.563 0,-1 0,-1" stroke-miterlimit="10" stroke-width="2" stroke="#000000" fill="none"/>
    <polyline id="svg_385" points="59.50120544433594,17.523494452238083 58.50120544433594,14.523494452238083 58.50120544433594,13.523494452238083 " stroke-miterlimit="10" stroke-width="2" stroke="#000000" fill="none"/>
    <circle id="svg_386" r="7" cy="7.52349" cx="54.5012" stroke-miterlimit="10" stroke-width="2" stroke="#000000" fill="none"/>
   </g>
   <g transform="matrix(1.30829 0 0 0.806101 0.311847 -18.5617)" id="svg_387">
    <path id="svg_388" d="m29.08863,68.39117c0.049,-0.039 0.104,-0.081 0.168,-0.128c0.59901,-0.44701 1.505,-1.123 1.505,-3.134c0,-2.14201 -1.939,-3.12701 -3.354,-3.84601c-0.656,-0.333 -1.646,-0.836 -1.646,-1.154l0,-3.563l-0.482,-0.292c-0.036,-0.022 -3.518,-2.188 -3.518,-7.145c0,-3.95301 1.414,-5.067 1.519,-5.145l0.481,-0.275l0,-3.58l-2.28,0l-0.72,-2.162l0,-0.603c1.826,-1.468 3,-3.715 3,-6.235c0,-4.411 -3.589,-8 -8,-8s-8,3.589 -8,8c0,2.52 1.174,4.768 3,6.235l0,0.603l-0.72,2.162l-2.28,0l0,3l0.03,0.554l0.445,0.297c0.015,0.01 1.525,1.065 1.525,5.149c0,4.911 -3.378,7.058 -3.518,7.145l-0.482,0.292l0,3.563c0,0.335 -0.958,0.819 -1.657,1.173c-1.411,0.71301 -3.343,1.689 -3.343,3.82701c0,2.011 0.906,2.687 1.505,3.134c0.063,0.047 0.119,0.089 0.168,0.128c-1.464,0.572 -2.673,1.997 -2.673,3.4c0,1.84 1.593,3.338 3.55,3.338l24.9,0c1.957,0 3.55,-1.498 3.55,-3.338c0,-1.403 -1.209,-2.828 -2.673,-3.4zm-19.327,-37.26201c0,-3.309 2.691,-6 6,-6s6,2.691 6,6s-2.691,6 -6,6s-6,-2.691 -6,-6zm2.926,7.384c0.947,0.396 1.985,0.616 3.074,0.616s2.127,-0.22 3.074,-0.616l0.539,1.616l-7.226,0l0.539,-1.616zm-2.926,4.144l0,-0.528l12,0l0,0.528c-0.741,0.717 -2,2.517 -2,6.472c0,3.287 1.259,5.572 2.444,7l-12.888,0c1.185,-1.428 2.444,-3.713 2.444,-7c0,-3.95601 -1.259,-5.755 -2,-6.472zm14,15.472l0,1l-16,0l0,-1l16,0zm-18.756,4.958c0.979,-0.494 2.054,-1.041 2.519,-1.958l16.477,0c0.465,0.902 1.52999,1.445 2.499,1.937c1.365,0.693 2.261,1.21201 2.261,2.06301c0,1.008 -0.249,1.194 -0.701,1.532c-0.382,0.285 -0.905,0.68 -1.155,1.468l-22.288,0c-0.249,-0.788 -0.773,-1.184 -1.155,-1.468c-0.452,-0.338 -0.701,-0.52399 -0.701,-1.532c0,-0.845 0.889,-1.35701 2.244,-2.04201zm23.206,10.04201l-24.9,0c-0.84,0 -1.55,-0.613 -1.55,-1.338c0,-0.65601 1.072,-1.662 2,-1.662l1,0l22,0l1,0c0.928,0 2,1.006 2,1.662c0,0.725 -0.71,1.338 -1.55,1.338z"/>
   </g>
   <g transform="matrix(0.559982 0 0 0.559982 0 0)" id="svg_389" opacity="0.2" display="none">
    <g id="svg_390" display="inline">
     <g id="svg_391">
      <path id="svg_392" d="m56.99821,35.59349l-1.088,0.387c-0.082,-0.358 -0.38,-0.633 -0.849,-0.633c-0.574,0 -0.842,0.417 -0.842,0.842l0,1.408c0,0.501 0.28,0.87901 0.849,0.87901c0.569,0 0.991,-0.32401 0.991,-0.32401l0.001,-0.584l-1.156,0l0,-0.955l2.19,0c0,0 0,1.651 0,1.927c-0.361,0.495 -1.215,1.001 -2.026,1.001c-1.348,0 -2.004,-0.842 -2.004,-2.026l0,-1.222c0,-1.073 0.656,-2.019 2.004,-2.019c0.984,0 1.676,0.529 1.93,1.319z"/>
      <g id="svg_393">
       <path id="svg_394" d="m34.90921,39.49649l0,-5.19l3.668,0l0,1.029l-2.52,0l0,1.051l2.148,0l0,0.992l-2.148,0l0,1.089l2.52,0l0,1.029l-3.668,0z"/>
       <path id="svg_395" d="m79.91421,39.49649l0,-2.118l-1.7,0l0,2.118l-1.14799,0l0,-5.19l1.14799,0l0,2.08l1.7,0l0,-2.08l1.133,0l0,5.19l-1.133,0z"/>
      </g>
      <path id="svg_396" d="m51.25121,35.20849c0,0 -0.776,-0.952 -2.013,-0.952s-2.013,0.952 -2.013,0.952s-0.001,1.05 -0.001,1.078l0,0.639l0,0.416l0,1.252c0,0 0.786,0.958 2.014,0.958l0,0c1.228,0 2.014,-0.958 2.014,-0.958l0,-1.252l0,-0.416l0,-0.639c0.001,-0.028 -0.001,-1.078 -0.001,-1.078zm-1.148,1.708l0,0.245l0,0.868c0,0 -0.259,0.43301 -0.869,0.43301l0,0c-0.61,0 -0.869,-0.43301 -0.869,-0.43301l0,-0.868l0,-0.245l0,-0.376c0,-0.016 0.001,-0.765 0.001,-0.765s0.254,-0.429 0.868,-0.429c0.614,0 0.868,0.429 0.868,0.429s0.001,0.749 0.001,0.765l0,0.376z"/>
      <path id="svg_397" d="m30.9812,34.31649c1.155,0 1.966,0.992 1.966,0.992l0,0.959c0,0 0,1.072 0,1.10899c-0.002,0.666 0,1.131 0,1.131s-0.714,0.993 -2.093,0.993l-1.936,0l0,-5.184l2.063,0zm0.826,2.233l0,-0.133c0,-0.003 0,-0.006 0,-0.009c0,-0.218 -0.001,-0.606 -0.001,-0.606s-0.151,-0.254 -0.5,-0.367c-0.138,-0.056 -0.308,-0.084 -0.512,-0.084l-0.73,0l0,3.12099l0.752,0c0.246,0 0.436,-0.045 0.58,-0.129c0.284,-0.124 0.41,-0.335 0.41,-0.335l0,-0.849l0,-0.239l0,-0.368c0.001,0 0.001,-0.001 0.001,-0.002z"/>
      <path id="svg_398" d="m75.30121,35.97349l0,0c0,0.16 0,0.691 0,0.691s-0.843,0.934 -1.819,0.934l-0.991,0l0,1.894l-1.14799,0l0,-5.189l2.139,0c0.976,0 1.819,0.934 1.819,0.934s0,0.722 0,0.736zm-1.163,-0.28999c0,0 -0.332,-0.35101 -0.716,-0.35101l-0.931,0l0,1.238l0.932,0c0.384,0 0.716,-0.351 0.716,-0.351s0,-0.254 0,-0.268s-0.001,-0.268 -0.001,-0.268z"/>
      <path id="svg_399" d="m63.04821,39.50249l-0.994,-2.213l-0.004,-0.001c0.558,-0.277 0.949,-0.711 0.949,-0.711l0,-0.429l0,-0.215l0,0l0,-0.302l0,-0.387c0,0 -0.845,-0.937 -1.824,-0.937l-2.145,0l0,2.37l-0.003,-0.001l0,2.825l1.151,0l0,-1.987l0.003,0l0.754,0l0.812,1.987l1.301,0l0,0.001zm-2.867,-4.16299l0.934,0c0.385,0 0.718,0.352 0.718,0.352s0,0.048 0,0.12c0,0.057 0,0.094 0,0.1c0,0.006 0,0.051 0,0.104c0,0.076 0,0.116 0,0.116s-0.333,0.352 -0.718,0.352l-0.934,0l0,-1.144z"/>
      <path id="svg_400" d="m44.16621,39.49649l0,-2.47l-0.022,-0.008l-0.47,1.05199l-0.308,0.64301c0,0 -0.217,0.099 -0.496,0.099c-0.278,0 -0.462,-0.086 -0.462,-0.086l-0.33,-0.694l-0.455,-1.015l-0.022,0.022l0,2.455l-1.149,0l0,-5.193l1.037,0l0.701,1.507l0.671,1.559l0.03,0l0.649,-1.559l0.686,-1.507l1.082,0l0,5.193l-1.142,0l0,0.002z"/>
      <path id="svg_401" d="m68.4102,39.49649l-0.392,-1.065c0,0 -0.389,0.153 -0.888,0.153c-0.499,0 -0.867,-0.153 -0.867,-0.153l-0.39201,1.065l-1.21999,0l2.034,-5.17c0,0 0.197,-0.052 0.449,-0.052c0.252,0 0.46201,0.052 0.46201,0.052l2.033,5.17l-1.219,0zm-0.949,-2.641l-0.309,-1.035l-0.03001,0l-0.30099,1.02l-0.18501,0.581c0,0 0.16901,0.112 0.494,0.112c0.325,0 0.516,-0.11 0.516,-0.11l-0.185,-0.568z"/>
     </g>
     <g id="svg_402">
      <path id="svg_403" d="m39.99421,45.9215c0.594,0 1.102,0.217 1.354,0.737c0.143,0.291 0.154,0.69099 0.154,1.182c0,0.554 -0.012,0.959 -0.143,1.267c-0.263,0.6 -0.822,0.788 -1.462,0.788l-1.205,0l0,-3.975l1.302,0l0,0.001zm1.005,1.62199c0,-0.87399 -0.422,-1.16 -1.028,-1.16l-0.777,0l0,3.05l0.777,0c0.754,0 1.028,-0.44501 1.028,-1.131l0,-0.759z"/>
      <path id="svg_404" d="m43.9262,47.60649c-0.114,-0.074 -0.251,-0.108 -0.4,-0.108c-0.371,0 -0.645,0.234 -0.645,0.68501l0,1.713l-0.469,0l0,-2.833l0.469,0l0,0.36l0.023,0c0.2,-0.291 0.44,-0.389 0.743,-0.389c0.194,0 0.371,0.046 0.48,0.12l-0.201,0.452z"/>
      <path id="svg_405" d="m46.88721,47.9495l0,1.947l-0.474,0l0,-0.246l-0.006,-0.006c-0.103,0.166 -0.4,0.286 -0.783,0.286c-0.645,0 -1.005,-0.354 -1.005,-0.839c0,-0.44 0.297,-0.834 0.902,-0.834l0.891,0l0,-0.32c0,-0.308 -0.194,-0.462 -0.651,-0.462c-0.354,0 -0.548,0.097 -0.674,0.24599l-0.297,-0.314c0.211,-0.246 0.565,-0.371 0.953,-0.371c0.613,-0.001 1.144,0.193 1.144,0.913zm-1.205,1.55299c0.365,0 0.731,-0.103 0.731,-0.52499l0,-0.331l-0.777,0c-0.365,0 -0.571,0.154 -0.571,0.417c0,0.268 0.2,0.439 0.617,0.439z"/>
      <path id="svg_406" d="m50.38821,49.22249c0.063,-0.223 0.126,-0.46899 0.183,-0.686l0.411,-1.473l0.519,0l-0.908,2.832l-0.445,0l-0.422,-1.365l-0.246,-0.788l-0.229,0.783l-0.422,1.37l-0.451,0l-0.902,-2.832l0.514,0l0.429,1.49l0.183,0.634l0.023,0c0.057,-0.205 0.126,-0.417 0.183,-0.616l0.469,-1.508l0.434,0l0.457,1.49l0.194,0.668l0.026,0l0,0.001z"/>
      <path id="svg_407" d="m54.07021,47.0635l0,0.314l0.017,0.006c0.217,-0.251 0.491,-0.349 0.771,-0.349c0.811,0 1.011,0.72 1.011,1.422c0,0.731 -0.211,1.474 -1.102,1.474c-0.28,0 -0.52,-0.092 -0.685,-0.286l-0.011,0l0,1.382l-0.469,0l0,-3.963l0.468,0zm0.64,2.399c0.588,0 0.668,-0.52 0.668,-0.97701c0,-0.43999 -0.045,-0.988 -0.64,-0.988c-0.577,0 -0.668,0.571 -0.668,0.988c0,0.429 0.069,0.97701 0.64,0.97701z"/>
      <path id="svg_408" d="m57.12621,48.64049l0,0.04601c0,0.445 0.246,0.811 0.731,0.811c0.183,0 0.451,-0.097 0.64,-0.269l0.302,0.337c-0.268,0.257 -0.617,0.365 -0.965,0.365c-0.577,0 -1.199,-0.268 -1.199,-1.439c0,-1.12 0.645,-1.46201 1.182,-1.46201c0.623,0 1.131,0.456 1.131,1.245l0,0.365l-1.822,0l0,0.001zm0,-0.394l1.331,0c-0.023,-0.508 -0.28,-0.771 -0.663,-0.771c-0.383,0 -0.64,0.279 -0.668,0.771z"/>
      <path id="svg_409" d="m61.86921,47.51549c0.131,0.206 0.194,0.50201 0.194,0.868c0,0.485 -0.046,0.805 -0.177,1.028c-0.195,0.331 -0.571,0.52 -1.017,0.52c-0.405,0 -0.743,-0.143 -0.937,-0.42799c-0.155,-0.235 -0.211,-0.56001 -0.211,-1.011c0,-0.32 0.034,-0.58801 0.143,-0.811c0.189,-0.405 0.577,-0.64 1.068,-0.64c0.405,-0.001 0.742,0.17101 0.937,0.474zm-1.577,0.348c-0.08,0.17101 -0.097,0.383 -0.103,0.634c0,0.251 0.012,0.451 0.086,0.617c0.109,0.24599 0.32,0.389 0.599,0.389c0.303,0 0.56,-0.15501 0.668,-0.50301c0.04,-0.137 0.046,-0.297 0.046,-0.599c0,-0.217 -0.017,-0.389 -0.074,-0.525c-0.109,-0.28 -0.331,-0.411 -0.6,-0.411c-0.279,-0.002 -0.507,0.146 -0.622,0.39799z"/>
      <path id="svg_410" d="m63.4202,47.0635l0,0.314l0.017,0.006c0.217,-0.251 0.491,-0.349 0.771,-0.349c0.811,0 1.01099,0.72 1.01099,1.422c0,0.731 -0.211,1.474 -1.102,1.474c-0.28,0 -0.52,-0.092 -0.685,-0.286l-0.011,0l0,1.382l-0.469,0l0,-3.963l0.468,0zm0.64,2.399c0.588,0 0.668,-0.52 0.668,-0.97701c0,-0.43999 -0.045,-0.988 -0.639,-0.988c-0.577,0 -0.668,0.571 -0.668,0.988c-0.001,0.429 0.068,0.97701 0.639,0.97701z"/>
      <path id="svg_411" d="m66.8112,49.8965c-0.411,0 -0.697,-0.171 -0.697,-0.657l0,-3.48901l0.469,0l0,3.44901c0,0.171 0.097,0.269 0.291,0.269l0.13699,0l0,0.428l-0.2,0z"/>
      <path id="svg_412" d="m68.0912,48.64049l0,0.04601c0,0.445 0.246,0.811 0.731,0.811c0.183,0 0.451,-0.097 0.64,-0.269l0.302,0.337c-0.268,0.257 -0.617,0.365 -0.965,0.365c-0.577,0 -1.199,-0.268 -1.199,-1.439c0,-1.12 0.645,-1.46201 1.182,-1.46201c0.623,0 1.131,0.456 1.131,1.245l0,0.365l-1.82201,0l0,0.001zm0,-0.394l1.331,0c-0.02299,-0.508 -0.28,-0.771 -0.66299,-0.771c-0.383,0 -0.63901,0.279 -0.66801,0.771z"/>
      <path id="svg_413" d="m70.6842,49.8965l0,-0.634l0.58801,0l0,0.634l-0.58801,0z"/>
     </g>
     <g id="svg_414">
      <path id="svg_415" d="m58.09021,-28.36851c0,-0.985 0,-4.141 0,-5.142c-1.893,-0.429 -3.105,-0.389 -3.105,-0.389s-1.212,-0.039 -3.105,0.389c0,1.001 0,4.157 0,5.142c1.569,-0.391 3.105,-0.376 3.105,-0.376s1.536,-0.015 3.105,0.376z"/>
      <path id="svg_416" d="m50.01421,-19.9705c0.328,-0.146 1.317,-0.465 1.317,-0.465l0.001,23.654c0,0 1.726,0.504 3.001,0.504l0,-14.941l1.305,0l0,14.941c1.275,0 3.001,-0.504 3.001,-0.504l0.001,-23.654c0,0 0.989,0.319 1.317,0.465l0,6.508c0,0 1.39,0.521 2.893,1.666c0,-1.131 -0.002,-12.994 -0.002,-12.994s-3.13,-2.677 -7.861,-2.678l0,0c0,0 0,0 -0.001,0l-0.001,0l0,0c-4.731,0.001 -7.861,2.678 -7.861,2.678s-0.003,11.863 -0.003,12.994c1.503,-1.145 2.893,-1.666 2.893,-1.666l0,-6.508z"/>
      <path id="svg_417" d="m59.96521,4.02549c0,0 -2.155,0.994 -4.982,0.994c-2.828,0 -4.982,-0.994 -4.982,-0.994l0.009,-12.929c0,0 -1.472,-0.598 -2.908,-1.691c0,1.759 0,11.204 0,12.963c0.068,0.136 0.089,0.178 3.938,7.837c0.771,0.231 2.231,0.58 3.949,0.58c1.718,0 3.166,-0.349 3.937,-0.58c3.848,-7.659 3.87,-7.701 3.938,-7.837c0,-1.759 0,-11.204 0,-12.963c-1.436,1.093 -2.908,1.691 -2.908,1.691l0.009,12.929z"/>
      <path id="svg_418" d="m51.88021,11.8685c0.865,1.722 1.89,3.761 3.104,6.177c1.214,-2.416 2.238,-4.455 3.104,-6.177c-0.838,0.189 -1.954,0.376 -3.104,0.376c-1.15,0 -2.266,-0.187 -3.104,-0.376z"/>
      <path id="svg_419" d="m82.47021,-31.0535c-6.86,-8.169 -16.886,-12.855 -27.506,-12.855c-10.595,0 -20.606,4.67 -27.465,12.812l-0.595,0.705l-0.001,45.137l0.607,0.709c6.853,8.011 16.859,12.606 27.453,12.606c10.619,0 20.643,-4.65701 27.501,-12.778l0.597,-0.706l0.001,-44.925l-0.592,-0.705zm-4.464,43.761c-5.87299,6.556 -14.219,10.299 -23.044,10.299c-8.807,0 -17.139,-3.687 -23.006,-10.148l0.001,-41.384c5.874,-6.576 14.207,-10.329 23.007,-10.329c8.822,0 17.17,3.768 23.044,10.367l-0.00201,41.195z"/>
     </g>
    </g>
   </g>
  </g>
 </g>
</svg>