<svg width="42" height="42" xmlns="http://www.w3.org/2000/svg" stroke="null" style="vector-effect: non-scaling-stroke;">

 <g stroke="null">
  <title stroke="null">background</title>
  <rect stroke="null" fill="none" id="canvas_background" height="44" width="44" y="-1" x="-1"/>
 </g>
 <g stroke="null">
  <title stroke="null">Layer 1</title>
  <g stroke="null" id="svg_1" display="none">
   <line stroke="#000000" id="svg_2" y2="43" x2="62" y1="43" x1="40" stroke-miterlimit="10" stroke-width="2" fill="none"/>
   <line stroke="#000000" id="svg_3" y2="40" x2="61" y1="40" x1="41" stroke-miterlimit="10" stroke-width="2" fill="none"/>
   <line stroke="#000000" id="svg_4" y2="52" x2="65" y1="52" x1="37" stroke-miterlimit="10" stroke-width="2" fill="none"/>
   <path stroke="#000000" id="svg_5" d="m41,2l0,8l3,3c0,0 1,1.714 1,12s-5,15 -5,15s0,1.209 0,3c0,2.062 -5,2.175 -5,5s2,1.857 2,4c-1.403,0 -3,1.377 -3,2.662c0,1.286 1.147,2.338 2.55,2.338l28.9,0c1.403,0 2.55,-1.052 2.55,-2.338c0,-1.285 -1.597,-2.662 -3,-2.662c0,-2.143 2,-1.175 2,-4s-5,-2.969 -5,-5c0,-1.791 0,-3 0,-3s-5,-4.714 -5,-15s1,-12 1,-12l3,-3l0,-8l-4,0l0,6l-4,0l0,-6l-4,0l0,6l-4,0l0,-6l-4,0z" stroke-miterlimit="10" stroke-width="2" fill="none"/>
   <line stroke="#000000" id="svg_6" y2="4" x2="49" y1="4" x1="45" stroke-miterlimit="10" stroke-width="2" fill="none"/>
   <line stroke="#000000" id="svg_7" y2="4" x2="57" y1="4" x1="53" stroke-miterlimit="10" stroke-width="2" fill="none"/>
   <line stroke="#000000" id="svg_8" y2="13" x2="58" y1="13" x1="44" stroke-miterlimit="10" stroke-width="2" fill="none"/>
  </g>
  <g stroke="null" id="svg_11" opacity="0.2" display="none">
   <g stroke="null" style="vector-effect: non-scaling-stroke;" id="svg_12" display="inline">
    <g stroke="null" style="vector-effect: non-scaling-stroke;" id="svg_13">
     <path stroke="null" style="vector-effect: non-scaling-stroke;" id="svg_14" d="m53.497,42.07l-1.088,0.387c-0.082,-0.358 -0.38,-0.633 -0.849,-0.633c-0.574,0 -0.842,0.417 -0.842,0.842l0,1.408c0,0.501 0.28,0.87901 0.849,0.87901c0.569,0 0.991,-0.32401 0.991,-0.32401l0.001,-0.584l-1.156,0l0,-0.955l2.19,0c0,0 0,1.651 0,1.927c-0.361,0.495 -1.215,1.001 -2.026,1.001c-1.348,0 -2.004,-0.842 -2.004,-2.026l0,-1.222c0,-1.073 0.656,-2.019 2.004,-2.019c0.984,0 1.676,0.529 1.93,1.319z"/>
     <g stroke="null" style="vector-effect: non-scaling-stroke;" id="svg_15">
      <path stroke="null" style="vector-effect: non-scaling-stroke;" id="svg_16" d="m31.408,45.973l0,-5.19l3.668,0l0,1.029l-2.52,0l0,1.051l2.148,0l0,0.992l-2.148,0l0,1.089l2.52,0l0,1.029l-3.668,0z"/>
      <path stroke="null" style="vector-effect: non-scaling-stroke;" id="svg_17" d="m76.413,45.973l0,-2.118l-1.7,0l0,2.118l-1.14799,0l0,-5.19l1.14799,0l0,2.08l1.7,0l0,-2.08l1.133,0l0,5.19l-1.133,0z"/>
     </g>
     <path stroke="null" style="vector-effect: non-scaling-stroke;" id="svg_18" d="m47.75,41.685c0,0 -0.776,-0.952 -2.013,-0.952s-2.013,0.952 -2.013,0.952s-0.001,1.05 -0.001,1.078l0,0.639l0,0.416l0,1.252c0,0 0.786,0.958 2.014,0.958l0,0c1.228,0 2.014,-0.958 2.014,-0.958l0,-1.252l0,-0.416l0,-0.639c0.001,-0.028 -0.001,-1.078 -0.001,-1.078zm-1.148,1.708l0,0.245l0,0.868c0,0 -0.259,0.43301 -0.869,0.43301l0,0c-0.61,0 -0.869,-0.43301 -0.869,-0.43301l0,-0.868l0,-0.245l0,-0.376c0,-0.016 0.001,-0.765 0.001,-0.765s0.254,-0.429 0.868,-0.429c0.614,0 0.868,0.429 0.868,0.429s0.001,0.749 0.001,0.765l0,0.376z"/>
     <path stroke="null" style="vector-effect: non-scaling-stroke;" id="svg_19" d="m27.48,40.793c1.155,0 1.966,0.992 1.966,0.992l0,0.959c0,0 0,1.072 0,1.10899c-0.002,0.666 0,1.131 0,1.131s-0.714,0.993 -2.093,0.993l-1.936,0l0,-5.184l2.063,0zm0.826,2.233l0,-0.133c0,-0.003 0,-0.006 0,-0.009c0,-0.218 -0.001,-0.606 -0.001,-0.606s-0.151,-0.254 -0.5,-0.367c-0.138,-0.056 -0.308,-0.084 -0.512,-0.084l-0.73,0l0,3.12099l0.752,0c0.246,0 0.436,-0.045 0.58,-0.129c0.284,-0.124 0.41,-0.335 0.41,-0.335l0,-0.849l0,-0.239l0,-0.368c0.001,0 0.001,-0.001 0.001,-0.002z"/>
     <path stroke="null" style="vector-effect: non-scaling-stroke;" id="svg_20" d="m71.8,42.45l0,0c0,0.16 0,0.691 0,0.691s-0.843,0.934 -1.819,0.934l-0.991,0l0,1.894l-1.14799,0l0,-5.189l2.139,0c0.976,0 1.819,0.934 1.819,0.934s0,0.722 0,0.736zm-1.163,-0.28999c0,0 -0.332,-0.35101 -0.716,-0.35101l-0.931,0l0,1.238l0.932,0c0.384,0 0.716,-0.351 0.716,-0.351s0,-0.254 0,-0.268s-0.001,-0.268 -0.001,-0.268z"/>
     <path stroke="null" style="vector-effect: non-scaling-stroke;" id="svg_21" d="m59.547,45.979l-0.994,-2.213l-0.004,-0.001c0.558,-0.277 0.949,-0.711 0.949,-0.711l0,-0.429l0,-0.215l0,0l0,-0.302l0,-0.387c0,0 -0.845,-0.937 -1.824,-0.937l-2.145,0l0,2.37l-0.003,-0.001l0,2.825l1.151,0l0,-1.987l0.003,0l0.754,0l0.812,1.987l1.301,0l0,0.001zm-2.867,-4.16299l0.934,0c0.385,0 0.718,0.352 0.718,0.352s0,0.048 0,0.12c0,0.057 0,0.094 0,0.1c0,0.006 0,0.051 0,0.104c0,0.076 0,0.116 0,0.116s-0.333,0.352 -0.718,0.352l-0.934,0l0,-1.144z"/>
     <path stroke="null" style="vector-effect: non-scaling-stroke;" id="svg_22" d="m40.665,45.973l0,-2.47l-0.022,-0.008l-0.47,1.05199l-0.308,0.64301c0,0 -0.217,0.099 -0.496,0.099c-0.278,0 -0.462,-0.086 -0.462,-0.086l-0.33,-0.694l-0.455,-1.015l-0.022,0.022l0,2.455l-1.149,0l0,-5.193l1.037,0l0.701,1.507l0.671,1.559l0.03,0l0.649,-1.559l0.686,-1.507l1.082,0l0,5.193l-1.142,0l0,0.002z"/>
     <path stroke="null" style="vector-effect: non-scaling-stroke;" id="svg_23" d="m64.909,45.973l-0.39201,-1.065c0,0 -0.389,0.153 -0.888,0.153c-0.499,0 -0.867,-0.153 -0.867,-0.153l-0.392,1.065l-1.22,0l2.034,-5.17c0,0 0.197,-0.052 0.449,-0.052c0.252,0 0.462,0.052 0.462,0.052l2.033,5.17l-1.21899,0zm-0.94901,-2.641l-0.309,-1.035l-0.03,0l-0.301,1.02l-0.185,0.581c0,0 0.169,0.112 0.494,0.112c0.325,0 0.516,-0.11 0.516,-0.11l-0.185,-0.568z"/>
    </g>
    <g stroke="null" style="vector-effect: non-scaling-stroke;" id="svg_24">
     <path stroke="null" style="vector-effect: non-scaling-stroke;" id="svg_25" d="m36.493,52.398c0.594,0 1.102,0.217 1.354,0.737c0.143,0.291 0.154,0.69099 0.154,1.182c0,0.554 -0.012,0.959 -0.143,1.267c-0.263,0.6 -0.822,0.788 -1.462,0.788l-1.205,0l0,-3.975l1.302,0l0,0.001zm1.005,1.62199c0,-0.87399 -0.422,-1.16 -1.028,-1.16l-0.777,0l0,3.05l0.777,0c0.754,0 1.028,-0.44501 1.028,-1.131l0,-0.759z"/>
     <path stroke="null" style="vector-effect: non-scaling-stroke;" id="svg_26" d="m40.425,54.083c-0.114,-0.074 -0.251,-0.108 -0.4,-0.108c-0.371,0 -0.645,0.234 -0.645,0.68501l0,1.713l-0.469,0l0,-2.833l0.469,0l0,0.36l0.023,0c0.2,-0.291 0.44,-0.389 0.743,-0.389c0.194,0 0.371,0.046 0.48,0.12l-0.201,0.452z"/>
     <path stroke="null" style="vector-effect: non-scaling-stroke;" id="svg_27" d="m43.386,54.426l0,1.947l-0.474,0l0,-0.246l-0.006,-0.006c-0.103,0.166 -0.4,0.286 -0.783,0.286c-0.645,0 -1.005,-0.354 -1.005,-0.839c0,-0.44 0.297,-0.834 0.902,-0.834l0.891,0l0,-0.32c0,-0.308 -0.194,-0.462 -0.651,-0.462c-0.354,0 -0.548,0.097 -0.674,0.24599l-0.297,-0.314c0.211,-0.246 0.565,-0.371 0.953,-0.371c0.613,-0.001 1.144,0.193 1.144,0.913zm-1.205,1.55299c0.365,0 0.731,-0.103 0.731,-0.52499l0,-0.331l-0.777,0c-0.365,0 -0.571,0.154 -0.571,0.417c0,0.268 0.2,0.439 0.617,0.439z"/>
     <path stroke="null" style="vector-effect: non-scaling-stroke;" id="svg_28" d="m46.887,55.699c0.063,-0.223 0.126,-0.46899 0.183,-0.686l0.411,-1.473l0.519,0l-0.908,2.832l-0.445,0l-0.422,-1.365l-0.246,-0.788l-0.229,0.783l-0.422,1.37l-0.451,0l-0.902,-2.832l0.514,0l0.429,1.49l0.183,0.634l0.023,0c0.057,-0.205 0.126,-0.417 0.183,-0.616l0.469,-1.508l0.434,0l0.457,1.49l0.194,0.668l0.026,0l0,0.001z"/>
     <path stroke="null" style="vector-effect: non-scaling-stroke;" id="svg_29" d="m50.569,53.54l0,0.314l0.017,0.006c0.217,-0.251 0.491,-0.349 0.771,-0.349c0.811,0 1.011,0.72 1.011,1.422c0,0.731 -0.211,1.474 -1.102,1.474c-0.28,0 -0.52,-0.092 -0.685,-0.286l-0.011,0l0,1.382l-0.469,0l0,-3.963l0.468,0zm0.64,2.399c0.588,0 0.668,-0.52 0.668,-0.97701c0,-0.43999 -0.045,-0.988 -0.64,-0.988c-0.577,0 -0.668,0.571 -0.668,0.988c0,0.429 0.069,0.97701 0.64,0.97701z"/>
     <path stroke="null" style="vector-effect: non-scaling-stroke;" id="svg_30" d="m53.625,55.117l0,0.04601c0,0.445 0.246,0.811 0.731,0.811c0.183,0 0.451,-0.097 0.64,-0.269l0.302,0.337c-0.268,0.257 -0.617,0.365 -0.965,0.365c-0.577,0 -1.199,-0.268 -1.199,-1.439c0,-1.12 0.645,-1.46201 1.182,-1.46201c0.623,0 1.131,0.456 1.131,1.245l0,0.365l-1.822,0l0,0.001zm0,-0.394l1.331,0c-0.023,-0.508 -0.28,-0.771 -0.663,-0.771c-0.383,0 -0.64,0.279 -0.668,0.771z"/>
     <path stroke="null" style="vector-effect: non-scaling-stroke;" id="svg_31" d="m58.368,53.992c0.131,0.206 0.194,0.50201 0.194,0.868c0,0.485 -0.046,0.805 -0.177,1.028c-0.195,0.331 -0.571,0.52 -1.017,0.52c-0.405,0 -0.743,-0.143 -0.937,-0.42799c-0.155,-0.235 -0.211,-0.56001 -0.211,-1.011c0,-0.32 0.034,-0.58801 0.143,-0.811c0.189,-0.405 0.577,-0.64 1.068,-0.64c0.405,-0.001 0.742,0.17101 0.937,0.474zm-1.577,0.348c-0.08,0.17101 -0.097,0.383 -0.103,0.634c0,0.251 0.012,0.451 0.086,0.617c0.109,0.24599 0.32,0.389 0.599,0.389c0.303,0 0.56,-0.15501 0.668,-0.50301c0.04,-0.137 0.046,-0.297 0.046,-0.599c0,-0.217 -0.017,-0.389 -0.074,-0.525c-0.109,-0.28 -0.331,-0.411 -0.6,-0.411c-0.279,-0.002 -0.507,0.146 -0.622,0.39799z"/>
     <path stroke="null" style="vector-effect: non-scaling-stroke;" id="svg_32" d="m59.919,53.54l0,0.314l0.017,0.006c0.217,-0.251 0.491,-0.349 0.771,-0.349c0.811,0 1.011,0.72 1.011,1.422c0,0.731 -0.211,1.474 -1.102,1.474c-0.28,0 -0.52,-0.092 -0.685,-0.286l-0.011,0l0,1.382l-0.469,0l0,-3.963l0.468,0zm0.64,2.399c0.588,0 0.668,-0.52 0.668,-0.97701c0,-0.43999 -0.045,-0.988 -0.639,-0.988c-0.577,0 -0.668,0.571 -0.668,0.988c-0.001,0.429 0.068,0.97701 0.639,0.97701z"/>
     <path stroke="null" style="vector-effect: non-scaling-stroke;" id="svg_33" d="m63.31,56.373c-0.411,0 -0.697,-0.171 -0.697,-0.657l0,-3.48901l0.469,0l0,3.44901c0,0.171 0.097,0.269 0.291,0.269l0.137,0l0,0.428l-0.2,0z"/>
     <path stroke="null" style="vector-effect: non-scaling-stroke;" id="svg_34" d="m64.59,55.117l0,0.04601c0,0.445 0.24599,0.811 0.731,0.811c0.183,0 0.451,-0.097 0.64,-0.269l0.302,0.337c-0.268,0.257 -0.617,0.365 -0.965,0.365c-0.577,0 -1.199,-0.268 -1.199,-1.439c0,-1.12 0.645,-1.46201 1.182,-1.46201c0.623,0 1.131,0.456 1.131,1.245l0,0.365l-1.822,0l0,0.001zm0,-0.394l1.33099,0c-0.02299,-0.508 -0.28,-0.771 -0.66299,-0.771c-0.383,0 -0.639,0.279 -0.668,0.771z"/>
     <path stroke="null" style="vector-effect: non-scaling-stroke;" id="svg_35" d="m67.183,56.373l0,-0.634l0.58801,0l0,0.634l-0.58801,0z"/>
    </g>
    <g stroke="null" style="vector-effect: non-scaling-stroke;" id="svg_36">
     <path stroke="null" style="vector-effect: non-scaling-stroke;" id="svg_37" d="m54.589,-21.892c0,-0.985 0,-4.141 0,-5.142c-1.893,-0.429 -3.105,-0.389 -3.105,-0.389s-1.212,-0.039 -3.105,0.389c0,1.001 0,4.157 0,5.142c1.569,-0.391 3.105,-0.376 3.105,-0.376s1.536,-0.015 3.105,0.376z"/>
     <path stroke="null" style="vector-effect: non-scaling-stroke;" id="svg_38" d="m46.513,-13.494c0.328,-0.146 1.317,-0.465 1.317,-0.465l0.001,23.654c0,0 1.726,0.504 3.001,0.504l0,-14.941l1.305,0l0,14.941c1.275,0 3.001,-0.504 3.001,-0.504l0.001,-23.654c0,0 0.989,0.319 1.317,0.465l0,6.508c0,0 1.39,0.521 2.893,1.666c0,-1.131 -0.002,-12.994 -0.002,-12.994s-3.13,-2.677 -7.861,-2.678l0,0c0,0 0,0 -0.001,0l-0.001,0l0,0c-4.731,0.001 -7.861,2.678 -7.861,2.678s-0.003,11.863 -0.003,12.994c1.503,-1.145 2.893,-1.666 2.893,-1.666l0,-6.508z"/>
     <path stroke="null" style="vector-effect: non-scaling-stroke;" id="svg_39" d="m56.464,10.502c0,0 -2.155,0.994 -4.982,0.994c-2.828,0 -4.982,-0.994 -4.982,-0.994l0.009,-12.929c0,0 -1.472,-0.598 -2.908,-1.691c0,1.759 0,11.204 0,12.963c0.068,0.136 0.089,0.178 3.938,7.837c0.771,0.231 2.231,0.58 3.949,0.58c1.718,0 3.166,-0.349 3.937,-0.58c3.848,-7.659 3.87,-7.701 3.938,-7.837c0,-1.759 0,-11.204 0,-12.963c-1.436,1.093 -2.908,1.691 -2.908,1.691l0.009,12.929z"/>
     <path stroke="null" style="vector-effect: non-scaling-stroke;" id="svg_40" d="m48.379,18.345c0.865,1.722 1.89,3.761 3.104,6.177c1.214,-2.416 2.238,-4.455 3.104,-6.177c-0.838,0.189 -1.954,0.376 -3.104,0.376c-1.15,0 -2.266,-0.187 -3.104,-0.376z"/>
     <path stroke="null" style="vector-effect: non-scaling-stroke;" id="svg_41" d="m78.969,-24.577c-6.86,-8.169 -16.886,-12.855 -27.506,-12.855c-10.595,0 -20.606,4.67 -27.465,12.812l-0.595,0.705l-0.001,45.137l0.607,0.709c6.853,8.011 16.859,12.606 27.453,12.606c10.619,0 20.643,-4.65701 27.501,-12.778l0.597,-0.706l0.001,-44.925l-0.592,-0.705zm-4.464,43.761c-5.87299,6.556 -14.219,10.299 -23.044,10.299c-8.807,0 -17.139,-3.687 -23.006,-10.148l0.001,-41.384c5.874,-6.576 14.207,-10.329 23.007,-10.329c8.822,0 17.17,3.768 23.044,10.367l-0.00201,41.195z"/>
    </g>
   </g>
  </g>
  <g stroke="null" id="svg_254">
   <g stroke="null" transform="matrix(0.29544 0 0 0.221794 0.793514 29.9264)" id="svg_209" display="none">
    <path stroke="#000000" id="svg_210" d="m77.96892,-68.536l3.6,4l4.5,-2c0,0 -2.7,3.783 -2.7,7c0,1.97 0,3 0,3c0,3.638 2.7,4 2.7,4c0.99001,0 1.8,0.9 1.8,2c0,1.1 -0.81,2 -1.8,2c-3.09399,3.438 -2.7,3.938 -2.7,14c0,11.36 6.3,17 6.3,17s0,0.701 0,3c0,1.625 5.4,2.375 5.4,6s-1.8,2.25 -1.8,5c1.485,0 2.7,1.35 2.7,3c0,1.65 -1.215,3 -2.7,3l-30.6,0c-1.485,0 -2.7,-1.35 -2.7,-3c0,-1.65 1.215,-3 2.7,-3c0,-2.75 -1.8,-1.375 -1.8,-5s5.4,-4.375 5.4,-6c0,-2.299 0,-3 0,-3s6.3,-5.64 6.3,-17c0,-10.062 0.394,-10.562 -2.7,-14c-0.99,0 -1.8,-0.9 -1.8,-2c0,-1.1 0.81001,-2 1.8,-2c0,0 2.7,-0.362 2.7,-4c0,0 0,-1.03 0,-3c0,-3.217 -2.7,-7 -2.7,-7l4.5,2c0,0 3.6,-4 3.6,-4z" stroke-miterlimit="10" stroke-width="2" fill="none"/>
    <path stroke="#000000" id="svg_211" d="m84.96892,-65.536c0,-3.316 -3.684,-6 -7,-6s-7,2.684 -7,6" stroke-miterlimit="10" stroke-width="2" fill="none"/>
    <path stroke="#000000" id="svg_212" d="m80.96892,-70.536l0,-1c0,-1.658 -1.342,-3 -3,-3s-3,1.342 -3,3l0,1" stroke-miterlimit="10" stroke-width="2" fill="none"/>
    <line stroke="#000000" id="svg_213" y2="-56.53601" x2="83.36892" y1="-56.53601" x1="72.56892" stroke-miterlimit="10" stroke-width="2" fill="none"/>
    <line stroke="#000000" id="svg_214" y2="-52.53601" x2="86.96892" y1="-52.53601" x1="69.86892" stroke-miterlimit="10" stroke-width="2" fill="none"/>
    <line stroke="#000000" id="svg_215" y2="-48.53601" x2="86.06892" y1="-48.53601" x1="69.86892" stroke-miterlimit="10" stroke-width="2" fill="none"/>
    <line stroke="#000000" id="svg_216" y2="-14.53601" x2="89.66892" y1="-14.53601" x1="66.26892" stroke-miterlimit="10" stroke-width="2" fill="none"/>
    <line stroke="#000000" id="svg_217" y2="-17.53601" x2="89.66892" y1="-17.53601" x1="66.26892" stroke-miterlimit="10" stroke-width="2" fill="none"/>
    <line stroke="#000000" id="svg_218" y2="-3.53601" x2="93.26892" y1="-3.53601" x1="62.66892" stroke-miterlimit="10" stroke-width="2" fill="none"/>
   </g>
   <g stroke="null" transform="matrix(1.10197 0 0 0.530765 3.29953 12.934)" id="svg_219">
    <path stroke="null" id="svg_220" d="m32.40779,46.94347c0.084,-0.229 0.22,-0.364 0.408,-0.55c0.68,-0.673 1.29,-1.45699 1.29,-3.631c0,-2.743 -2.303,-4.098 -3.984,-5.087c-0.524,-0.309 -1.315,-0.774 -1.416,-0.913l0,-3.447l-0.333,-0.298c-0.059,-0.05299 -5.967,-5.466 -5.967,-16.255c0,-1.125 -0.005,-2.132 -0.009,-3.036c-0.034,-6.852 -0.03699,-7.49 2.19801,-10.009c1.311,-0.249 2.311,-1.479 2.311,-2.955c0,-1.315 -0.799,-2.422 -1.9,-2.826l0,-0.174l-0.81499,0c-0.292,-0.059 -1.785,-0.48199 -1.785,-3l0,-3c0,-2.853 2.489,-6.38399 2.515,-6.419l2.119,-2.979l-3.37099,1.498c-0.608,-1.724 -1.993,-3.14101 -3.663,-4.04l0,-0.06c0,-2.206 -1.794,-4 -4,-4s-4,1.794 -4,4l0,0.06c-1.669,0.89899 -3.055,2.316 -3.66299,4.04l-3.381,-1.50201l2.129,2.983c0.7,0.98 2.515,4.043 2.515,6.419l0,3c0,2.495 -1.49599,2.938 -1.796,3.002c-1.499,0.054 -2.704,1.37801 -2.704,2.998c0,1.47601 1,2.706 2.312,2.955c2.234,2.519 2.231,3.157 2.198,10.009c-0.005,0.904 -0.01,1.911 -0.01,3.036c0,10.735 -5.91,16.20301 -5.96699,16.255l-0.333,0.298l0.017,3.35599c-0.118,0.23001 -0.909,0.695 -1.433,1.00301c-1.681,0.99 -3.984,2.34501 -3.984,5.088c0,2.174 0.61,2.958 1.29,3.631c0.188,0.186 0.32401,0.32101 0.408,0.55c-1.50399,0.508 -2.598,2.028 -2.598,3.819c0,2.206 1.66,4 3.7,4l30.6,0c2.041,0 3.7,-1.794 3.7,-4c0,-1.791 -1.094,-3.311 -2.598,-3.819zm-16.402,-69.181c0.832,0 1.545,0.51 1.846,1.234c-0.614,-0.14799 -1.235,-0.234 -1.846,-0.234s-1.23199,0.086 -1.846,0.234c0.301,-0.724 1.014,-1.234 1.846,-1.234zm0,3c2.35201,0 5.122,1.671 5.827,3.916l-1.969,0.875l-3.858,-4.28599l-3.85699,4.28599l-1.969,-0.875c0.70399,-2.245 3.474,-3.916 5.826,-3.916zm4.4,11l0,2l-8.8,0l0,-2c0,-1.668 -0.63,-3.433 -1.30199,-4.84l2.359,1.049l3.34299,-3.714l3.343,3.714l2.359,-1.049c-0.672,1.407 -1.302,3.172 -1.302,4.84zm0.751,6l-10.302,0c0.319,-0.533 0.555,-1.197 0.668,-2l8.966,0c0.113,0.803 0.35,1.467 0.668,2zm-12.806,4l-0.445,0c-0.434,0 -0.8,-0.458 -0.8,-1s0.366,-1 0.8,-1l16.2,0c0.43401,0 0.8,0.458 0.8,1s-0.366,1 -0.8,1l-0.445,0l-15.31,0zm3.255,15c0,-1.122 0.005,-2.125 0.009,-3.026c0.029,-5.871 0.036,-7.689 -1.595,-9.974l11.971,0c-1.631,2.285 -1.624,4.102 -1.595,9.974c0.005,0.901 0.01,1.904 0.01,3.026c0,8.17 3.113,13.467 5.076,16l-18.952,0c1.963,-2.533 5.076,-7.83001 5.076,-16zm-6.29999,18l21.4,0l0,1l-21.4,0l0,-1zm-2.402,4.637c0.851,-0.5 1.659,-0.986 2.086,-1.637l22.032,0c0.427,0.651 1.235,1.136 2.086,1.637c1.755,1.032 2.998,1.878 2.998,3.363c0,1.521 -0.308,1.82499 -0.697,2.21c-0.439,0.434 -0.843,0.91 -1.015,1.79l-28.776,0c-0.172,-0.88 -0.577,-1.356 -1.015,-1.79c-0.389,-0.38501 -0.69699,-0.689 -0.69699,-2.21c0,-1.485 1.243,-2.331 2.998,-3.363zm28.402,13.363l-30.6,0c-0.92101,0 -1.7,-0.916 -1.7,-2s0.779,-2 1.7,-2l1,0l28.6,0l1,0c0.921,0 1.7,0.916 1.7,2s-0.779,2 -1.7,2z"/>
   </g>
   <g stroke="null" transform="matrix(0.29544 0 0 0.221794 0.793514 29.9264)" id="svg_221" opacity="0.2" display="none">
    <g stroke="null" id="svg_222" display="inline">
     <g stroke="null" id="svg_223">
      <path stroke="null" id="svg_224" d="m80.46592,-12.46601l-1.088,0.387c-0.082,-0.358 -0.38,-0.633 -0.849,-0.633c-0.57401,0 -0.842,0.417 -0.842,0.842l0,1.408c0,0.501 0.28,0.87901 0.849,0.87901c0.569,0 0.991,-0.32401 0.991,-0.32401l0.001,-0.584l-1.156,0l0,-0.955l2.19,0c0,0 0,1.651 0,1.927c-0.361,0.495 -1.215,1.001 -2.026,1.001c-1.348,0 -2.004,-0.842 -2.004,-2.026l0,-1.222c0,-1.073 0.656,-2.019 2.004,-2.019c0.984,0 1.676,0.529 1.93,1.319z"/>
      <g stroke="null" id="svg_225">
       <path stroke="null" id="svg_226" d="m58.37692,-8.56301l0,-5.19l3.668,0l0,1.029l-2.52,0l0,1.051l2.148,0l0,0.992l-2.148,0l0,1.089l2.52,0l0,1.029l-3.668,0z"/>
       <path stroke="null" id="svg_227" d="m103.38192,-8.56301l0,-2.118l-1.7,0l0,2.118l-1.14799,0l0,-5.19l1.14799,0l0,2.08l1.7,0l0,-2.08l1.133,0l0,5.19l-1.133,0z"/>
      </g>
      <path stroke="null" id="svg_228" d="m74.71892,-12.85101c0,0 -0.776,-0.952 -2.013,-0.952s-2.013,0.952 -2.013,0.952s-0.001,1.05 -0.001,1.078l0,0.639l0,0.416l0,1.252c0,0 0.786,0.958 2.014,0.958l0,0c1.228,0 2.014,-0.958 2.014,-0.958l0,-1.252l0,-0.416l0,-0.639c0.001,-0.028 -0.001,-1.078 -0.001,-1.078zm-1.14799,1.708l0,0.245l0,0.868c0,0 -0.259,0.43301 -0.869,0.43301l0,0c-0.61,0 -0.869,-0.43301 -0.869,-0.43301l0,-0.868l0,-0.245l0,-0.376c0,-0.016 0.00101,-0.765 0.00101,-0.765s0.254,-0.429 0.868,-0.429c0.614,0 0.868,0.429 0.868,0.429s0.001,0.749 0.001,0.765l0,0.376z"/>
      <path stroke="null" id="svg_229" d="m54.44892,-13.74301c1.155,0 1.966,0.992 1.966,0.992l0,0.959c0,0 0,1.072 0,1.10899c-0.002,0.666 0,1.131 0,1.131s-0.714,0.993 -2.093,0.993l-1.936,0l0,-5.184l2.063,0zm0.826,2.233l0,-0.133c0,-0.003 0,-0.006 0,-0.009c0,-0.218 -0.001,-0.606 -0.001,-0.606s-0.151,-0.254 -0.5,-0.367c-0.138,-0.056 -0.308,-0.084 -0.512,-0.084l-0.73,0l0,3.12099l0.752,0c0.246,0 0.436,-0.045 0.58,-0.129c0.284,-0.124 0.41,-0.335 0.41,-0.335l0,-0.849l0,-0.239l0,-0.368c0.001,0 0.001,-0.001 0.001,-0.002z"/>
      <path stroke="null" id="svg_230" d="m98.76892,-12.08601l0,0c0,0.16 0,0.691 0,0.691s-0.843,0.934 -1.819,0.934l-0.991,0l0,1.894l-1.14799,0l0,-5.189l2.139,0c0.976,0 1.819,0.934 1.819,0.934s0,0.722 0,0.736zm-1.163,-0.28999c0,0 -0.332,-0.35101 -0.716,-0.35101l-0.931,0l0,1.238l0.932,0c0.384,0 0.716,-0.351 0.716,-0.351s0,-0.254 0,-0.268s-0.001,-0.268 -0.001,-0.268z"/>
      <path stroke="null" id="svg_231" d="m86.51592,-8.55701l-0.994,-2.213l-0.004,-0.001c0.558,-0.277 0.949,-0.711 0.949,-0.711l0,-0.429l0,-0.215l0,0l0,-0.302l0,-0.387c0,0 -0.845,-0.937 -1.824,-0.937l-2.145,0l0,2.37l-0.003,-0.001l0,2.825l1.151,0l0,-1.987l0.003,0l0.754,0l0.812,1.987l1.301,0l0,0.001zm-2.867,-4.16299l0.934,0c0.385,0 0.718,0.352 0.718,0.352s0,0.048 0,0.12c0,0.057 0,0.094 0,0.1c0,0.006 0,0.051 0,0.104c0,0.076 0,0.116 0,0.116s-0.333,0.352 -0.718,0.352l-0.934,0l0,-1.144z"/>
      <path stroke="null" id="svg_232" d="m67.63392,-8.56301l0,-2.47l-0.022,-0.008l-0.47,1.05199l-0.308,0.64301c0,0 -0.217,0.099 -0.496,0.099c-0.278,0 -0.462,-0.086 -0.462,-0.086l-0.33,-0.694l-0.455,-1.015l-0.022,0.022l0,2.455l-1.14899,0l0,-5.193l1.03699,0l0.701,1.507l0.671,1.559l0.03,0l0.649,-1.559l0.686,-1.507l1.082,0l0,5.193l-1.142,0l0,0.002z"/>
      <path stroke="null" id="svg_233" d="m91.87791,-8.56301l-0.392,-1.065c0,0 -0.389,0.153 -0.888,0.153c-0.499,0 -0.867,-0.153 -0.867,-0.153l-0.39201,1.065l-1.21999,0l2.034,-5.17c0,0 0.197,-0.052 0.449,-0.052c0.252,0 0.46201,0.052 0.46201,0.052l2.033,5.17l-1.219,0zm-0.949,-2.641l-0.309,-1.035l-0.03001,0l-0.30099,1.02l-0.18501,0.581c0,0 0.16901,0.112 0.494,0.112c0.325,0 0.516,-0.11 0.516,-0.11l-0.185,-0.568z"/>
     </g>
     <g stroke="null" id="svg_234">
      <path stroke="null" id="svg_235" d="m63.46192,-2.138c0.594,0 1.102,0.217 1.354,0.737c0.14301,0.291 0.154,0.69099 0.154,1.182c0,0.554 -0.012,0.959 -0.143,1.267c-0.263,0.6 -0.822,0.788 -1.462,0.788l-1.205,0l0,-3.975l1.302,0l0,0.001zm1.005,1.62199c0,-0.87399 -0.422,-1.16 -1.028,-1.16l-0.777,0l0,3.05l0.777,0c0.754,0 1.028,-0.44501 1.028,-1.131l0,-0.759z"/>
      <path stroke="null" id="svg_236" d="m67.39392,-0.45301c-0.114,-0.074 -0.251,-0.108 -0.4,-0.108c-0.371,0 -0.645,0.234 -0.645,0.68501l0,1.713l-0.469,0l0,-2.833l0.469,0l0,0.36l0.02299,0c0.2,-0.291 0.44,-0.389 0.743,-0.389c0.194,0 0.37099,0.046 0.48,0.12l-0.201,0.452z"/>
      <path stroke="null" id="svg_237" d="m70.35492,-0.11l0,1.947l-0.474,0l0,-0.246l-0.006,-0.006c-0.103,0.166 -0.39999,0.286 -0.783,0.286c-0.645,0 -1.005,-0.354 -1.005,-0.839c0,-0.44 0.297,-0.834 0.902,-0.834l0.891,0l0,-0.32c0,-0.308 -0.194,-0.462 -0.651,-0.462c-0.354,0 -0.548,0.097 -0.674,0.24599l-0.297,-0.314c0.211,-0.246 0.565,-0.371 0.953,-0.371c0.613,-0.001 1.144,0.193 1.144,0.913zm-1.205,1.55299c0.36501,0 0.731,-0.103 0.731,-0.52499l0,-0.331l-0.777,0c-0.365,0 -0.571,0.154 -0.571,0.417c0,0.268 0.2,0.439 0.617,0.439z"/>
      <path stroke="null" id="svg_238" d="m73.85592,1.16299c0.063,-0.223 0.126,-0.46899 0.183,-0.686l0.411,-1.473l0.519,0l-0.908,2.832l-0.445,0l-0.422,-1.365l-0.24599,-0.788l-0.229,0.783l-0.422,1.37l-0.451,0l-0.902,-2.832l0.514,0l0.429,1.49l0.18301,0.634l0.02299,0c0.057,-0.205 0.126,-0.417 0.183,-0.61601l0.469,-1.508l0.434,0l0.457,1.49l0.194,0.668l0.026,0l0,0.001z"/>
      <path stroke="null" id="svg_239" d="m77.53792,-0.99601l0,0.314l0.017,0.006c0.217,-0.251 0.491,-0.349 0.771,-0.349c0.811,0 1.011,0.72 1.011,1.422c0,0.731 -0.211,1.474 -1.10201,1.474c-0.28,0 -0.52,-0.092 -0.685,-0.286l-0.011,0l0,1.382l-0.46899,0l0,-3.963l0.46799,0zm0.64,2.399c0.58801,0 0.668,-0.52 0.668,-0.977c0,-0.43999 -0.045,-0.988 -0.64,-0.988c-0.577,0 -0.668,0.571 -0.668,0.988c0,0.429 0.069,0.977 0.64,0.977z"/>
      <path stroke="null" id="svg_240" d="m80.59392,0.58099l0,0.04601c0,0.445 0.246,0.811 0.731,0.811c0.183,0 0.451,-0.097 0.64,-0.269l0.302,0.337c-0.26801,0.257 -0.617,0.365 -0.965,0.365c-0.577,0 -1.199,-0.268 -1.199,-1.439c0,-1.12 0.645,-1.46201 1.182,-1.46201c0.623,0 1.131,0.456 1.131,1.245l0,0.365l-1.822,0l0,0.001zm0,-0.394l1.331,0c-0.023,-0.508 -0.28,-0.771 -0.663,-0.771c-0.383,0 -0.64,0.279 -0.668,0.771z"/>
      <path stroke="null" id="svg_241" d="m85.33692,-0.54401c0.131,0.206 0.194,0.50201 0.194,0.868c0,0.485 -0.04601,0.805 -0.177,1.028c-0.195,0.331 -0.571,0.52 -1.017,0.52c-0.405,0 -0.743,-0.143 -0.937,-0.42799c-0.155,-0.235 -0.211,-0.56001 -0.211,-1.011c0,-0.32 0.034,-0.58801 0.143,-0.811c0.189,-0.405 0.577,-0.64 1.068,-0.64c0.405,-0.001 0.742,0.17101 0.937,0.474zm-1.577,0.348c-0.08,0.17101 -0.097,0.383 -0.103,0.634c0,0.251 0.012,0.451 0.086,0.617c0.109,0.24599 0.32,0.389 0.599,0.389c0.303,0 0.56,-0.15501 0.668,-0.50301c0.04,-0.137 0.04601,-0.297 0.04601,-0.599c0,-0.217 -0.01701,-0.389 -0.07401,-0.525c-0.109,-0.28 -0.331,-0.411 -0.6,-0.411c-0.279,-0.002 -0.507,0.146 -0.622,0.39799z"/>
      <path stroke="null" id="svg_242" d="m86.88792,-0.99601l0,0.314l0.01701,0.006c0.217,-0.251 0.491,-0.349 0.771,-0.349c0.811,0 1.011,0.72 1.011,1.422c0,0.731 -0.211,1.474 -1.102,1.474c-0.28001,0 -0.52,-0.092 -0.68501,-0.286l-0.011,0l0,1.382l-0.46899,0l0,-3.963l0.46799,0zm0.64,2.399c0.58801,0 0.66801,-0.52 0.66801,-0.977c0,-0.43999 -0.04501,-0.988 -0.639,-0.988c-0.577,0 -0.66801,0.571 -0.66801,0.988c-0.001,0.429 0.068,0.977 0.639,0.977z"/>
      <path stroke="null" id="svg_243" d="m90.27892,1.83699c-0.411,0 -0.697,-0.171 -0.697,-0.657l0,-3.48901l0.469,0l0,3.44901c0,0.171 0.097,0.269 0.291,0.269l0.13699,0l0,0.428l-0.2,0z"/>
      <path stroke="null" id="svg_244" d="m91.55891,0.58099l0,0.04601c0,0.445 0.246,0.811 0.731,0.811c0.183,0 0.451,-0.097 0.64,-0.269l0.302,0.337c-0.268,0.257 -0.617,0.365 -0.965,0.365c-0.577,0 -1.199,-0.268 -1.199,-1.439c0,-1.12 0.645,-1.46201 1.182,-1.46201c0.623,0 1.131,0.456 1.131,1.245l0,0.365l-1.82201,0l0,0.001zm0,-0.394l1.331,0c-0.02299,-0.508 -0.28,-0.771 -0.66299,-0.771c-0.383,0 -0.63901,0.279 -0.66801,0.771z"/>
      <path stroke="null" id="svg_245" d="m94.15192,1.83699l0,-0.634l0.58801,0l0,0.634l-0.58801,0z"/>
     </g>
     <g stroke="null" id="svg_246">
      <path stroke="null" id="svg_247" d="m81.55792,-76.42801c0,-0.985 0,-4.141 0,-5.142c-1.89301,-0.429 -3.105,-0.389 -3.105,-0.389s-1.212,-0.039 -3.105,0.389c0,1.001 0,4.157 0,5.142c1.569,-0.391 3.105,-0.376 3.105,-0.376s1.536,-0.015 3.105,0.376z"/>
      <path stroke="null" id="svg_248" d="m73.48192,-68.03001c0.328,-0.146 1.317,-0.465 1.317,-0.465l0.001,23.654c0,0 1.726,0.504 3.001,0.504l0,-14.941l1.305,0l0,14.941c1.275,0 3.001,-0.504 3.001,-0.504l0.001,-23.654c0,0 0.989,0.319 1.317,0.465l0,6.508c0,0 1.39,0.521 2.893,1.666c0,-1.131 -0.002,-12.994 -0.002,-12.994s-3.13,-2.677 -7.861,-2.678l0,0c0,0 0,0 -0.001,0l-0.001,0l0,0c-4.731,0.001 -7.861,2.678 -7.861,2.678s-0.003,11.863 -0.003,12.994c1.503,-1.145 2.893,-1.666 2.893,-1.666l0,-6.508z"/>
      <path stroke="null" id="svg_249" d="m83.43292,-44.03401c0,0 -2.15501,0.994 -4.982,0.994c-2.828,0 -4.982,-0.994 -4.982,-0.994l0.009,-12.929c0,0 -1.472,-0.598 -2.908,-1.691c0,1.759 0,11.204 0,12.963c0.06799,0.136 0.089,0.178 3.938,7.837c0.771,0.231 2.231,0.58 3.949,0.58c1.718,0 3.166,-0.349 3.937,-0.58c3.848,-7.659 3.87,-7.701 3.938,-7.837c0,-1.759 0,-11.204 0,-12.963c-1.436,1.093 -2.908,1.691 -2.908,1.691l0.009,12.929z"/>
      <path stroke="null" id="svg_250" d="m75.34792,-36.19101c0.865,1.722 1.89,3.761 3.104,6.177c1.214,-2.416 2.238,-4.455 3.104,-6.177c-0.83801,0.189 -1.954,0.376 -3.104,0.376c-1.15,0 -2.266,-0.187 -3.104,-0.376z"/>
      <path stroke="null" id="svg_251" d="m105.93792,-79.11301c-6.86,-8.169 -16.886,-12.855 -27.506,-12.855c-10.595,0 -20.606,4.67001 -27.465,12.812l-0.595,0.705l-0.001,45.137l0.607,0.709c6.853,8.011 16.859,12.606 27.453,12.606c10.619,0 20.643,-4.65701 27.50099,-12.778l0.597,-0.706l0.001,-44.925l-0.592,-0.705zm-4.464,43.761c-5.87299,6.556 -14.21899,10.299 -23.044,10.299c-8.807,0 -17.139,-3.687 -23.006,-10.148l0.001,-41.384c5.874,-6.576 14.207,-10.329 23.007,-10.329c8.822,0 17.17,3.768 23.044,10.367l-0.00201,41.195z"/>
     </g>
    </g>
   </g>
  </g>
 </g>
</svg>