<svg width="42" height="42" xmlns="http://www.w3.org/2000/svg">

 <g>
  <title>background</title>
  <rect fill="none" id="canvas_background" height="44" width="44" y="-1" x="-1"/>
 </g>
 <g>
  <title>Layer 1</title>
  <g id="svg_1" display="none">
   <line id="svg_2" y2="43" x2="62" y1="43" x1="40" stroke-miterlimit="10" stroke-width="2" stroke="#000000" fill="none"/>
   <line id="svg_3" y2="40" x2="61" y1="40" x1="41" stroke-miterlimit="10" stroke-width="2" stroke="#000000" fill="none"/>
   <line id="svg_4" y2="52" x2="65" y1="52" x1="37" stroke-miterlimit="10" stroke-width="2" stroke="#000000" fill="none"/>
   <path id="svg_5" d="m41,2l0,8l3,3c0,0 1,1.714 1,12s-5,15 -5,15s0,1.209 0,3c0,2.062 -5,2.175 -5,5s2,1.857 2,4c-1.403,0 -3,1.377 -3,2.662c0,1.286 1.147,2.338 2.55,2.338l28.9,0c1.403,0 2.55,-1.052 2.55,-2.338c0,-1.285 -1.597,-2.662 -3,-2.662c0,-2.143 2,-1.175 2,-4s-5,-2.969 -5,-5c0,-1.791 0,-3 0,-3s-5,-4.714 -5,-15s1,-12 1,-12l3,-3l0,-8l-4,0l0,6l-4,0l0,-6l-4,0l0,6l-4,0l0,-6l-4,0z" stroke-miterlimit="10" stroke-width="2" stroke="#000000" fill="none"/>
   <line id="svg_6" y2="4" x2="49" y1="4" x1="45" stroke-miterlimit="10" stroke-width="2" stroke="#000000" fill="none"/>
   <line id="svg_7" y2="4" x2="57" y1="4" x1="53" stroke-miterlimit="10" stroke-width="2" stroke="#000000" fill="none"/>
   <line id="svg_8" y2="13" x2="58" y1="13" x1="44" stroke-miterlimit="10" stroke-width="2" stroke="#000000" fill="none"/>
  </g>
  <g stroke="null" id="svg_9">
   <path stroke="null" id="svg_10" d="m38.76577,37.04255c0.057,-0.02869 0.12213,-0.0596 0.19542,-0.09418c0.69675,-0.32887 1.75061,-0.82624 1.75061,-2.30582c0,-1.57597 -2.25544,-2.30068 -3.90251,-2.82968c-0.7619,-0.24501 -1.91346,-0.61509 -1.91346,-0.84906l-0.00349,-2.5236l-0.35943,-0.21704c-0.0535,-0.03311 -5.45305,-3.3837 -5.45305,-10.50277c0,-6.29063 0.8026,-8.08952 0.97359,-8.40368l3.67918,-2.32791l0,-6.92631l-6.97916,0l0,1.4715l-2.32639,0l0,-1.4715l-6.97917,0l0,1.4715l-2.32639,0l0,-1.4715l-6.97917,0l0,6.92631l3.66755,2.31981c0.20937,0.38332 0.98523,2.22562 0.98523,8.41178c0,7.11908 -5.39955,10.46966 -5.45073,10.50056l-0.36524,0.21778l0,2.52507c0,0.24648 -1.11434,0.60259 -1.92741,0.86304c-1.64127,0.52459 -3.88856,1.24267 -3.88856,2.81571c0,1.47957 1.05385,1.97694 1.75061,2.30582c0.07328,0.03458 0.13842,0.06549 0.19542,0.09418c-1.70408,0.42084 -3.10922,1.46929 -3.10922,2.50154c0,1.35376 1.8518,2.45591 4.12934,2.45591l33.61631,0c2.27753,0 4.12934,-1.10215 4.12934,-2.45591c0,-1.03225 -1.40514,-2.0807 -3.10921,-2.50154zm-12.0123,-34.03707l0,1.4715l-2.32639,0l0,-1.4715l2.32639,0zm-9.30556,0l0,1.4715l-2.32639,0l0,-1.4715l2.32639,0zm-6.97916,3.37413l0,-4.84562l2.32639,0l0,4.41447l6.97916,0l0,-4.41447l2.32639,0l0,4.41447l6.97916,0l0,-4.41447l2.32639,0l0,4.84562l-2.80795,1.7761l-15.36579,0l-2.76375,-1.7761zm4.65278,11.34079c0,-4.57266 -0.42108,-6.91381 -0.79446,-8.09321l13.22086,0c-0.37338,1.1794 -0.79446,3.52055 -0.79446,8.09321c0,5.27088 2.70675,8.62736 4.53994,10.30043l-20.71183,0c1.83319,-1.67308 4.53995,-5.02956 4.53995,-10.30043zm17.44791,11.77193l0,0.73574l-23.26388,0l0,-0.73574l23.26388,0zm-26.46848,3.64783c1.13877,-0.36346 2.3892,-0.76591 2.92892,-1.44059l23.81873,0c0.54088,0.66364 1.77968,1.06315 2.90682,1.42514c1.58892,0.50987 2.62998,0.89172 2.62998,1.51785c0,0.74162 -0.28964,0.87848 -0.81539,1.12715c-0.44435,0.2097 -1.0527,0.50031 -1.3435,1.08008l-30.57804,0c-0.28964,-0.57977 -0.89915,-0.87112 -1.34349,-1.08008c-0.52576,-0.24868 -0.8154,-0.38553 -0.8154,-1.12715c0,-0.62172 1.03408,-0.99842 2.61137,-1.5024zm31.64469,7.38835l-33.61631,0c-0.97708,0 -1.80295,-0.451 -1.80295,-0.98441c0,-0.48266 1.24811,-1.22281 2.32639,-1.22281l1.16319,0l30.24305,0l1.16319,0c1.07829,0 2.32639,0.74015 2.32639,1.22281c0,0.53341 -0.82586,0.98441 -1.80295,0.98441z"/>
  </g>
  <g id="svg_11" opacity="0.2" display="none">
   <g id="svg_12" display="inline">
    <g id="svg_13">
     <path id="svg_14" d="m53.497,42.07l-1.088,0.387c-0.082,-0.358 -0.38,-0.633 -0.849,-0.633c-0.574,0 -0.842,0.417 -0.842,0.842l0,1.408c0,0.501 0.28,0.87901 0.849,0.87901c0.569,0 0.991,-0.32401 0.991,-0.32401l0.001,-0.584l-1.156,0l0,-0.955l2.19,0c0,0 0,1.651 0,1.927c-0.361,0.495 -1.215,1.001 -2.026,1.001c-1.348,0 -2.004,-0.842 -2.004,-2.026l0,-1.222c0,-1.073 0.656,-2.019 2.004,-2.019c0.984,0 1.676,0.529 1.93,1.319z"/>
     <g id="svg_15">
      <path id="svg_16" d="m31.408,45.973l0,-5.19l3.668,0l0,1.029l-2.52,0l0,1.051l2.148,0l0,0.992l-2.148,0l0,1.089l2.52,0l0,1.029l-3.668,0z"/>
      <path id="svg_17" d="m76.413,45.973l0,-2.118l-1.7,0l0,2.118l-1.14799,0l0,-5.19l1.14799,0l0,2.08l1.7,0l0,-2.08l1.133,0l0,5.19l-1.133,0z"/>
     </g>
     <path id="svg_18" d="m47.75,41.685c0,0 -0.776,-0.952 -2.013,-0.952s-2.013,0.952 -2.013,0.952s-0.001,1.05 -0.001,1.078l0,0.639l0,0.416l0,1.252c0,0 0.786,0.958 2.014,0.958l0,0c1.228,0 2.014,-0.958 2.014,-0.958l0,-1.252l0,-0.416l0,-0.639c0.001,-0.028 -0.001,-1.078 -0.001,-1.078zm-1.148,1.708l0,0.245l0,0.868c0,0 -0.259,0.43301 -0.869,0.43301l0,0c-0.61,0 -0.869,-0.43301 -0.869,-0.43301l0,-0.868l0,-0.245l0,-0.376c0,-0.016 0.001,-0.765 0.001,-0.765s0.254,-0.429 0.868,-0.429c0.614,0 0.868,0.429 0.868,0.429s0.001,0.749 0.001,0.765l0,0.376z"/>
     <path id="svg_19" d="m27.48,40.793c1.155,0 1.966,0.992 1.966,0.992l0,0.959c0,0 0,1.072 0,1.10899c-0.002,0.666 0,1.131 0,1.131s-0.714,0.993 -2.093,0.993l-1.936,0l0,-5.184l2.063,0zm0.826,2.233l0,-0.133c0,-0.003 0,-0.006 0,-0.009c0,-0.218 -0.001,-0.606 -0.001,-0.606s-0.151,-0.254 -0.5,-0.367c-0.138,-0.056 -0.308,-0.084 -0.512,-0.084l-0.73,0l0,3.12099l0.752,0c0.246,0 0.436,-0.045 0.58,-0.129c0.284,-0.124 0.41,-0.335 0.41,-0.335l0,-0.849l0,-0.239l0,-0.368c0.001,0 0.001,-0.001 0.001,-0.002z"/>
     <path id="svg_20" d="m71.8,42.45l0,0c0,0.16 0,0.691 0,0.691s-0.843,0.934 -1.819,0.934l-0.991,0l0,1.894l-1.14799,0l0,-5.189l2.139,0c0.976,0 1.819,0.934 1.819,0.934s0,0.722 0,0.736zm-1.163,-0.28999c0,0 -0.332,-0.35101 -0.716,-0.35101l-0.931,0l0,1.238l0.932,0c0.384,0 0.716,-0.351 0.716,-0.351s0,-0.254 0,-0.268s-0.001,-0.268 -0.001,-0.268z"/>
     <path id="svg_21" d="m59.547,45.979l-0.994,-2.213l-0.004,-0.001c0.558,-0.277 0.949,-0.711 0.949,-0.711l0,-0.429l0,-0.215l0,0l0,-0.302l0,-0.387c0,0 -0.845,-0.937 -1.824,-0.937l-2.145,0l0,2.37l-0.003,-0.001l0,2.825l1.151,0l0,-1.987l0.003,0l0.754,0l0.812,1.987l1.301,0l0,0.001zm-2.867,-4.16299l0.934,0c0.385,0 0.718,0.352 0.718,0.352s0,0.048 0,0.12c0,0.057 0,0.094 0,0.1c0,0.006 0,0.051 0,0.104c0,0.076 0,0.116 0,0.116s-0.333,0.352 -0.718,0.352l-0.934,0l0,-1.144z"/>
     <path id="svg_22" d="m40.665,45.973l0,-2.47l-0.022,-0.008l-0.47,1.05199l-0.308,0.64301c0,0 -0.217,0.099 -0.496,0.099c-0.278,0 -0.462,-0.086 -0.462,-0.086l-0.33,-0.694l-0.455,-1.015l-0.022,0.022l0,2.455l-1.149,0l0,-5.193l1.037,0l0.701,1.507l0.671,1.559l0.03,0l0.649,-1.559l0.686,-1.507l1.082,0l0,5.193l-1.142,0l0,0.002z"/>
     <path id="svg_23" d="m64.909,45.973l-0.39201,-1.065c0,0 -0.389,0.153 -0.888,0.153c-0.499,0 -0.867,-0.153 -0.867,-0.153l-0.392,1.065l-1.22,0l2.034,-5.17c0,0 0.197,-0.052 0.449,-0.052c0.252,0 0.462,0.052 0.462,0.052l2.033,5.17l-1.21899,0zm-0.94901,-2.641l-0.309,-1.035l-0.03,0l-0.301,1.02l-0.185,0.581c0,0 0.169,0.112 0.494,0.112c0.325,0 0.516,-0.11 0.516,-0.11l-0.185,-0.568z"/>
    </g>
    <g id="svg_24">
     <path id="svg_25" d="m36.493,52.398c0.594,0 1.102,0.217 1.354,0.737c0.143,0.291 0.154,0.69099 0.154,1.182c0,0.554 -0.012,0.959 -0.143,1.267c-0.263,0.6 -0.822,0.788 -1.462,0.788l-1.205,0l0,-3.975l1.302,0l0,0.001zm1.005,1.62199c0,-0.87399 -0.422,-1.16 -1.028,-1.16l-0.777,0l0,3.05l0.777,0c0.754,0 1.028,-0.44501 1.028,-1.131l0,-0.759z"/>
     <path id="svg_26" d="m40.425,54.083c-0.114,-0.074 -0.251,-0.108 -0.4,-0.108c-0.371,0 -0.645,0.234 -0.645,0.68501l0,1.713l-0.469,0l0,-2.833l0.469,0l0,0.36l0.023,0c0.2,-0.291 0.44,-0.389 0.743,-0.389c0.194,0 0.371,0.046 0.48,0.12l-0.201,0.452z"/>
     <path id="svg_27" d="m43.386,54.426l0,1.947l-0.474,0l0,-0.246l-0.006,-0.006c-0.103,0.166 -0.4,0.286 -0.783,0.286c-0.645,0 -1.005,-0.354 -1.005,-0.839c0,-0.44 0.297,-0.834 0.902,-0.834l0.891,0l0,-0.32c0,-0.308 -0.194,-0.462 -0.651,-0.462c-0.354,0 -0.548,0.097 -0.674,0.24599l-0.297,-0.314c0.211,-0.246 0.565,-0.371 0.953,-0.371c0.613,-0.001 1.144,0.193 1.144,0.913zm-1.205,1.55299c0.365,0 0.731,-0.103 0.731,-0.52499l0,-0.331l-0.777,0c-0.365,0 -0.571,0.154 -0.571,0.417c0,0.268 0.2,0.439 0.617,0.439z"/>
     <path id="svg_28" d="m46.887,55.699c0.063,-0.223 0.126,-0.46899 0.183,-0.686l0.411,-1.473l0.519,0l-0.908,2.832l-0.445,0l-0.422,-1.365l-0.246,-0.788l-0.229,0.783l-0.422,1.37l-0.451,0l-0.902,-2.832l0.514,0l0.429,1.49l0.183,0.634l0.023,0c0.057,-0.205 0.126,-0.417 0.183,-0.616l0.469,-1.508l0.434,0l0.457,1.49l0.194,0.668l0.026,0l0,0.001z"/>
     <path id="svg_29" d="m50.569,53.54l0,0.314l0.017,0.006c0.217,-0.251 0.491,-0.349 0.771,-0.349c0.811,0 1.011,0.72 1.011,1.422c0,0.731 -0.211,1.474 -1.102,1.474c-0.28,0 -0.52,-0.092 -0.685,-0.286l-0.011,0l0,1.382l-0.469,0l0,-3.963l0.468,0zm0.64,2.399c0.588,0 0.668,-0.52 0.668,-0.97701c0,-0.43999 -0.045,-0.988 -0.64,-0.988c-0.577,0 -0.668,0.571 -0.668,0.988c0,0.429 0.069,0.97701 0.64,0.97701z"/>
     <path id="svg_30" d="m53.625,55.117l0,0.04601c0,0.445 0.246,0.811 0.731,0.811c0.183,0 0.451,-0.097 0.64,-0.269l0.302,0.337c-0.268,0.257 -0.617,0.365 -0.965,0.365c-0.577,0 -1.199,-0.268 -1.199,-1.439c0,-1.12 0.645,-1.46201 1.182,-1.46201c0.623,0 1.131,0.456 1.131,1.245l0,0.365l-1.822,0l0,0.001zm0,-0.394l1.331,0c-0.023,-0.508 -0.28,-0.771 -0.663,-0.771c-0.383,0 -0.64,0.279 -0.668,0.771z"/>
     <path id="svg_31" d="m58.368,53.992c0.131,0.206 0.194,0.50201 0.194,0.868c0,0.485 -0.046,0.805 -0.177,1.028c-0.195,0.331 -0.571,0.52 -1.017,0.52c-0.405,0 -0.743,-0.143 -0.937,-0.42799c-0.155,-0.235 -0.211,-0.56001 -0.211,-1.011c0,-0.32 0.034,-0.58801 0.143,-0.811c0.189,-0.405 0.577,-0.64 1.068,-0.64c0.405,-0.001 0.742,0.17101 0.937,0.474zm-1.577,0.348c-0.08,0.17101 -0.097,0.383 -0.103,0.634c0,0.251 0.012,0.451 0.086,0.617c0.109,0.24599 0.32,0.389 0.599,0.389c0.303,0 0.56,-0.15501 0.668,-0.50301c0.04,-0.137 0.046,-0.297 0.046,-0.599c0,-0.217 -0.017,-0.389 -0.074,-0.525c-0.109,-0.28 -0.331,-0.411 -0.6,-0.411c-0.279,-0.002 -0.507,0.146 -0.622,0.39799z"/>
     <path id="svg_32" d="m59.919,53.54l0,0.314l0.017,0.006c0.217,-0.251 0.491,-0.349 0.771,-0.349c0.811,0 1.011,0.72 1.011,1.422c0,0.731 -0.211,1.474 -1.102,1.474c-0.28,0 -0.52,-0.092 -0.685,-0.286l-0.011,0l0,1.382l-0.469,0l0,-3.963l0.468,0zm0.64,2.399c0.588,0 0.668,-0.52 0.668,-0.97701c0,-0.43999 -0.045,-0.988 -0.639,-0.988c-0.577,0 -0.668,0.571 -0.668,0.988c-0.001,0.429 0.068,0.97701 0.639,0.97701z"/>
     <path id="svg_33" d="m63.31,56.373c-0.411,0 -0.697,-0.171 -0.697,-0.657l0,-3.48901l0.469,0l0,3.44901c0,0.171 0.097,0.269 0.291,0.269l0.137,0l0,0.428l-0.2,0z"/>
     <path id="svg_34" d="m64.59,55.117l0,0.04601c0,0.445 0.24599,0.811 0.731,0.811c0.183,0 0.451,-0.097 0.64,-0.269l0.302,0.337c-0.268,0.257 -0.617,0.365 -0.965,0.365c-0.577,0 -1.199,-0.268 -1.199,-1.439c0,-1.12 0.645,-1.46201 1.182,-1.46201c0.623,0 1.131,0.456 1.131,1.245l0,0.365l-1.822,0l0,0.001zm0,-0.394l1.33099,0c-0.02299,-0.508 -0.28,-0.771 -0.66299,-0.771c-0.383,0 -0.639,0.279 -0.668,0.771z"/>
     <path id="svg_35" d="m67.183,56.373l0,-0.634l0.58801,0l0,0.634l-0.58801,0z"/>
    </g>
    <g id="svg_36">
     <path id="svg_37" d="m54.589,-21.892c0,-0.985 0,-4.141 0,-5.142c-1.893,-0.429 -3.105,-0.389 -3.105,-0.389s-1.212,-0.039 -3.105,0.389c0,1.001 0,4.157 0,5.142c1.569,-0.391 3.105,-0.376 3.105,-0.376s1.536,-0.015 3.105,0.376z"/>
     <path id="svg_38" d="m46.513,-13.494c0.328,-0.146 1.317,-0.465 1.317,-0.465l0.001,23.654c0,0 1.726,0.504 3.001,0.504l0,-14.941l1.305,0l0,14.941c1.275,0 3.001,-0.504 3.001,-0.504l0.001,-23.654c0,0 0.989,0.319 1.317,0.465l0,6.508c0,0 1.39,0.521 2.893,1.666c0,-1.131 -0.002,-12.994 -0.002,-12.994s-3.13,-2.677 -7.861,-2.678l0,0c0,0 0,0 -0.001,0l-0.001,0l0,0c-4.731,0.001 -7.861,2.678 -7.861,2.678s-0.003,11.863 -0.003,12.994c1.503,-1.145 2.893,-1.666 2.893,-1.666l0,-6.508z"/>
     <path id="svg_39" d="m56.464,10.502c0,0 -2.155,0.994 -4.982,0.994c-2.828,0 -4.982,-0.994 -4.982,-0.994l0.009,-12.929c0,0 -1.472,-0.598 -2.908,-1.691c0,1.759 0,11.204 0,12.963c0.068,0.136 0.089,0.178 3.938,7.837c0.771,0.231 2.231,0.58 3.949,0.58c1.718,0 3.166,-0.349 3.937,-0.58c3.848,-7.659 3.87,-7.701 3.938,-7.837c0,-1.759 0,-11.204 0,-12.963c-1.436,1.093 -2.908,1.691 -2.908,1.691l0.009,12.929z"/>
     <path id="svg_40" d="m48.379,18.345c0.865,1.722 1.89,3.761 3.104,6.177c1.214,-2.416 2.238,-4.455 3.104,-6.177c-0.838,0.189 -1.954,0.376 -3.104,0.376c-1.15,0 -2.266,-0.187 -3.104,-0.376z"/>
     <path id="svg_41" d="m78.969,-24.577c-6.86,-8.169 -16.886,-12.855 -27.506,-12.855c-10.595,0 -20.606,4.67 -27.465,12.812l-0.595,0.705l-0.001,45.137l0.607,0.709c6.853,8.011 16.859,12.606 27.453,12.606c10.619,0 20.643,-4.65701 27.501,-12.778l0.597,-0.706l0.001,-44.925l-0.592,-0.705zm-4.464,43.761c-5.87299,6.556 -14.219,10.299 -23.044,10.299c-8.807,0 -17.139,-3.687 -23.006,-10.148l0.001,-41.384c5.874,-6.576 14.207,-10.329 23.007,-10.329c8.822,0 17.17,3.768 23.044,10.367l-0.00201,41.195z"/>
    </g>
   </g>
  </g>
 </g>
</svg>